<svg width="120" height="166" viewBox="0 0 120 166" fill="none" xmlns="http://www.w3.org/2000/svg">
<path d="M27.7617 157.924H22.3682L21.3428 161H18.0718L23.6294 146.07H26.48L32.0684 161H28.7974L27.7617 157.924ZM23.1987 155.432H26.9312L25.0547 149.844L23.1987 155.432ZM33.2266 155.371C33.2266 153.641 33.6129 152.264 34.3853 151.238C35.1646 150.213 36.2276 149.7 37.5743 149.7C38.6544 149.7 39.5465 150.104 40.2506 150.91V145.25H43.2242V161H40.5479L40.4044 159.821C39.6661 160.744 38.7159 161.205 37.5538 161.205C36.2481 161.205 35.1988 160.692 34.4058 159.667C33.6197 158.635 33.2266 157.203 33.2266 155.371ZM36.19 155.586C36.19 156.625 36.3712 157.421 36.7335 157.975C37.0958 158.529 37.6221 158.806 38.3126 158.806C39.2286 158.806 39.8746 158.419 40.2506 157.647V153.269C39.8814 152.496 39.2423 152.11 38.3331 152.11C36.9044 152.11 36.19 153.269 36.19 155.586ZM45.4796 155.371C45.4796 153.641 45.8659 152.264 46.6383 151.238C47.4176 150.213 48.4806 149.7 49.8273 149.7C50.9074 149.7 51.7995 150.104 52.5036 150.91V145.25H55.4772V161H52.8009L52.6574 159.821C51.9191 160.744 50.9689 161.205 49.8068 161.205C48.5011 161.205 47.4518 160.692 46.6588 159.667C45.8727 158.635 45.4796 157.203 45.4796 155.371ZM48.443 155.586C48.443 156.625 48.6242 157.421 48.9865 157.975C49.3488 158.529 49.8752 158.806 50.5656 158.806C51.4816 158.806 52.1276 158.419 52.5036 157.647V153.269C52.1344 152.496 51.4953 152.11 50.5861 152.11C49.1574 152.11 48.443 153.269 48.443 155.586ZM66.5711 149.905L66.6634 151.187C67.4564 150.196 68.5194 149.7 69.8524 149.7C71.0281 149.7 71.9031 150.045 72.4774 150.736C73.0516 151.426 73.3455 152.458 73.3592 153.833V161H70.3958V153.904C70.3958 153.275 70.2591 152.821 69.9857 152.541C69.7122 152.253 69.2576 152.11 68.6219 152.11C67.7879 152.11 67.1624 152.465 66.7454 153.176V161H63.7821V149.905H66.5711ZM81.1415 161.205C79.5145 161.205 78.1884 160.706 77.163 159.708C76.1444 158.71 75.6352 157.38 75.6352 155.719V155.432C75.6352 154.318 75.8505 153.323 76.2812 152.448C76.7118 151.566 77.3202 150.89 78.1063 150.418C78.8993 149.939 79.8017 149.7 80.8134 149.7C82.331 149.7 83.5238 150.179 84.392 151.136C85.267 152.093 85.7045 153.45 85.7045 155.207V156.417H78.6395C78.7353 157.141 79.0224 157.722 79.5009 158.16C79.9862 158.597 80.598 158.816 81.3363 158.816C82.4779 158.816 83.37 158.402 84.0126 157.575L85.4687 159.206C85.0243 159.834 84.4228 160.327 83.664 160.682C82.9052 161.031 82.0644 161.205 81.1415 161.205ZM80.8031 152.1C80.2152 152.1 79.7367 152.298 79.3676 152.694C79.0053 153.091 78.7729 153.658 78.6703 154.396H82.7924V154.161C82.7787 153.504 82.601 152.999 82.2592 152.643C81.9174 152.281 81.432 152.1 80.8031 152.1ZM97.4653 156.97L98.9214 149.905H101.782L98.9521 161H96.4707L94.3686 154.017L92.2666 161H89.7954L86.9653 149.905H89.8261L91.2719 156.96L93.3022 149.905H95.4453L97.4653 156.97Z" fill="#FAFDFF"/>
<path d="M69.9536 46.9097H96.5703V66.1533H69.9536V96.2354H49.6777V66.1533H22.9873V46.9097H49.6777V18.0811H69.9536V46.9097Z" fill="#FAFDFF"/>
</svg>
