<svg width="95" height="49" viewBox="0 0 95 49" fill="none" xmlns="http://www.w3.org/2000/svg">
<path d="M55.9551 19.0333C56.7191 19.0333 57.3384 18.4131 57.3384 17.648C57.3384 16.883 56.7191 16.2628 55.9551 16.2628C55.1912 16.2628 54.5719 16.883 54.5719 17.648C54.5719 18.4131 55.1912 19.0333 55.9551 19.0333Z" fill="#3150CF"/>
<path d="M76.8147 38.484C80.2662 36.6121 83.3183 34.4836 86.0101 31.3152H82.3448C88.5684 26.5626 92.0132 20.8103 93.6549 13.9115C90.9482 14.9282 86.1829 16.7865 85.1132 17.1261L84.4674 17.2399L84.7041 16.8917C84.7041 16.891 84.7035 16.8857 84.7035 16.8857C84.7035 16.8857 92.2018 6.59343 93.2161 0C92.7311 0.243333 92.4561 0.38813 92.1742 0.520569C90.3057 1.39948 88.4944 2.41463 86.5565 3.12879C78.6564 6.04118 70.3842 7.06742 61.9551 7.07408C55.7141 7.07978 50.3681 8.93171 46.1083 13.3228C46.0723 13.3605 46.0217 13.3944 45.9657 13.4254C43.8528 12.6764 41.8074 10.9196 41.1433 9.11262C40.708 7.92732 40.3593 6.70305 39.8019 5.57004C38.6961 3.32238 37.0237 1.46824 34.3895 0.867509C30.4761 -0.0253451 26.7706 0.549403 23.4109 2.8015C21.4826 4.09452 19.3444 5.02983 16.9586 5.29439C12.7858 5.75634 8.60507 6.15302 4.43133 6.60674C2.98925 6.76326 0.321179 7.05792 0.121857 7.21254C-0.0774655 7.36747 -0.00405539 7.46981 0.140849 7.65421C0.285753 7.83829 12.4115 6.83771 16.7744 7.22552C18.1896 7.35131 19.6747 7.7518 20.9203 8.38706C23.4182 9.66013 24.9796 11.8184 26.0648 14.2305C27.5356 17.5003 28.2348 21.1855 30.3147 24.1045C31.4787 25.7381 33.1337 27.2903 35.7461 27.2156C39.3519 27.1126 42.6234 24.6755 43.632 21.9297C44.1234 20.5936 44.5157 19.2141 45.144 17.9369C46.3902 15.4035 48.2756 13.3136 51.2448 12.6365C55.6556 11.6299 59.8325 12.2779 63.6193 14.8167C65.7928 16.2742 68.2027 17.3286 70.892 17.6264C75.595 18.1473 80.3079 18.5944 85.0122 19.1057C86.6378 19.2825 89.6454 19.614 89.8697 19.7885C90.0947 19.9631 90.0118 20.0781 89.8488 20.286C89.6852 20.4935 76.0174 19.3656 71.0999 19.8034C69.5047 19.945 67.8304 20.3962 66.4266 21.1123C63.6114 22.5473 61.8513 24.98 60.6279 27.6991C58.97 31.3849 57.4821 35.1378 55.8375 38.8287C55.2066 40.245 54.3464 41.5703 53.5715 42.972C53.7313 43.0414 71.4485 48.8196 94.101 48.2569C94.157 48.1194 94.0453 48.3947 94.101 48.2569C88.3602 45.0042 82.6188 41.7731 76.8147 38.484ZM29.8073 7.02591C29.0432 7.02591 28.424 6.40555 28.424 5.6407C28.424 4.87553 29.0435 4.25515 29.8073 4.25515C30.571 4.25515 31.1905 4.87553 31.1905 5.6407C31.1905 6.40555 30.5713 7.02591 29.8073 7.02591Z" fill="#3150CF"/>
</svg>
