<svg width="213" height="261" viewBox="0 0 213 261" fill="none" xmlns="http://www.w3.org/2000/svg">
<path fill-rule="evenodd" clip-rule="evenodd" d="M9 0C4.02944 0 0 4.02944 0 9V26V120V252C0 256.971 4.02943 261 8.99999 261H204C208.971 261 213 256.971 213 252V120V26V9C213 4.02944 208.971 0 204 0H9Z" fill="#8ADDE6"/>
<path fill-rule="evenodd" clip-rule="evenodd" d="M9 0C4.02944 0 0 4.02944 0 9V26V120V252C0 256.971 4.02943 261 8.99999 261H204C208.971 261 213 256.971 213 252V120V26V9C213 4.02944 208.971 0 204 0H9Z" fill="#63A968"/>
<path d="M62.7427 245.394C62.7427 245.942 62.5386 246.364 62.1304 246.662C61.7222 246.959 61.1493 247.107 60.4116 247.107C59.631 247.107 59.0223 246.984 58.5854 246.737V245.91C58.8683 246.053 59.1709 246.166 59.4932 246.248C59.819 246.33 60.1323 246.372 60.4331 246.372C60.8986 246.372 61.2567 246.298 61.5073 246.151C61.758 246.001 61.8833 245.774 61.8833 245.469C61.8833 245.24 61.783 245.045 61.5825 244.884C61.3856 244.719 60.9989 244.526 60.4224 244.304C59.8745 244.1 59.4842 243.922 59.2515 243.772C59.0223 243.618 58.8504 243.444 58.7358 243.251C58.6248 243.058 58.5693 242.827 58.5693 242.558C58.5693 242.078 58.7645 241.701 59.1548 241.425C59.5451 241.146 60.0804 241.006 60.7607 241.006C61.3945 241.006 62.014 241.135 62.6191 241.393L62.3022 242.118C61.7114 241.874 61.1761 241.752 60.6963 241.752C60.2738 241.752 59.9551 241.819 59.7402 241.951C59.5254 242.084 59.418 242.266 59.418 242.499C59.418 242.657 59.4574 242.791 59.5361 242.902C59.6185 243.013 59.7492 243.118 59.9282 243.219C60.1073 243.319 60.451 243.464 60.9595 243.654C61.6577 243.908 62.1286 244.164 62.3721 244.422C62.6191 244.68 62.7427 245.004 62.7427 245.394ZM66.9051 247.107C66.0349 247.107 65.3474 246.842 64.8426 246.312C64.3413 245.783 64.0906 245.047 64.0906 244.105C64.0906 243.156 64.3234 242.402 64.7888 241.844C65.2579 241.285 65.8863 241.006 66.6741 241.006C67.4117 241.006 67.9954 241.249 68.4251 241.736C68.8548 242.22 69.0696 242.859 69.0696 243.654V244.218H65.0144C65.0323 244.909 65.206 245.433 65.5354 245.792C65.8684 246.15 66.3357 246.329 66.9373 246.329C67.5711 246.329 68.1977 246.196 68.8172 245.931V246.726C68.5021 246.862 68.2031 246.959 67.9202 247.016C67.6409 247.077 67.3025 247.107 66.9051 247.107ZM66.6634 241.752C66.1907 241.752 65.8129 241.906 65.5301 242.214C65.2508 242.522 65.086 242.948 65.0359 243.493H68.1136C68.1136 242.931 67.9882 242.501 67.7376 242.204C67.4869 241.903 67.1289 241.752 66.6634 241.752ZM73.3018 247.107C72.4317 247.107 71.7442 246.842 71.2393 246.312C70.738 245.783 70.4874 245.047 70.4874 244.105C70.4874 243.156 70.7201 242.402 71.1856 241.844C71.6547 241.285 72.2831 241.006 73.0709 241.006C73.8085 241.006 74.3921 241.249 74.8218 241.736C75.2515 242.22 75.4664 242.859 75.4664 243.654V244.218H71.4112C71.4291 244.909 71.6028 245.433 71.9322 245.792C72.2652 246.15 72.7325 246.329 73.334 246.329C73.9678 246.329 74.5945 246.196 75.2139 245.931V246.726C74.8988 246.862 74.5998 246.959 74.317 247.016C74.0377 247.077 73.6993 247.107 73.3018 247.107ZM73.0601 241.752C72.5875 241.752 72.2097 241.906 71.9268 242.214C71.6475 242.522 71.4828 242.948 71.4327 243.493H74.5103C74.5103 242.931 74.385 242.501 74.1343 242.204C73.8837 241.903 73.5256 241.752 73.0601 241.752ZM83.9093 247L83.732 246.162H83.6891C83.3955 246.531 83.1018 246.782 82.8082 246.914C82.5182 247.043 82.1547 247.107 81.7179 247.107C81.1342 247.107 80.6759 246.957 80.3429 246.656C80.0135 246.355 79.8487 245.928 79.8487 245.373C79.8487 244.184 80.7994 243.561 82.7008 243.503L83.6998 243.471V243.106C83.6998 242.644 83.5996 242.304 83.399 242.085C83.2021 241.863 82.8852 241.752 82.4484 241.752C81.9578 241.752 81.4028 241.903 80.7833 242.204L80.5094 241.521C80.7994 241.364 81.1163 241.24 81.4601 241.151C81.8074 241.061 82.1547 241.017 82.5021 241.017C83.2039 241.017 83.7231 241.172 84.0597 241.484C84.3999 241.795 84.5699 242.295 84.5699 242.982V247H83.9093ZM81.8951 246.372C82.4501 246.372 82.8852 246.219 83.2003 245.915C83.519 245.611 83.6783 245.185 83.6783 244.637V244.105L82.7867 244.143C82.0778 244.168 81.5657 244.279 81.2506 244.476C80.9391 244.669 80.7833 244.972 80.7833 245.383C80.7833 245.706 80.88 245.951 81.0734 246.119C81.2703 246.287 81.5442 246.372 81.8951 246.372ZM90.6605 247V243.192C90.6605 242.712 90.5513 242.354 90.3329 242.118C90.1145 241.881 89.7725 241.763 89.307 241.763C88.6911 241.763 88.24 241.93 87.9535 242.263C87.6671 242.596 87.5238 243.145 87.5238 243.912V247H86.6322V241.113H87.3573L87.5023 241.919H87.5453C87.7279 241.629 87.984 241.405 88.3134 241.248C88.6428 241.086 89.0098 241.006 89.4145 241.006C90.1234 241.006 90.657 241.178 91.015 241.521C91.3731 241.862 91.5521 242.408 91.5521 243.16V247H90.6605ZM97.6374 247V243.192C97.6374 242.712 97.5282 242.354 97.3097 242.118C97.0913 241.881 96.7494 241.763 96.2839 241.763C95.668 241.763 95.2168 241.93 94.9304 242.263C94.6439 242.596 94.5007 243.145 94.5007 243.912V247H93.6091V241.113H94.3342L94.4792 241.919H94.5221C94.7048 241.629 94.9608 241.405 95.2902 241.248C95.6196 241.086 95.9867 241.006 96.3913 241.006C97.1003 241.006 97.6338 241.178 97.9919 241.521C98.3499 241.862 98.529 242.408 98.529 243.16V247H97.6374ZM101.424 241.113V244.932C101.424 245.412 101.533 245.77 101.751 246.006C101.97 246.243 102.312 246.361 102.777 246.361C103.393 246.361 103.843 246.193 104.125 245.856C104.412 245.519 104.555 244.97 104.555 244.207V241.113H105.447V247H104.711L104.582 246.21H104.534C104.351 246.5 104.097 246.722 103.771 246.876C103.449 247.03 103.08 247.107 102.665 247.107C101.948 247.107 101.411 246.937 101.053 246.597C100.699 246.257 100.521 245.713 100.521 244.964V241.113H101.424ZM111.183 247L111.006 246.162H110.963C110.669 246.531 110.375 246.782 110.082 246.914C109.792 247.043 109.428 247.107 108.991 247.107C108.408 247.107 107.949 246.957 107.616 246.656C107.287 246.355 107.122 245.928 107.122 245.373C107.122 244.184 108.073 243.561 109.974 243.503L110.973 243.471V243.106C110.973 242.644 110.873 242.304 110.673 242.085C110.476 241.863 110.159 241.752 109.722 241.752C109.231 241.752 108.676 241.903 108.057 242.204L107.783 241.521C108.073 241.364 108.39 241.24 108.734 241.151C109.081 241.061 109.428 241.017 109.776 241.017C110.477 241.017 110.997 241.172 111.333 241.484C111.673 241.795 111.843 242.295 111.843 242.982V247H111.183ZM109.169 246.372C109.724 246.372 110.159 246.219 110.474 245.915C110.793 245.611 110.952 245.185 110.952 244.637V244.105L110.06 244.143C109.351 244.168 108.839 244.279 108.524 244.476C108.213 244.669 108.057 244.972 108.057 245.383C108.057 245.706 108.154 245.951 108.347 246.119C108.544 246.287 108.818 246.372 109.169 246.372ZM114.797 247H113.906V238.643H114.797V247ZM122.725 247.107C122.342 247.107 121.991 247.038 121.672 246.898C121.357 246.755 121.092 246.536 120.877 246.243H120.813C120.856 246.586 120.877 246.912 120.877 247.22V249.643H119.985V241.113H120.711L120.834 241.919H120.877C121.106 241.597 121.373 241.364 121.677 241.221C121.982 241.077 122.331 241.006 122.725 241.006C123.505 241.006 124.107 241.273 124.529 241.806C124.955 242.34 125.169 243.088 125.169 244.051C125.169 245.018 124.952 245.77 124.519 246.307C124.089 246.841 123.491 247.107 122.725 247.107ZM122.596 241.763C121.994 241.763 121.559 241.93 121.291 242.263C121.022 242.596 120.884 243.126 120.877 243.853V244.051C120.877 244.878 121.015 245.471 121.291 245.829C121.566 246.184 122.009 246.361 122.617 246.361C123.126 246.361 123.523 246.155 123.81 245.743C124.1 245.331 124.245 244.764 124.245 244.041C124.245 243.306 124.1 242.744 123.81 242.354C123.523 241.96 123.119 241.763 122.596 241.763ZM129.637 241.006C129.898 241.006 130.133 241.027 130.341 241.07L130.217 241.897C129.974 241.844 129.759 241.817 129.573 241.817C129.096 241.817 128.688 242.01 128.348 242.397C128.011 242.784 127.843 243.265 127.843 243.842V247H126.952V241.113H127.687L127.789 242.204H127.832C128.051 241.82 128.314 241.525 128.622 241.317C128.93 241.11 129.268 241.006 129.637 241.006ZM132.553 247H131.662V241.113H132.553V247ZM131.587 239.518C131.587 239.314 131.637 239.165 131.737 239.072C131.837 238.976 131.963 238.927 132.113 238.927C132.256 238.927 132.38 238.976 132.484 239.072C132.587 239.169 132.639 239.318 132.639 239.518C132.639 239.719 132.587 239.869 132.484 239.969C132.38 240.066 132.256 240.114 132.113 240.114C131.963 240.114 131.837 240.066 131.737 239.969C131.637 239.869 131.587 239.719 131.587 239.518ZM137.017 247.107C136.164 247.107 135.504 246.846 135.035 246.323C134.569 245.797 134.336 245.054 134.336 244.094C134.336 243.11 134.573 242.349 135.045 241.812C135.522 241.274 136.198 241.006 137.076 241.006C137.358 241.006 137.641 241.036 137.924 241.097C138.207 241.158 138.429 241.23 138.59 241.312L138.316 242.069C138.119 241.991 137.905 241.926 137.672 241.876C137.439 241.822 137.233 241.795 137.054 241.795C135.858 241.795 135.26 242.558 135.26 244.083C135.26 244.807 135.405 245.362 135.695 245.749C135.989 246.135 136.422 246.329 136.995 246.329C137.486 246.329 137.989 246.223 138.504 246.012V246.801C138.11 247.005 137.615 247.107 137.017 247.107ZM141.018 247H140.126V241.113H141.018V247ZM140.051 239.518C140.051 239.314 140.101 239.165 140.201 239.072C140.302 238.976 140.427 238.927 140.577 238.927C140.721 238.927 140.844 238.976 140.948 239.072C141.052 239.169 141.104 239.318 141.104 239.518C141.104 239.719 141.052 239.869 140.948 239.969C140.844 240.066 140.721 240.114 140.577 240.114C140.427 240.114 140.302 240.066 140.201 239.969C140.101 239.869 140.051 239.719 140.051 239.518ZM147.157 247V243.192C147.157 242.712 147.048 242.354 146.829 242.118C146.611 241.881 146.269 241.763 145.803 241.763C145.187 241.763 144.736 241.93 144.45 242.263C144.163 242.596 144.02 243.145 144.02 243.912V247H143.128V241.113H143.853L143.999 241.919H144.041C144.224 241.629 144.48 241.405 144.81 241.248C145.139 241.086 145.506 241.006 145.911 241.006C146.62 241.006 147.153 241.178 147.511 241.521C147.869 241.862 148.048 242.408 148.048 243.16V247H147.157ZM154.923 241.113V241.677L153.833 241.806C153.933 241.931 154.023 242.096 154.101 242.3C154.18 242.501 154.219 242.728 154.219 242.982C154.219 243.559 154.023 244.019 153.629 244.363C153.235 244.707 152.694 244.878 152.007 244.878C151.831 244.878 151.666 244.864 151.512 244.835C151.133 245.036 150.943 245.288 150.943 245.593C150.943 245.754 151.009 245.874 151.142 245.953C151.274 246.028 151.502 246.065 151.824 246.065H152.866C153.503 246.065 153.992 246.2 154.332 246.468C154.676 246.737 154.848 247.127 154.848 247.639C154.848 248.291 154.587 248.787 154.064 249.127C153.541 249.471 152.778 249.643 151.776 249.643C151.006 249.643 150.411 249.499 149.992 249.213C149.577 248.926 149.369 248.522 149.369 247.999C149.369 247.641 149.484 247.331 149.713 247.07C149.942 246.808 150.265 246.631 150.68 246.538C150.53 246.47 150.402 246.364 150.299 246.221C150.198 246.078 150.148 245.911 150.148 245.722C150.148 245.507 150.205 245.319 150.32 245.158C150.435 244.997 150.615 244.841 150.863 244.69C150.558 244.565 150.309 244.352 150.116 244.051C149.926 243.75 149.831 243.407 149.831 243.02C149.831 242.375 150.025 241.88 150.411 241.532C150.798 241.181 151.346 241.006 152.055 241.006C152.363 241.006 152.64 241.042 152.887 241.113H154.923ZM150.229 247.988C150.229 248.307 150.363 248.549 150.632 248.713C150.9 248.878 151.285 248.96 151.786 248.96C152.535 248.96 153.088 248.848 153.446 248.622C153.808 248.4 153.989 248.097 153.989 247.714C153.989 247.396 153.89 247.174 153.693 247.048C153.496 246.927 153.126 246.866 152.581 246.866H151.512C151.108 246.866 150.793 246.962 150.567 247.156C150.342 247.349 150.229 247.627 150.229 247.988ZM150.712 242.999C150.712 243.41 150.829 243.722 151.061 243.933C151.294 244.144 151.618 244.25 152.033 244.25C152.904 244.25 153.339 243.827 153.339 242.982C153.339 242.098 152.898 241.656 152.017 241.656C151.598 241.656 151.276 241.769 151.051 241.994C150.825 242.22 150.712 242.555 150.712 242.999Z" fill="white"/>
<path d="M0 9C0 4.02944 4.02944 0 9 0H204C208.971 0 213 4.02944 213 9V25H0V9Z" fill="#5B9C60"/>
<rect y="129" width="213" height="92" fill="white"/>
<path d="M107.403 135L98 128H116L107.403 135Z" fill="#63A968"/>
<path d="M107.313 228L100 221H114L107.313 228Z" fill="white"/>
<path d="M41.2344 87H36.6445V68.5625C36.6445 66.362 36.6966 64.6172 36.8008 63.3281C36.5013 63.6406 36.1302 63.9857 35.6875 64.3633C35.2578 64.7409 33.7995 65.9388 31.3125 67.957L29.0078 65.0469L37.4062 58.4453H41.2344V87ZM70.7648 87H51.4094V83.5234L58.7727 76.1211C60.9471 73.8945 62.3859 72.319 63.0891 71.3945C63.8052 70.457 64.326 69.5781 64.6516 68.7578C64.9771 67.9375 65.1398 67.0586 65.1398 66.1211C65.1398 64.832 64.7492 63.8164 63.968 63.0742C63.1997 62.332 62.132 61.9609 60.7648 61.9609C59.6711 61.9609 58.6099 62.1628 57.5812 62.5664C56.5656 62.9701 55.3872 63.6992 54.0461 64.7539L51.5656 61.7266C53.1542 60.3854 54.6971 59.4349 56.1945 58.875C57.6919 58.3151 59.287 58.0352 60.9797 58.0352C63.6359 58.0352 65.7648 58.7318 67.3664 60.125C68.968 61.5052 69.7687 63.3672 69.7687 65.7109C69.7687 67 69.5344 68.224 69.0656 69.3828C68.6099 70.5417 67.9003 71.7396 66.9367 72.9766C65.9862 74.2005 64.3977 75.8607 62.1711 77.957L57.2102 82.7617V82.957H70.7648V87Z" fill="white"/>
<path d="M30.6982 105.088C30.001 105.088 29.4604 104.874 29.0767 104.446C28.6958 104.016 28.5054 103.408 28.5054 102.623C28.5054 101.817 28.6987 101.194 29.0854 100.755C29.4751 100.315 30.0288 100.096 30.7466 100.096C30.978 100.096 31.2095 100.121 31.4409 100.17C31.6724 100.22 31.854 100.279 31.9858 100.346L31.7617 100.966C31.6006 100.901 31.4248 100.849 31.2344 100.808C31.0439 100.764 30.8755 100.742 30.729 100.742C29.7505 100.742 29.2612 101.366 29.2612 102.614C29.2612 103.206 29.3799 103.66 29.6172 103.976C29.8574 104.292 30.2119 104.451 30.6807 104.451C31.082 104.451 31.4937 104.364 31.9155 104.191V104.837C31.5933 105.004 31.1875 105.088 30.6982 105.088ZM36.2044 105L36.0594 104.314H36.0242C35.784 104.616 35.5438 104.821 35.3035 104.93C35.0662 105.035 34.7689 105.088 34.4114 105.088C33.9339 105.088 33.5589 104.965 33.2864 104.719C33.0169 104.473 32.8821 104.123 32.8821 103.668C32.8821 102.696 33.66 102.186 35.2156 102.139L36.033 102.113V101.814C36.033 101.436 35.951 101.158 35.7869 100.979C35.6258 100.797 35.3665 100.707 35.0091 100.707C34.6077 100.707 34.1536 100.83 33.6468 101.076L33.4227 100.518C33.66 100.389 33.9193 100.288 34.2005 100.214C34.4847 100.141 34.7689 100.104 35.053 100.104C35.6273 100.104 36.0521 100.232 36.3275 100.487C36.6058 100.742 36.7449 101.15 36.7449 101.713V105H36.2044ZM34.5565 104.486C35.0106 104.486 35.3665 104.361 35.6243 104.112C35.8851 103.863 36.0154 103.515 36.0154 103.066V102.631L35.286 102.662C34.7059 102.683 34.2869 102.773 34.0291 102.935C33.7742 103.093 33.6468 103.34 33.6468 103.677C33.6468 103.941 33.7259 104.142 33.8841 104.279C34.0452 104.417 34.2694 104.486 34.5565 104.486ZM40.6295 100.096C40.8434 100.096 41.0353 100.113 41.2052 100.148L41.1041 100.825C40.9049 100.781 40.7291 100.759 40.5768 100.759C40.1871 100.759 39.8532 100.917 39.5748 101.234C39.2995 101.55 39.1618 101.944 39.1618 102.416V105H38.4323V100.184H39.0343L39.1178 101.076H39.153C39.3317 100.762 39.547 100.521 39.799 100.351C40.0509 100.181 40.3278 100.096 40.6295 100.096ZM45.5644 104.354H45.5249C45.1879 104.843 44.684 105.088 44.0131 105.088C43.3833 105.088 42.8925 104.873 42.541 104.442C42.1923 104.011 42.018 103.399 42.018 102.605C42.018 101.811 42.1938 101.194 42.5454 100.755C42.8969 100.315 43.3862 100.096 44.0131 100.096C44.6665 100.096 45.1674 100.333 45.5161 100.808H45.5732L45.5424 100.46L45.5249 100.122V98.1621H46.2544V105H45.6611L45.5644 104.354ZM44.1054 104.477C44.6035 104.477 44.9638 104.342 45.1865 104.073C45.4121 103.8 45.5249 103.362 45.5249 102.759V102.605C45.5249 101.922 45.4106 101.436 45.1821 101.146C44.9565 100.853 44.5947 100.707 44.0966 100.707C43.6689 100.707 43.3408 100.874 43.1123 101.208C42.8867 101.539 42.7739 102.007 42.7739 102.614C42.7739 103.229 42.8867 103.693 43.1123 104.007C43.3379 104.32 43.6689 104.477 44.1054 104.477ZM51.0926 103.686C51.0926 104.134 50.9256 104.48 50.5916 104.723C50.2576 104.966 49.7888 105.088 49.1853 105.088C48.5467 105.088 48.0486 104.987 47.6912 104.785V104.108C47.9226 104.225 48.1702 104.317 48.4339 104.385C48.7005 104.452 48.9568 104.486 49.2029 104.486C49.5838 104.486 49.8767 104.426 50.0818 104.306C50.2869 104.183 50.3894 103.997 50.3894 103.748C50.3894 103.56 50.3074 103.4 50.1433 103.269C49.9822 103.134 49.6658 102.976 49.1941 102.794C48.7459 102.627 48.4265 102.482 48.2361 102.359C48.0486 102.233 47.908 102.091 47.8142 101.933C47.7234 101.774 47.678 101.585 47.678 101.366C47.678 100.973 47.8377 100.664 48.157 100.438C48.4763 100.21 48.9143 100.096 49.471 100.096C49.9895 100.096 50.4964 100.201 50.9915 100.412L50.7322 101.005C50.2488 100.806 49.8108 100.707 49.4182 100.707C49.0725 100.707 48.8118 100.761 48.636 100.869C48.4602 100.978 48.3723 101.127 48.3723 101.317C48.3723 101.446 48.4046 101.556 48.469 101.647C48.5364 101.738 48.6433 101.824 48.7898 101.906C48.9363 101.988 49.2176 102.107 49.6336 102.262C50.2049 102.47 50.5901 102.68 50.7893 102.891C50.9915 103.102 51.0926 103.367 51.0926 103.686ZM54.9024 98.5752L52.5074 105H51.7779L54.1729 98.5752H54.9024ZM55.1835 100.184H55.9657L57.0204 102.93C57.2519 103.557 57.3954 104.01 57.4511 104.288H57.4862C57.5243 104.139 57.6034 103.884 57.7236 103.523C57.8466 103.16 58.245 102.047 58.9189 100.184H59.7011L57.6313 105.668C57.4262 106.21 57.186 106.594 56.9106 106.819C56.6381 107.048 56.3027 107.162 55.9042 107.162C55.6816 107.162 55.4618 107.137 55.245 107.087V106.503C55.4062 106.538 55.5863 106.556 55.7856 106.556C56.2865 106.556 56.644 106.274 56.8578 105.712L57.1259 105.026L55.1835 100.184ZM62.698 105.088C61.9861 105.088 61.4236 104.871 61.0105 104.438C60.6003 104.004 60.3953 103.402 60.3953 102.631C60.3953 101.855 60.5857 101.238 60.9665 100.781C61.3503 100.324 61.8645 100.096 62.509 100.096C63.1125 100.096 63.5901 100.295 63.9416 100.693C64.2932 101.089 64.469 101.612 64.469 102.262V102.724H61.1511C61.1658 103.289 61.3079 103.718 61.5774 104.011C61.8498 104.304 62.2322 104.451 62.7244 104.451C63.2429 104.451 63.7556 104.342 64.2624 104.125V104.776C64.0046 104.887 63.76 104.966 63.5286 105.013C63.3 105.063 63.0232 105.088 62.698 105.088ZM62.5002 100.707C62.1135 100.707 61.8044 100.833 61.573 101.084C61.3445 101.336 61.2097 101.685 61.1687 102.13H63.6868C63.6868 101.67 63.5842 101.319 63.3791 101.076C63.1741 100.83 62.8811 100.707 62.5002 100.707ZM68.8589 105L68.7139 104.314H68.6788C68.4385 104.616 68.1983 104.821 67.9581 104.93C67.7208 105.035 67.4234 105.088 67.066 105.088C66.5884 105.088 66.2134 104.965 65.941 104.719C65.6714 104.473 65.5367 104.123 65.5367 103.668C65.5367 102.696 66.3145 102.186 67.8702 102.139L68.6876 102.113V101.814C68.6876 101.436 68.6055 101.158 68.4415 100.979C68.2803 100.797 68.0211 100.707 67.6636 100.707C67.2623 100.707 66.8082 100.83 66.3013 101.076L66.0772 100.518C66.3145 100.389 66.5738 100.288 66.855 100.214C67.1392 100.141 67.4234 100.104 67.7076 100.104C68.2818 100.104 68.7066 100.232 68.982 100.487C69.2603 100.742 69.3995 101.15 69.3995 101.713V105H68.8589ZM67.211 104.486C67.6651 104.486 68.0211 104.361 68.2789 104.112C68.5396 103.863 68.67 103.515 68.67 103.066V102.631L67.9405 102.662C67.3604 102.683 66.9415 102.773 66.6837 102.935C66.4288 103.093 66.3013 103.34 66.3013 103.677C66.3013 103.941 66.3804 104.142 66.5386 104.279C66.6998 104.417 66.9239 104.486 67.211 104.486ZM73.2841 100.096C73.4979 100.096 73.6898 100.113 73.8597 100.148L73.7587 100.825C73.5595 100.781 73.3837 100.759 73.2313 100.759C72.8417 100.759 72.5077 100.917 72.2294 101.234C71.954 101.55 71.8163 101.944 71.8163 102.416V105H71.0868V100.184H71.6888L71.7723 101.076H71.8075C71.9862 100.762 72.2015 100.521 72.4535 100.351C72.7054 100.181 72.9823 100.096 73.2841 100.096Z" fill="white"/>
<path d="M109.026 79.0513C109.026 80.0109 108.785 80.7611 108.301 81.3018C107.818 81.8389 107.15 82.1074 106.298 82.1074C105.771 82.1074 105.304 81.9839 104.896 81.7368C104.488 81.4897 104.173 81.1353 103.951 80.6733C103.729 80.2114 103.618 79.6707 103.618 79.0513C103.618 78.0916 103.858 77.3451 104.337 76.8115C104.817 76.2744 105.483 76.0059 106.335 76.0059C107.159 76.0059 107.812 76.2798 108.296 76.8276C108.783 77.3755 109.026 78.1167 109.026 79.0513ZM104.542 79.0513C104.542 79.8032 104.692 80.3761 104.993 80.77C105.293 81.1639 105.736 81.3608 106.319 81.3608C106.903 81.3608 107.345 81.1657 107.646 80.7754C107.95 80.3815 108.103 79.8068 108.103 79.0513C108.103 78.3029 107.95 77.7354 107.646 77.3486C107.345 76.9583 106.899 76.7632 106.309 76.7632C105.725 76.7632 105.285 76.9548 104.987 77.3379C104.69 77.721 104.542 78.2922 104.542 79.0513ZM113.5 76.0059C113.762 76.0059 113.996 76.0273 114.204 76.0703L114.08 76.8975C113.837 76.8438 113.622 76.8169 113.436 76.8169C112.96 76.8169 112.551 77.0103 112.211 77.397C111.875 77.7837 111.706 78.2653 111.706 78.8418V82H110.815V76.1133H111.551L111.653 77.2036H111.696C111.914 76.8205 112.177 76.5251 112.485 76.3174C112.793 76.1097 113.131 76.0059 113.5 76.0059Z" fill="white"/>
<path d="M98.9126 204V200.867C98.9126 200.483 98.8306 200.196 98.6665 200.005C98.5024 199.812 98.2476 199.715 97.9019 199.715C97.4478 199.715 97.1123 199.846 96.8955 200.106C96.6787 200.367 96.5703 200.769 96.5703 201.311V204H95.8408V200.867C95.8408 200.483 95.7588 200.196 95.5947 200.005C95.4307 199.812 95.1743 199.715 94.8257 199.715C94.3687 199.715 94.0332 199.853 93.8193 200.128C93.6084 200.401 93.5029 200.849 93.5029 201.473V204H92.7734V199.184H93.3667L93.4854 199.843H93.5205C93.6582 199.608 93.8516 199.425 94.1006 199.293C94.3525 199.162 94.6338 199.096 94.9443 199.096C95.6973 199.096 96.1895 199.368 96.4209 199.913H96.4561C96.5996 199.661 96.8076 199.462 97.0801 199.315C97.3525 199.169 97.6631 199.096 98.0117 199.096C98.5566 199.096 98.9639 199.236 99.2334 199.518C99.5059 199.796 99.6421 200.243 99.6421 200.858V204H98.9126ZM105.487 201.587C105.487 202.373 105.289 202.986 104.893 203.429C104.498 203.868 103.951 204.088 103.254 204.088C102.824 204.088 102.441 203.987 102.107 203.785C101.773 203.583 101.515 203.292 101.334 202.915C101.152 202.537 101.061 202.094 101.061 201.587C101.061 200.802 101.258 200.191 101.65 199.755C102.043 199.315 102.588 199.096 103.285 199.096C103.959 199.096 104.493 199.32 104.889 199.768C105.287 200.216 105.487 200.823 105.487 201.587ZM101.817 201.587C101.817 202.203 101.94 202.671 102.186 202.994C102.432 203.316 102.794 203.477 103.272 203.477C103.749 203.477 104.111 203.317 104.357 202.998C104.606 202.676 104.731 202.206 104.731 201.587C104.731 200.975 104.606 200.511 104.357 200.194C104.111 199.875 103.746 199.715 103.263 199.715C102.785 199.715 102.425 199.872 102.182 200.186C101.939 200.499 101.817 200.966 101.817 201.587ZM110.246 204V200.884C110.246 200.492 110.156 200.199 109.978 200.005C109.799 199.812 109.519 199.715 109.138 199.715C108.634 199.715 108.265 199.852 108.031 200.124C107.797 200.396 107.679 200.846 107.679 201.473V204H106.95V199.184H107.543L107.662 199.843H107.697C107.846 199.605 108.056 199.422 108.325 199.293C108.595 199.162 108.895 199.096 109.226 199.096C109.806 199.096 110.243 199.236 110.536 199.518C110.829 199.796 110.975 200.243 110.975 200.858V204H110.246ZM114.214 203.486C114.343 203.486 114.467 203.477 114.587 203.459C114.707 203.439 114.803 203.418 114.873 203.398V203.956C114.794 203.994 114.677 204.025 114.521 204.048C114.369 204.075 114.231 204.088 114.108 204.088C113.177 204.088 112.711 203.597 112.711 202.616V199.75H112.021V199.399L112.711 199.096L113.019 198.067H113.44V199.184H114.838V199.75H113.44V202.585C113.44 202.875 113.509 203.098 113.647 203.253C113.785 203.408 113.974 203.486 114.214 203.486ZM119.316 204V200.884C119.316 200.492 119.226 200.199 119.048 200.005C118.869 199.812 118.589 199.715 118.208 199.715C117.701 199.715 117.331 199.853 117.096 200.128C116.865 200.404 116.749 200.855 116.749 201.482V204H116.02V197.162H116.749V199.232C116.749 199.481 116.738 199.688 116.714 199.852H116.758C116.902 199.62 117.105 199.438 117.369 199.307C117.636 199.172 117.939 199.104 118.279 199.104C118.867 199.104 119.308 199.245 119.601 199.526C119.897 199.805 120.045 200.249 120.045 200.858V204H119.316Z" fill="#5B9C60"/>
<path d="M16.7852 35.2891H18.3984C19.1562 35.2891 19.7044 35.4023 20.043 35.6289C20.3815 35.8555 20.5508 36.2135 20.5508 36.7031C20.5508 37.0417 20.4557 37.3216 20.2656 37.543C20.0781 37.7617 19.8034 37.9036 19.4414 37.9688V38.0078C20.3086 38.1562 20.7422 38.612 20.7422 39.375C20.7422 39.8854 20.569 40.2839 20.2227 40.5703C19.8789 40.8568 19.3971 41 18.7773 41H16.7852V35.2891ZM17.4492 37.7344H18.543C19.0117 37.7344 19.349 37.6615 19.5547 37.5156C19.7604 37.3672 19.8633 37.1185 19.8633 36.7695C19.8633 36.4492 19.7487 36.2188 19.5195 36.0781C19.2904 35.9349 18.9258 35.8633 18.4258 35.8633H17.4492V37.7344ZM17.4492 38.2969V40.4336H18.6406C19.1016 40.4336 19.4479 40.3451 19.6797 40.168C19.9141 39.9883 20.0312 39.7083 20.0312 39.3281C20.0312 38.974 19.9115 38.7135 19.6719 38.5469C19.4349 38.3802 19.0729 38.2969 18.5859 38.2969H17.4492ZM24.5078 41L24.3789 40.3906H24.3477C24.1341 40.6589 23.9206 40.8411 23.707 40.9375C23.4961 41.0312 23.2318 41.0781 22.9141 41.0781C22.4896 41.0781 22.1562 40.9688 21.9141 40.75C21.6745 40.5312 21.5547 40.2201 21.5547 39.8164C21.5547 38.9518 22.2461 38.4987 23.6289 38.457L24.3555 38.4336V38.168C24.3555 37.832 24.2826 37.5846 24.1367 37.4258C23.9935 37.2643 23.763 37.1836 23.4453 37.1836C23.0885 37.1836 22.6849 37.293 22.2344 37.5117L22.0352 37.0156C22.2461 36.901 22.4766 36.8112 22.7266 36.7461C22.9792 36.681 23.2318 36.6484 23.4844 36.6484C23.9948 36.6484 24.3724 36.7617 24.6172 36.9883C24.8646 37.2148 24.9883 37.5781 24.9883 38.0781V41H24.5078ZM23.043 40.543C23.4466 40.543 23.763 40.4323 23.9922 40.2109C24.224 39.9896 24.3398 39.6797 24.3398 39.2812V38.8945L23.6914 38.9219C23.1758 38.9401 22.8034 39.0208 22.5742 39.1641C22.3477 39.3047 22.2344 39.5247 22.2344 39.8242C22.2344 40.0586 22.3047 40.237 22.4453 40.3594C22.5885 40.4818 22.7878 40.543 23.043 40.543ZM29.0898 39.832C29.0898 40.2305 28.9414 40.5378 28.6445 40.7539C28.3477 40.9701 27.931 41.0781 27.3945 41.0781C26.8268 41.0781 26.3841 40.9883 26.0664 40.8086V40.207C26.2721 40.3112 26.4922 40.3932 26.7266 40.4531C26.9635 40.513 27.1914 40.543 27.4102 40.543C27.7487 40.543 28.0091 40.4896 28.1914 40.3828C28.3737 40.2734 28.4648 40.1081 28.4648 39.8867C28.4648 39.7201 28.3919 39.5781 28.2461 39.4609C28.1029 39.3411 27.8216 39.2005 27.4023 39.0391C27.0039 38.8906 26.7201 38.7617 26.5508 38.6523C26.3841 38.5404 26.2591 38.4141 26.1758 38.2734C26.0951 38.1328 26.0547 37.9648 26.0547 37.7695C26.0547 37.4206 26.1966 37.1458 26.4805 36.9453C26.7643 36.7422 27.1536 36.6406 27.6484 36.6406C28.1094 36.6406 28.5599 36.7344 29 36.9219L28.7695 37.4492C28.3398 37.2721 27.9505 37.1836 27.6016 37.1836C27.2943 37.1836 27.0625 37.2318 26.9062 37.3281C26.75 37.4245 26.6719 37.5573 26.6719 37.7266C26.6719 37.8411 26.7005 37.9388 26.7578 38.0195C26.8177 38.1003 26.9128 38.1771 27.043 38.25C27.1732 38.3229 27.4232 38.4284 27.793 38.5664C28.3008 38.7513 28.6432 38.9375 28.8203 39.125C29 39.3125 29.0898 39.5482 29.0898 39.832ZM30.7969 41H30.1484V36.7188H30.7969V41ZM30.0938 35.5586C30.0938 35.4102 30.1302 35.3021 30.2031 35.2344C30.276 35.1641 30.3672 35.1289 30.4766 35.1289C30.5807 35.1289 30.6706 35.1641 30.7461 35.2344C30.8216 35.3047 30.8594 35.4128 30.8594 35.5586C30.8594 35.7044 30.8216 35.8138 30.7461 35.8867C30.6706 35.957 30.5807 35.9922 30.4766 35.9922C30.3672 35.9922 30.276 35.957 30.2031 35.8867C30.1302 35.8138 30.0938 35.7044 30.0938 35.5586ZM33.8828 41.0781C33.263 41.0781 32.7826 40.888 32.4414 40.5078C32.1029 40.125 31.9336 39.5846 31.9336 38.8867C31.9336 38.1706 32.1055 37.6172 32.4492 37.2266C32.7956 36.8359 33.2878 36.6406 33.9258 36.6406C34.1315 36.6406 34.3372 36.6628 34.543 36.707C34.7487 36.7513 34.9102 36.8034 35.0273 36.8633L34.8281 37.4141C34.6849 37.3568 34.5286 37.3099 34.3594 37.2734C34.1901 37.2344 34.0404 37.2148 33.9102 37.2148C33.0404 37.2148 32.6055 37.7695 32.6055 38.8789C32.6055 39.4049 32.7109 39.8086 32.9219 40.0898C33.1354 40.3711 33.4505 40.5117 33.8672 40.5117C34.224 40.5117 34.5898 40.4349 34.9648 40.2812V40.8555C34.6784 41.0039 34.3177 41.0781 33.8828 41.0781Z" fill="white"/>
<path d="M150.836 74.832C150.836 63.6602 155.387 58.0742 164.488 58.0742C165.921 58.0742 167.132 58.1849 168.121 58.4062V62.2344C167.132 61.9479 165.986 61.8047 164.684 61.8047C161.624 61.8047 159.326 62.625 157.789 64.2656C156.253 65.9062 155.419 68.5365 155.289 72.1562H155.523C156.135 71.1016 156.995 70.2878 158.102 69.7148C159.208 69.1289 160.51 68.8359 162.008 68.8359C164.599 68.8359 166.617 69.6302 168.062 71.2188C169.508 72.8073 170.23 74.9622 170.23 77.6836C170.23 80.6784 169.391 83.0482 167.711 84.793C166.044 86.5247 163.766 87.3906 160.875 87.3906C158.831 87.3906 157.053 86.9023 155.543 85.9258C154.033 84.9362 152.867 83.5039 152.047 81.6289C151.24 79.7409 150.836 77.4753 150.836 74.832ZM160.797 83.6016C162.372 83.6016 163.583 83.0938 164.43 82.0781C165.289 81.0625 165.719 79.6107 165.719 77.7227C165.719 76.082 165.315 74.793 164.508 73.8555C163.714 72.918 162.516 72.4492 160.914 72.4492C159.924 72.4492 159.013 72.6641 158.18 73.0938C157.346 73.5104 156.689 74.0898 156.207 74.832C155.725 75.5612 155.484 76.3099 155.484 77.0781C155.484 78.9141 155.979 80.4635 156.969 81.7266C157.971 82.9766 159.247 83.6016 160.797 83.6016Z" fill="white"/>
<path d="M139.698 105.088C139.001 105.088 138.46 104.874 138.077 104.446C137.696 104.016 137.505 103.408 137.505 102.623C137.505 101.817 137.699 101.194 138.085 100.755C138.475 100.315 139.029 100.096 139.747 100.096C139.978 100.096 140.209 100.121 140.441 100.17C140.672 100.22 140.854 100.279 140.986 100.346L140.762 100.966C140.601 100.901 140.425 100.849 140.234 100.808C140.044 100.764 139.875 100.742 139.729 100.742C138.75 100.742 138.261 101.366 138.261 102.614C138.261 103.206 138.38 103.66 138.617 103.976C138.857 104.292 139.212 104.451 139.681 104.451C140.082 104.451 140.494 104.364 140.916 104.191V104.837C140.593 105.004 140.188 105.088 139.698 105.088ZM145.204 105L145.059 104.314H145.024C144.784 104.616 144.544 104.821 144.304 104.93C144.066 105.035 143.769 105.088 143.411 105.088C142.934 105.088 142.559 104.965 142.286 104.719C142.017 104.473 141.882 104.123 141.882 103.668C141.882 102.696 142.66 102.186 144.216 102.139L145.033 102.113V101.814C145.033 101.436 144.951 101.158 144.787 100.979C144.626 100.797 144.367 100.707 144.009 100.707C143.608 100.707 143.154 100.83 142.647 101.076L142.423 100.518C142.66 100.389 142.919 100.288 143.201 100.214C143.485 100.141 143.769 100.104 144.053 100.104C144.627 100.104 145.052 100.232 145.327 100.487C145.606 100.742 145.745 101.15 145.745 101.713V105H145.204ZM143.556 104.486C144.011 104.486 144.367 104.361 144.624 104.112C144.885 103.863 145.015 103.515 145.015 103.066V102.631L144.286 102.662C143.706 102.683 143.287 102.773 143.029 102.935C142.774 103.093 142.647 103.34 142.647 103.677C142.647 103.941 142.726 104.142 142.884 104.279C143.045 104.417 143.269 104.486 143.556 104.486ZM149.63 100.096C149.843 100.096 150.035 100.113 150.205 100.148L150.104 100.825C149.905 100.781 149.729 100.759 149.577 100.759C149.187 100.759 148.853 100.917 148.575 101.234C148.299 101.55 148.162 101.944 148.162 102.416V105H147.432V100.184H148.034L148.118 101.076H148.153C148.332 100.762 148.547 100.521 148.799 100.351C149.051 100.181 149.328 100.096 149.63 100.096ZM154.564 104.354H154.525C154.188 104.843 153.684 105.088 153.013 105.088C152.383 105.088 151.893 104.873 151.541 104.442C151.192 104.011 151.018 103.399 151.018 102.605C151.018 101.811 151.194 101.194 151.545 100.755C151.897 100.315 152.386 100.096 153.013 100.096C153.666 100.096 154.167 100.333 154.516 100.808H154.573L154.542 100.46L154.525 100.122V98.1621H155.254V105H154.661L154.564 104.354ZM153.105 104.477C153.603 104.477 153.964 104.342 154.186 104.073C154.412 103.8 154.525 103.362 154.525 102.759V102.605C154.525 101.922 154.411 101.436 154.182 101.146C153.957 100.853 153.595 100.707 153.097 100.707C152.669 100.707 152.341 100.874 152.112 101.208C151.887 101.539 151.774 102.007 151.774 102.614C151.774 103.229 151.887 103.693 152.112 104.007C152.338 104.32 152.669 104.477 153.105 104.477ZM160.093 103.686C160.093 104.134 159.926 104.48 159.592 104.723C159.258 104.966 158.789 105.088 158.185 105.088C157.547 105.088 157.049 104.987 156.691 104.785V104.108C156.923 104.225 157.17 104.317 157.434 104.385C157.7 104.452 157.957 104.486 158.203 104.486C158.584 104.486 158.877 104.426 159.082 104.306C159.287 104.183 159.389 103.997 159.389 103.748C159.389 103.56 159.307 103.4 159.143 103.269C158.982 103.134 158.666 102.976 158.194 102.794C157.746 102.627 157.427 102.482 157.236 102.359C157.049 102.233 156.908 102.091 156.814 101.933C156.723 101.774 156.678 101.585 156.678 101.366C156.678 100.973 156.838 100.664 157.157 100.438C157.476 100.21 157.914 100.096 158.471 100.096C158.99 100.096 159.496 100.201 159.991 100.412L159.732 101.005C159.249 100.806 158.811 100.707 158.418 100.707C158.073 100.707 157.812 100.761 157.636 100.869C157.46 100.978 157.372 101.127 157.372 101.317C157.372 101.446 157.405 101.556 157.469 101.647C157.536 101.738 157.643 101.824 157.79 101.906C157.936 101.988 158.218 102.107 158.634 102.262C159.205 102.47 159.59 102.68 159.789 102.891C159.991 103.102 160.093 103.367 160.093 103.686ZM163.902 98.5752L161.507 105H160.778L163.173 98.5752H163.902ZM164.184 100.184H164.966L166.02 102.93C166.252 103.557 166.395 104.01 166.451 104.288H166.486C166.524 104.139 166.603 103.884 166.724 103.523C166.847 103.16 167.245 102.047 167.919 100.184H168.701L166.631 105.668C166.426 106.21 166.186 106.594 165.911 106.819C165.638 107.048 165.303 107.162 164.904 107.162C164.682 107.162 164.462 107.137 164.245 107.087V106.503C164.406 106.538 164.586 106.556 164.786 106.556C165.287 106.556 165.644 106.274 165.858 105.712L166.126 105.026L164.184 100.184ZM171.698 105.088C170.986 105.088 170.424 104.871 170.01 104.438C169.6 104.004 169.395 103.402 169.395 102.631C169.395 101.855 169.586 101.238 169.967 100.781C170.35 100.324 170.864 100.096 171.509 100.096C172.113 100.096 172.59 100.295 172.942 100.693C173.293 101.089 173.469 101.612 173.469 102.262V102.724H170.151C170.166 103.289 170.308 103.718 170.577 104.011C170.85 104.304 171.232 104.451 171.724 104.451C172.243 104.451 172.756 104.342 173.262 104.125V104.776C173.005 104.887 172.76 104.966 172.529 105.013C172.3 105.063 172.023 105.088 171.698 105.088ZM171.5 100.707C171.114 100.707 170.804 100.833 170.573 101.084C170.344 101.336 170.21 101.685 170.169 102.13H172.687C172.687 101.67 172.584 101.319 172.379 101.076C172.174 100.83 171.881 100.707 171.5 100.707ZM177.859 105L177.714 104.314H177.679C177.439 104.616 177.198 104.821 176.958 104.93C176.721 105.035 176.423 105.088 176.066 105.088C175.588 105.088 175.213 104.965 174.941 104.719C174.671 104.473 174.537 104.123 174.537 103.668C174.537 102.696 175.315 102.186 176.87 102.139L177.688 102.113V101.814C177.688 101.436 177.606 101.158 177.441 100.979C177.28 100.797 177.021 100.707 176.664 100.707C176.262 100.707 175.808 100.83 175.301 101.076L175.077 100.518C175.315 100.389 175.574 100.288 175.855 100.214C176.139 100.141 176.423 100.104 176.708 100.104C177.282 100.104 177.707 100.232 177.982 100.487C178.26 100.742 178.399 101.15 178.399 101.713V105H177.859ZM176.211 104.486C176.665 104.486 177.021 104.361 177.279 104.112C177.54 103.863 177.67 103.515 177.67 103.066V102.631L176.94 102.662C176.36 102.683 175.941 102.773 175.684 102.935C175.429 103.093 175.301 103.34 175.301 103.677C175.301 103.941 175.38 104.142 175.539 104.279C175.7 104.417 175.924 104.486 176.211 104.486ZM182.284 100.096C182.498 100.096 182.69 100.113 182.86 100.148L182.759 100.825C182.559 100.781 182.384 100.759 182.231 100.759C181.842 100.759 181.508 100.917 181.229 101.234C180.954 101.55 180.816 101.944 180.816 102.416V105H180.087V100.184H180.689L180.772 101.076H180.807C180.986 100.762 181.202 100.521 181.453 100.351C181.705 100.181 181.982 100.096 182.284 100.096Z" fill="white"/>
<path d="M127.406 36.9531C127.406 37.5312 127.208 37.9766 126.812 38.2891C126.419 38.599 125.855 38.7539 125.121 38.7539H124.449V41H123.785V35.2891H125.266C126.693 35.2891 127.406 35.8438 127.406 36.9531ZM124.449 38.1836H125.047C125.635 38.1836 126.061 38.0885 126.324 37.8984C126.587 37.7083 126.719 37.4036 126.719 36.9844C126.719 36.6068 126.595 36.3255 126.348 36.1406C126.1 35.9557 125.715 35.8633 125.191 35.8633H124.449V38.1836ZM130.461 36.6406C130.651 36.6406 130.822 36.6562 130.973 36.6875L130.883 37.2891C130.706 37.25 130.549 37.2305 130.414 37.2305C130.068 37.2305 129.771 37.3711 129.523 37.6523C129.279 37.9336 129.156 38.2839 129.156 38.7031V41H128.508V36.7188H129.043L129.117 37.5117H129.148C129.307 37.2331 129.499 37.0182 129.723 36.8672C129.947 36.7161 130.193 36.6406 130.461 36.6406ZM133.582 41.0781C132.949 41.0781 132.449 40.8854 132.082 40.5C131.717 40.1146 131.535 39.5794 131.535 38.8945C131.535 38.2044 131.704 37.6562 132.043 37.25C132.384 36.8438 132.841 36.6406 133.414 36.6406C133.951 36.6406 134.375 36.8177 134.688 37.1719C135 37.5234 135.156 37.9883 135.156 38.5664V38.9766H132.207C132.22 39.4792 132.346 39.8607 132.586 40.1211C132.828 40.3815 133.168 40.5117 133.605 40.5117C134.066 40.5117 134.522 40.4154 134.973 40.2227V40.8008C134.743 40.8997 134.526 40.9701 134.32 41.0117C134.117 41.056 133.871 41.0781 133.582 41.0781ZM133.406 37.1836C133.062 37.1836 132.788 37.2956 132.582 37.5195C132.379 37.7435 132.259 38.0534 132.223 38.4492H134.461C134.461 38.0404 134.37 37.7279 134.188 37.5117C134.005 37.293 133.745 37.1836 133.406 37.1836ZM141.723 41V38.2148C141.723 37.8737 141.65 37.6185 141.504 37.4492C141.358 37.2773 141.132 37.1914 140.824 37.1914C140.421 37.1914 140.122 37.3073 139.93 37.5391C139.737 37.7708 139.641 38.1276 139.641 38.6094V41H138.992V38.2148C138.992 37.8737 138.919 37.6185 138.773 37.4492C138.628 37.2773 138.4 37.1914 138.09 37.1914C137.684 37.1914 137.385 37.3138 137.195 37.5586C137.008 37.8008 136.914 38.1992 136.914 38.7539V41H136.266V36.7188H136.793L136.898 37.3047H136.93C137.052 37.0964 137.224 36.9336 137.445 36.8164C137.669 36.6992 137.919 36.6406 138.195 36.6406C138.865 36.6406 139.302 36.8828 139.508 37.3672H139.539C139.667 37.1432 139.852 36.9661 140.094 36.8359C140.336 36.7057 140.612 36.6406 140.922 36.6406C141.406 36.6406 141.768 36.7656 142.008 37.0156C142.25 37.263 142.371 37.6602 142.371 38.207V41H141.723ZM144.359 41H143.711V36.7188H144.359V41ZM143.656 35.5586C143.656 35.4102 143.693 35.3021 143.766 35.2344C143.839 35.1641 143.93 35.1289 144.039 35.1289C144.143 35.1289 144.233 35.1641 144.309 35.2344C144.384 35.3047 144.422 35.4128 144.422 35.5586C144.422 35.7044 144.384 35.8138 144.309 35.8867C144.233 35.957 144.143 35.9922 144.039 35.9922C143.93 35.9922 143.839 35.957 143.766 35.8867C143.693 35.8138 143.656 35.7044 143.656 35.5586ZM146.344 36.7188V39.4961C146.344 39.8451 146.423 40.1055 146.582 40.2773C146.741 40.4492 146.99 40.5352 147.328 40.5352C147.776 40.5352 148.103 40.4128 148.309 40.168C148.517 39.9232 148.621 39.5234 148.621 38.9688V36.7188H149.27V41H148.734L148.641 40.4258H148.605C148.473 40.6367 148.288 40.7982 148.051 40.9102C147.816 41.0221 147.548 41.0781 147.246 41.0781C146.725 41.0781 146.335 40.9544 146.074 40.707C145.816 40.4596 145.688 40.0638 145.688 39.5195V36.7188H146.344ZM156.105 41V38.2148C156.105 37.8737 156.033 37.6185 155.887 37.4492C155.741 37.2773 155.514 37.1914 155.207 37.1914C154.803 37.1914 154.505 37.3073 154.312 37.5391C154.12 37.7708 154.023 38.1276 154.023 38.6094V41H153.375V38.2148C153.375 37.8737 153.302 37.6185 153.156 37.4492C153.01 37.2773 152.783 37.1914 152.473 37.1914C152.066 37.1914 151.768 37.3138 151.578 37.5586C151.391 37.8008 151.297 38.1992 151.297 38.7539V41H150.648V36.7188H151.176L151.281 37.3047H151.312C151.435 37.0964 151.607 36.9336 151.828 36.8164C152.052 36.6992 152.302 36.6406 152.578 36.6406C153.247 36.6406 153.685 36.8828 153.891 37.3672H153.922C154.049 37.1432 154.234 36.9661 154.477 36.8359C154.719 36.7057 154.995 36.6406 155.305 36.6406C155.789 36.6406 156.151 36.7656 156.391 37.0156C156.633 37.263 156.754 37.6602 156.754 38.207V41H156.105Z" fill="white"/>
<path d="M94.7422 173.352C94.7422 166.617 96.0469 161.586 98.6562 158.258C101.281 154.914 105.156 153.242 110.281 153.242C112.047 153.242 113.438 153.391 114.453 153.688V157.039C113.25 156.648 111.875 156.453 110.328 156.453C106.656 156.453 103.852 157.602 101.914 159.898C99.9766 162.18 98.9141 165.773 98.7266 170.68H99.0078C100.727 167.992 103.445 166.648 107.164 166.648C110.242 166.648 112.664 167.578 114.43 169.438C116.211 171.297 117.102 173.82 117.102 177.008C117.102 180.57 116.125 183.375 114.172 185.422C112.234 187.453 109.609 188.469 106.297 188.469C102.75 188.469 99.9375 187.141 97.8594 184.484C95.7812 181.812 94.7422 178.102 94.7422 173.352ZM106.25 185.164C108.469 185.164 110.188 184.469 111.406 183.078C112.641 181.672 113.258 179.648 113.258 177.008C113.258 174.742 112.688 172.961 111.547 171.664C110.406 170.367 108.703 169.719 106.438 169.719C105.031 169.719 103.742 170.008 102.57 170.586C101.398 171.164 100.461 171.961 99.7578 172.977C99.0703 173.992 98.7266 175.047 98.7266 176.141C98.7266 177.75 99.0391 179.25 99.6641 180.641C100.289 182.031 101.172 183.133 102.312 183.945C103.469 184.758 104.781 185.164 106.25 185.164Z" fill="#5B9C60"/>
<path d="M90.1055 160.054C90.1055 160.851 89.8066 161.51 89.209 162.031C88.6113 162.547 87.7764 162.872 86.7041 163.007V165.046H85.5703V163.086C84.9141 163.086 84.2783 163.036 83.6631 162.937C83.0479 162.831 82.5439 162.688 82.1514 162.506V161.135C82.6377 161.352 83.1973 161.53 83.8301 161.671C84.4688 161.806 85.0488 161.873 85.5703 161.873V158.006C84.3691 157.625 83.5254 157.183 83.0391 156.679C82.5586 156.175 82.3184 155.524 82.3184 154.728C82.3184 153.96 82.6143 153.33 83.2061 152.838C83.8037 152.346 84.5918 152.047 85.5703 151.941V150.342H86.7041V151.924C87.7822 151.953 88.8223 152.17 89.8242 152.574L89.3672 153.726C88.4941 153.38 87.6064 153.175 86.7041 153.11V156.925C87.624 157.218 88.3125 157.505 88.7695 157.786C89.2266 158.062 89.5635 158.381 89.7803 158.744C89.9971 159.102 90.1055 159.538 90.1055 160.054ZM88.6113 160.168C88.6113 159.746 88.4795 159.406 88.2158 159.148C87.958 158.885 87.4541 158.624 86.7041 158.366V161.785C87.9756 161.609 88.6113 161.07 88.6113 160.168ZM83.8037 154.71C83.8037 155.155 83.9355 155.513 84.1992 155.782C84.4629 156.052 84.9199 156.307 85.5703 156.547V153.146C84.9902 153.239 84.5508 153.424 84.252 153.699C83.9531 153.969 83.8037 154.306 83.8037 154.71Z" fill="#5B9C60"/>
<line x1="107.5" y1="95" x2="107.5" y2="122" stroke="white"/>
<line x1="107.5" y1="35" x2="107.5" y2="62" stroke="white"/>
</svg>
