<svg width="213" height="261" viewBox="0 0 213 261" fill="none" xmlns="http://www.w3.org/2000/svg">
<path fill-rule="evenodd" clip-rule="evenodd" d="M9 0C4.02944 0 0 4.02944 0 9V26V120V252C0 256.971 4.02943 261 8.99999 261H204C208.971 261 213 256.971 213 252V120V26V9C213 4.02944 208.971 0 204 0H9Z" fill="#BD4C5F"/>
<path d="M58.1738 246.248C58.1738 246.846 57.9512 247.307 57.5059 247.631C57.0605 247.955 56.4355 248.117 55.6309 248.117C54.7793 248.117 54.1152 247.982 53.6387 247.713V246.811C53.9473 246.967 54.2773 247.09 54.6289 247.18C54.9844 247.27 55.3262 247.314 55.6543 247.314C56.1621 247.314 56.5527 247.234 56.8262 247.074C57.0996 246.91 57.2363 246.662 57.2363 246.33C57.2363 246.08 57.127 245.867 56.9082 245.691C56.6934 245.512 56.2715 245.301 55.6426 245.059C55.0449 244.836 54.6191 244.643 54.3652 244.479C54.1152 244.311 53.9277 244.121 53.8027 243.91C53.6816 243.699 53.6211 243.447 53.6211 243.154C53.6211 242.631 53.834 242.219 54.2598 241.918C54.6855 241.613 55.2695 241.461 56.0117 241.461C56.7031 241.461 57.3789 241.602 58.0391 241.883L57.6934 242.674C57.0488 242.408 56.4648 242.275 55.9414 242.275C55.4805 242.275 55.1328 242.348 54.8984 242.492C54.6641 242.637 54.5469 242.836 54.5469 243.09C54.5469 243.262 54.5898 243.408 54.6758 243.529C54.7656 243.65 54.9082 243.766 55.1035 243.875C55.2988 243.984 55.6738 244.143 56.2285 244.35C56.9902 244.627 57.5039 244.906 57.7695 245.188C58.0391 245.469 58.1738 245.822 58.1738 246.248ZM62.7146 248.117C61.7654 248.117 61.0154 247.828 60.4646 247.25C59.9177 246.672 59.6443 245.869 59.6443 244.842C59.6443 243.807 59.8982 242.984 60.406 242.375C60.9177 241.766 61.6033 241.461 62.4627 241.461C63.2673 241.461 63.9041 241.727 64.3728 242.258C64.8416 242.785 65.0759 243.482 65.0759 244.35V244.965H60.6521C60.6716 245.719 60.8611 246.291 61.2205 246.682C61.5837 247.072 62.0935 247.268 62.7498 247.268C63.4412 247.268 64.1248 247.123 64.8005 246.834V247.701C64.4568 247.85 64.1306 247.955 63.822 248.018C63.5173 248.084 63.1482 248.117 62.7146 248.117ZM62.4509 242.275C61.9353 242.275 61.5232 242.443 61.2146 242.779C60.9099 243.115 60.7302 243.58 60.6755 244.174H64.033C64.033 243.561 63.8962 243.092 63.6228 242.768C63.3494 242.439 62.9587 242.275 62.4509 242.275ZM69.6929 248.117C68.7437 248.117 67.9937 247.828 67.4429 247.25C66.896 246.672 66.6226 245.869 66.6226 244.842C66.6226 243.807 66.8765 242.984 67.3843 242.375C67.896 241.766 68.5816 241.461 69.4409 241.461C70.2456 241.461 70.8823 241.727 71.3511 242.258C71.8198 242.785 72.0542 243.482 72.0542 244.35V244.965H67.6304C67.6499 245.719 67.8394 246.291 68.1987 246.682C68.562 247.072 69.0718 247.268 69.728 247.268C70.4195 247.268 71.103 247.123 71.7788 246.834V247.701C71.4351 247.85 71.1089 247.955 70.8003 248.018C70.4956 248.084 70.1265 248.117 69.6929 248.117ZM69.4292 242.275C68.9136 242.275 68.5015 242.443 68.1929 242.779C67.8882 243.115 67.7085 243.58 67.6538 244.174H71.0112C71.0112 243.561 70.8745 243.092 70.6011 242.768C70.3277 242.439 69.937 242.275 69.4292 242.275ZM81.2647 248L81.0713 247.086H81.0245C80.7041 247.488 80.3838 247.762 80.0635 247.906C79.7471 248.047 79.3506 248.117 78.8741 248.117C78.2373 248.117 77.7373 247.953 77.3741 247.625C77.0147 247.297 76.835 246.83 76.835 246.225C76.835 244.928 77.8721 244.248 79.9463 244.186L81.0362 244.15V243.752C81.0362 243.248 80.9268 242.877 80.708 242.639C80.4932 242.396 80.1475 242.275 79.6709 242.275C79.1358 242.275 78.5303 242.439 77.8545 242.768L77.5557 242.023C77.8721 241.852 78.2178 241.717 78.5928 241.619C78.9717 241.521 79.3506 241.473 79.7295 241.473C80.4952 241.473 81.0616 241.643 81.4287 241.982C81.7998 242.322 81.9854 242.867 81.9854 243.617V248H81.2647ZM79.0674 247.314C79.6729 247.314 80.1475 247.148 80.4912 246.816C80.8389 246.484 81.0127 246.02 81.0127 245.422V244.842L80.0401 244.883C79.2666 244.91 78.708 245.031 78.3643 245.246C78.0245 245.457 77.8545 245.787 77.8545 246.236C77.8545 246.588 77.96 246.855 78.1709 247.039C78.3858 247.223 78.6846 247.314 79.0674 247.314ZM88.6297 248V243.846C88.6297 243.322 88.5105 242.932 88.2723 242.674C88.034 242.416 87.6609 242.287 87.1531 242.287C86.4813 242.287 85.9891 242.469 85.6766 242.832C85.3641 243.195 85.2078 243.795 85.2078 244.631V248H84.2352V241.578H85.0262L85.1844 242.457H85.2313C85.4305 242.141 85.7098 241.896 86.0691 241.725C86.4285 241.549 86.8289 241.461 87.2703 241.461C88.0438 241.461 88.6258 241.648 89.0164 242.023C89.407 242.395 89.6023 242.99 89.6023 243.811V248H88.6297ZM96.2408 248V243.846C96.2408 243.322 96.1216 242.932 95.8834 242.674C95.6451 242.416 95.272 242.287 94.7642 242.287C94.0923 242.287 93.6002 242.469 93.2877 242.832C92.9752 243.195 92.8189 243.795 92.8189 244.631V248H91.8462V241.578H92.6373L92.7955 242.457H92.8423C93.0416 242.141 93.3209 241.896 93.6802 241.725C94.0396 241.549 94.44 241.461 94.8814 241.461C95.6548 241.461 96.2369 241.648 96.6275 242.023C97.0181 242.395 97.2134 242.99 97.2134 243.811V248H96.2408ZM100.371 241.578V245.744C100.371 246.268 100.491 246.658 100.729 246.916C100.967 247.174 101.34 247.303 101.848 247.303C102.52 247.303 103.01 247.119 103.319 246.752C103.631 246.385 103.787 245.785 103.787 244.953V241.578H104.76V248H103.957L103.817 247.139H103.764C103.565 247.455 103.287 247.697 102.932 247.865C102.58 248.033 102.178 248.117 101.725 248.117C100.944 248.117 100.358 247.932 99.9671 247.561C99.5804 247.189 99.387 246.596 99.387 245.779V241.578H100.371ZM111.018 248L110.824 247.086H110.777C110.457 247.488 110.137 247.762 109.816 247.906C109.5 248.047 109.104 248.117 108.627 248.117C107.99 248.117 107.49 247.953 107.127 247.625C106.768 247.297 106.588 246.83 106.588 246.225C106.588 244.928 107.625 244.248 109.699 244.186L110.789 244.15V243.752C110.789 243.248 110.68 242.877 110.461 242.639C110.246 242.396 109.9 242.275 109.424 242.275C108.889 242.275 108.283 242.439 107.607 242.768L107.309 242.023C107.625 241.852 107.971 241.717 108.346 241.619C108.725 241.521 109.104 241.473 109.482 241.473C110.248 241.473 110.815 241.643 111.182 241.982C111.553 242.322 111.738 242.867 111.738 243.617V248H111.018ZM108.82 247.314C109.426 247.314 109.9 247.148 110.244 246.816C110.592 246.484 110.766 246.02 110.766 245.422V244.842L109.793 244.883C109.02 244.91 108.461 245.031 108.117 245.246C107.777 245.457 107.607 245.787 107.607 246.236C107.607 246.588 107.713 246.855 107.924 247.039C108.139 247.223 108.438 247.314 108.82 247.314ZM114.961 248H113.988V238.883H114.961V248ZM123.609 248.117C123.191 248.117 122.808 248.041 122.46 247.889C122.117 247.732 121.827 247.494 121.593 247.174H121.523C121.57 247.549 121.593 247.904 121.593 248.24V250.883H120.62V241.578H121.411L121.546 242.457H121.593C121.843 242.105 122.134 241.852 122.466 241.695C122.798 241.539 123.179 241.461 123.609 241.461C124.46 241.461 125.117 241.752 125.577 242.334C126.042 242.916 126.275 243.732 126.275 244.783C126.275 245.838 126.038 246.658 125.566 247.244C125.097 247.826 124.445 248.117 123.609 248.117ZM123.468 242.287C122.812 242.287 122.337 242.469 122.044 242.832C121.751 243.195 121.601 243.773 121.593 244.566V244.783C121.593 245.686 121.744 246.332 122.044 246.723C122.345 247.109 122.827 247.303 123.492 247.303C124.046 247.303 124.48 247.078 124.792 246.629C125.109 246.18 125.267 245.561 125.267 244.771C125.267 243.971 125.109 243.357 124.792 242.932C124.48 242.502 124.038 242.287 123.468 242.287ZM131.15 241.461C131.435 241.461 131.691 241.484 131.917 241.531L131.782 242.434C131.517 242.375 131.282 242.346 131.079 242.346C130.56 242.346 130.114 242.557 129.743 242.979C129.376 243.4 129.192 243.926 129.192 244.555V248H128.22V241.578H129.023L129.134 242.768H129.181C129.419 242.35 129.706 242.027 130.042 241.801C130.378 241.574 130.747 241.461 131.15 241.461ZM134.331 248H133.358V241.578H134.331V248ZM133.276 239.838C133.276 239.615 133.331 239.453 133.44 239.352C133.55 239.246 133.686 239.193 133.85 239.193C134.007 239.193 134.141 239.246 134.255 239.352C134.368 239.457 134.425 239.619 134.425 239.838C134.425 240.057 134.368 240.221 134.255 240.33C134.141 240.436 134.007 240.488 133.85 240.488C133.686 240.488 133.55 240.436 133.44 240.33C133.331 240.221 133.276 240.057 133.276 239.838ZM139.2 248.117C138.27 248.117 137.549 247.832 137.038 247.262C136.53 246.688 136.276 245.877 136.276 244.83C136.276 243.756 136.534 242.926 137.049 242.34C137.569 241.754 138.307 241.461 139.264 241.461C139.573 241.461 139.881 241.494 140.19 241.561C140.499 241.627 140.741 241.705 140.917 241.795L140.618 242.621C140.403 242.535 140.169 242.465 139.915 242.41C139.661 242.352 139.436 242.322 139.241 242.322C137.936 242.322 137.284 243.154 137.284 244.818C137.284 245.607 137.442 246.213 137.758 246.635C138.079 247.057 138.551 247.268 139.176 247.268C139.712 247.268 140.26 247.152 140.823 246.922V247.783C140.393 248.006 139.852 248.117 139.2 248.117ZM143.565 248H142.592V241.578H143.565V248ZM142.51 239.838C142.51 239.615 142.565 239.453 142.674 239.352C142.784 239.246 142.92 239.193 143.084 239.193C143.241 239.193 143.375 239.246 143.489 239.352C143.602 239.457 143.659 239.619 143.659 239.838C143.659 240.057 143.602 240.221 143.489 240.33C143.375 240.436 143.241 240.488 143.084 240.488C142.92 240.488 142.784 240.436 142.674 240.33C142.565 240.221 142.51 240.057 142.51 239.838ZM150.262 248V243.846C150.262 243.322 150.143 242.932 149.904 242.674C149.666 242.416 149.293 242.287 148.785 242.287C148.113 242.287 147.621 242.469 147.309 242.832C146.996 243.195 146.84 243.795 146.84 244.631V248H145.867V241.578H146.658L146.817 242.457H146.863C147.063 242.141 147.342 241.896 147.701 241.725C148.061 241.549 148.461 241.461 148.902 241.461C149.676 241.461 150.258 241.648 150.649 242.023C151.039 242.395 151.235 242.99 151.235 243.811V248H150.262ZM158.734 241.578V242.193L157.545 242.334C157.654 242.471 157.752 242.65 157.838 242.873C157.924 243.092 157.967 243.34 157.967 243.617C157.967 244.246 157.752 244.748 157.322 245.123C156.893 245.498 156.303 245.686 155.553 245.686C155.361 245.686 155.182 245.67 155.014 245.639C154.6 245.857 154.393 246.133 154.393 246.465C154.393 246.641 154.465 246.771 154.609 246.857C154.754 246.939 155.002 246.98 155.353 246.98H156.49C157.185 246.98 157.719 247.127 158.09 247.42C158.465 247.713 158.652 248.139 158.652 248.697C158.652 249.408 158.367 249.949 157.797 250.32C157.226 250.695 156.394 250.883 155.301 250.883C154.461 250.883 153.812 250.727 153.355 250.414C152.902 250.102 152.676 249.66 152.676 249.09C152.676 248.699 152.801 248.361 153.051 248.076C153.301 247.791 153.652 247.598 154.105 247.496C153.941 247.422 153.803 247.307 153.689 247.15C153.58 246.994 153.525 246.812 153.525 246.605C153.525 246.371 153.588 246.166 153.713 245.99C153.838 245.814 154.035 245.645 154.305 245.48C153.973 245.344 153.701 245.111 153.49 244.783C153.283 244.455 153.18 244.08 153.18 243.658C153.18 242.955 153.391 242.414 153.812 242.035C154.234 241.652 154.832 241.461 155.605 241.461C155.941 241.461 156.244 241.5 156.514 241.578H158.734ZM153.613 249.078C153.613 249.426 153.76 249.689 154.053 249.869C154.346 250.049 154.766 250.139 155.312 250.139C156.129 250.139 156.732 250.016 157.123 249.77C157.518 249.527 157.715 249.197 157.715 248.779C157.715 248.432 157.607 248.189 157.393 248.053C157.178 247.92 156.773 247.854 156.18 247.854H155.014C154.572 247.854 154.228 247.959 153.982 248.17C153.736 248.381 153.613 248.684 153.613 249.078ZM154.141 243.635C154.141 244.084 154.268 244.424 154.521 244.654C154.775 244.885 155.129 245 155.582 245C156.531 245 157.006 244.539 157.006 243.617C157.006 242.652 156.525 242.17 155.564 242.17C155.107 242.17 154.756 242.293 154.51 242.539C154.264 242.785 154.141 243.15 154.141 243.635Z" fill="white"/>
<path d="M0 9C0 4.02944 4.02944 0 9 0H204C208.971 0 213 4.02944 213 9V25H0V9Z" fill="#B5495B"/>
<rect y="129" width="213" height="92" fill="white"/>
<path d="M107.403 135L98 128H116L107.403 135Z" fill="#BD4C5F"/>
<path d="M107.313 228L100 221H114L107.313 228Z" fill="white"/>
<path d="M51.1289 80.7695H47.2812V87H42.8086V80.7695H29.7617V77.2344L42.8086 58.3672H47.2812V76.9609H51.1289V80.7695ZM42.8086 76.9609V69.793C42.8086 67.2409 42.8737 65.151 43.0039 63.5234H42.8477C42.4831 64.3828 41.9102 65.4245 41.1289 66.6484L34.0391 76.9609H42.8086ZM64.0578 58.0742C66.7661 58.0742 68.9081 58.6992 70.4836 59.9492C72.0591 61.1862 72.8469 62.8464 72.8469 64.9297C72.8469 67.8594 71.0891 70.1901 67.5734 71.9219C69.813 73.0417 71.4016 74.2201 72.3391 75.457C73.2896 76.694 73.7648 78.0742 73.7648 79.5977C73.7648 81.9544 72.899 83.8424 71.1672 85.2617C69.4354 86.681 67.0917 87.3906 64.1359 87.3906C61.037 87.3906 58.6346 86.7266 56.9289 85.3984C55.2232 84.0703 54.3703 82.1888 54.3703 79.7539C54.3703 78.1654 54.813 76.7396 55.6984 75.4766C56.5969 74.2005 58.0617 73.0677 60.093 72.0781C58.3482 71.0365 57.1047 69.9362 56.3625 68.7773C55.6203 67.6185 55.2492 66.3164 55.2492 64.8711C55.2492 62.8008 56.063 61.1536 57.6906 59.9297C59.3182 58.6927 61.4406 58.0742 64.0578 58.0742ZM58.7648 79.5977C58.7648 80.9518 59.2401 82.0065 60.1906 82.7617C61.1411 83.5039 62.4302 83.875 64.0578 83.875C65.7375 83.875 67.0396 83.4909 67.9641 82.7227C68.9016 81.9414 69.3703 80.8867 69.3703 79.5586C69.3703 78.5039 68.9406 77.5404 68.0812 76.668C67.2219 75.7956 65.9198 74.9883 64.175 74.2461L63.6086 73.9922C61.8898 74.7474 60.6529 75.5807 59.8977 76.4922C59.1424 77.3906 58.7648 78.4258 58.7648 79.5977ZM64.0187 61.6094C62.7167 61.6094 61.6685 61.9349 60.8742 62.5859C60.0799 63.224 59.6828 64.0964 59.6828 65.2031C59.6828 65.8802 59.826 66.4857 60.1125 67.0195C60.399 67.5534 60.8156 68.0417 61.3625 68.4844C61.9094 68.9141 62.8339 69.4349 64.1359 70.0469C65.6984 69.3568 66.7987 68.6341 67.4367 67.8789C68.0878 67.1107 68.4133 66.2188 68.4133 65.2031C68.4133 64.0964 68.0096 63.224 67.2023 62.5859C66.4081 61.9349 65.3469 61.6094 64.0187 61.6094Z" fill="white"/>
<path d="M33.6982 105.088C33.001 105.088 32.4604 104.874 32.0767 104.446C31.6958 104.016 31.5054 103.408 31.5054 102.623C31.5054 101.817 31.6987 101.194 32.0854 100.755C32.4751 100.315 33.0288 100.096 33.7466 100.096C33.978 100.096 34.2095 100.121 34.4409 100.17C34.6724 100.22 34.854 100.279 34.9858 100.346L34.7617 100.966C34.6006 100.901 34.4248 100.849 34.2344 100.808C34.0439 100.764 33.8755 100.742 33.729 100.742C32.7505 100.742 32.2612 101.366 32.2612 102.614C32.2612 103.206 32.3799 103.66 32.6172 103.976C32.8574 104.292 33.2119 104.451 33.6807 104.451C34.082 104.451 34.4937 104.364 34.9155 104.191V104.837C34.5933 105.004 34.1875 105.088 33.6982 105.088ZM39.2044 105L39.0594 104.314H39.0242C38.784 104.616 38.5438 104.821 38.3035 104.93C38.0662 105.035 37.7689 105.088 37.4114 105.088C36.9339 105.088 36.5589 104.965 36.2864 104.719C36.0169 104.473 35.8821 104.123 35.8821 103.668C35.8821 102.696 36.66 102.186 38.2156 102.139L39.033 102.113V101.814C39.033 101.436 38.951 101.158 38.7869 100.979C38.6258 100.797 38.3665 100.707 38.0091 100.707C37.6077 100.707 37.1536 100.83 36.6468 101.076L36.4227 100.518C36.66 100.389 36.9193 100.288 37.2005 100.214C37.4847 100.141 37.7689 100.104 38.053 100.104C38.6273 100.104 39.0521 100.232 39.3275 100.487C39.6058 100.742 39.7449 101.15 39.7449 101.713V105H39.2044ZM37.5565 104.486C38.0106 104.486 38.3665 104.361 38.6243 104.112C38.8851 103.863 39.0154 103.515 39.0154 103.066V102.631L38.286 102.662C37.7059 102.683 37.2869 102.773 37.0291 102.935C36.7742 103.093 36.6468 103.34 36.6468 103.677C36.6468 103.941 36.7259 104.142 36.8841 104.279C37.0452 104.417 37.2694 104.486 37.5565 104.486ZM43.6295 100.096C43.8434 100.096 44.0353 100.113 44.2052 100.148L44.1041 100.825C43.9049 100.781 43.7291 100.759 43.5768 100.759C43.1871 100.759 42.8532 100.917 42.5748 101.234C42.2995 101.55 42.1618 101.944 42.1618 102.416V105H41.4323V100.184H42.0343L42.1178 101.076H42.153C42.3317 100.762 42.547 100.521 42.799 100.351C43.0509 100.181 43.3278 100.096 43.6295 100.096ZM48.5644 104.354H48.5249C48.1879 104.843 47.684 105.088 47.0131 105.088C46.3833 105.088 45.8925 104.873 45.541 104.442C45.1923 104.011 45.018 103.399 45.018 102.605C45.018 101.811 45.1938 101.194 45.5454 100.755C45.8969 100.315 46.3862 100.096 47.0131 100.096C47.6665 100.096 48.1674 100.333 48.5161 100.808H48.5732L48.5424 100.46L48.5249 100.122V98.1621H49.2544V105H48.6611L48.5644 104.354ZM47.1054 104.477C47.6035 104.477 47.9638 104.342 48.1865 104.073C48.4121 103.8 48.5249 103.362 48.5249 102.759V102.605C48.5249 101.922 48.4106 101.436 48.1821 101.146C47.9565 100.853 47.5947 100.707 47.0966 100.707C46.6689 100.707 46.3408 100.874 46.1123 101.208C45.8867 101.539 45.7739 102.007 45.7739 102.614C45.7739 103.229 45.8867 103.693 46.1123 104.007C46.3379 104.32 46.6689 104.477 47.1054 104.477ZM54.0926 103.686C54.0926 104.134 53.9256 104.48 53.5916 104.723C53.2576 104.966 52.7888 105.088 52.1853 105.088C51.5467 105.088 51.0486 104.987 50.6912 104.785V104.108C50.9226 104.225 51.1702 104.317 51.4339 104.385C51.7005 104.452 51.9568 104.486 52.2029 104.486C52.5838 104.486 52.8767 104.426 53.0818 104.306C53.2869 104.183 53.3894 103.997 53.3894 103.748C53.3894 103.56 53.3074 103.4 53.1433 103.269C52.9822 103.134 52.6658 102.976 52.1941 102.794C51.7459 102.627 51.4265 102.482 51.2361 102.359C51.0486 102.233 50.908 102.091 50.8142 101.933C50.7234 101.774 50.678 101.585 50.678 101.366C50.678 100.973 50.8377 100.664 51.157 100.438C51.4763 100.21 51.9143 100.096 52.471 100.096C52.9895 100.096 53.4964 100.201 53.9915 100.412L53.7322 101.005C53.2488 100.806 52.8108 100.707 52.4182 100.707C52.0725 100.707 51.8118 100.761 51.636 100.869C51.4602 100.978 51.3723 101.127 51.3723 101.317C51.3723 101.446 51.4046 101.556 51.469 101.647C51.5364 101.738 51.6433 101.824 51.7898 101.906C51.9363 101.988 52.2176 102.107 52.6336 102.262C53.2049 102.47 53.5901 102.68 53.7893 102.891C53.9915 103.102 54.0926 103.367 54.0926 103.686ZM57.9024 98.5752L55.5074 105H54.7779L57.1729 98.5752H57.9024ZM58.1835 100.184H58.9657L60.0204 102.93C60.2519 103.557 60.3954 104.01 60.4511 104.288H60.4862C60.5243 104.139 60.6034 103.884 60.7236 103.523C60.8466 103.16 61.245 102.047 61.9189 100.184H62.7011L60.6313 105.668C60.4262 106.21 60.186 106.594 59.9106 106.819C59.6381 107.048 59.3027 107.162 58.9042 107.162C58.6816 107.162 58.4618 107.137 58.245 107.087V106.503C58.4062 106.538 58.5863 106.556 58.7856 106.556C59.2865 106.556 59.644 106.274 59.8578 105.712L60.1259 105.026L58.1835 100.184ZM65.698 105.088C64.9861 105.088 64.4236 104.871 64.0105 104.438C63.6003 104.004 63.3953 103.402 63.3953 102.631C63.3953 101.855 63.5857 101.238 63.9665 100.781C64.3503 100.324 64.8645 100.096 65.509 100.096C66.1125 100.096 66.5901 100.295 66.9416 100.693C67.2932 101.089 67.469 101.612 67.469 102.262V102.724H64.1511C64.1658 103.289 64.3079 103.718 64.5774 104.011C64.8498 104.304 65.2322 104.451 65.7244 104.451C66.2429 104.451 66.7556 104.342 67.2624 104.125V104.776C67.0046 104.887 66.76 104.966 66.5286 105.013C66.3 105.063 66.0232 105.088 65.698 105.088ZM65.5002 100.707C65.1135 100.707 64.8044 100.833 64.573 101.084C64.3445 101.336 64.2097 101.685 64.1687 102.13H66.6868C66.6868 101.67 66.5842 101.319 66.3791 101.076C66.1741 100.83 65.8811 100.707 65.5002 100.707ZM71.8589 105L71.7139 104.314H71.6788C71.4385 104.616 71.1983 104.821 70.9581 104.93C70.7208 105.035 70.4234 105.088 70.066 105.088C69.5884 105.088 69.2134 104.965 68.941 104.719C68.6714 104.473 68.5367 104.123 68.5367 103.668C68.5367 102.696 69.3145 102.186 70.8702 102.139L71.6876 102.113V101.814C71.6876 101.436 71.6055 101.158 71.4415 100.979C71.2803 100.797 71.0211 100.707 70.6636 100.707C70.2623 100.707 69.8082 100.83 69.3013 101.076L69.0772 100.518C69.3145 100.389 69.5738 100.288 69.855 100.214C70.1392 100.141 70.4234 100.104 70.7076 100.104C71.2818 100.104 71.7066 100.232 71.982 100.487C72.2603 100.742 72.3995 101.15 72.3995 101.713V105H71.8589ZM70.211 104.486C70.6651 104.486 71.0211 104.361 71.2789 104.112C71.5396 103.863 71.67 103.515 71.67 103.066V102.631L70.9405 102.662C70.3604 102.683 69.9415 102.773 69.6837 102.935C69.4288 103.093 69.3013 103.34 69.3013 103.677C69.3013 103.941 69.3804 104.142 69.5386 104.279C69.6998 104.417 69.9239 104.486 70.211 104.486ZM76.2841 100.096C76.4979 100.096 76.6898 100.113 76.8597 100.148L76.7587 100.825C76.5595 100.781 76.3837 100.759 76.2313 100.759C75.8417 100.759 75.5077 100.917 75.2294 101.234C74.954 101.55 74.8163 101.944 74.8163 102.416V105H74.0868V100.184H74.6888L74.7723 101.076H74.8075C74.9862 100.762 75.2015 100.521 75.4535 100.351C75.7054 100.181 75.9823 100.096 76.2841 100.096Z" fill="white"/>
<path d="M109.026 79.0513C109.026 80.0109 108.785 80.7611 108.301 81.3018C107.818 81.8389 107.15 82.1074 106.298 82.1074C105.771 82.1074 105.304 81.9839 104.896 81.7368C104.488 81.4897 104.173 81.1353 103.951 80.6733C103.729 80.2114 103.618 79.6707 103.618 79.0513C103.618 78.0916 103.858 77.3451 104.337 76.8115C104.817 76.2744 105.483 76.0059 106.335 76.0059C107.159 76.0059 107.812 76.2798 108.296 76.8276C108.783 77.3755 109.026 78.1167 109.026 79.0513ZM104.542 79.0513C104.542 79.8032 104.692 80.3761 104.993 80.77C105.293 81.1639 105.736 81.3608 106.319 81.3608C106.903 81.3608 107.345 81.1657 107.646 80.7754C107.95 80.3815 108.103 79.8068 108.103 79.0513C108.103 78.3029 107.95 77.7354 107.646 77.3486C107.345 76.9583 106.899 76.7632 106.309 76.7632C105.725 76.7632 105.285 76.9548 104.987 77.3379C104.69 77.721 104.542 78.2922 104.542 79.0513ZM113.5 76.0059C113.762 76.0059 113.996 76.0273 114.204 76.0703L114.08 76.8975C113.837 76.8438 113.622 76.8169 113.436 76.8169C112.96 76.8169 112.551 77.0103 112.211 77.397C111.875 77.7837 111.706 78.2653 111.706 78.8418V82H110.815V76.1133H111.551L111.653 77.2036H111.696C111.914 76.8205 112.177 76.5251 112.485 76.3174C112.793 76.1097 113.131 76.0059 113.5 76.0059Z" fill="white"/>
<path d="M103.913 204V200.867C103.913 200.483 103.831 200.196 103.667 200.005C103.502 199.812 103.248 199.715 102.902 199.715C102.448 199.715 102.112 199.846 101.896 200.106C101.679 200.367 101.57 200.769 101.57 201.311V204H100.841V200.867C100.841 200.483 100.759 200.196 100.595 200.005C100.431 199.812 100.174 199.715 99.8257 199.715C99.3687 199.715 99.0332 199.853 98.8193 200.128C98.6084 200.401 98.5029 200.849 98.5029 201.473V204H97.7734V199.184H98.3667L98.4854 199.843H98.5205C98.6582 199.608 98.8516 199.425 99.1006 199.293C99.3525 199.162 99.6338 199.096 99.9443 199.096C100.697 199.096 101.189 199.368 101.421 199.913H101.456C101.6 199.661 101.808 199.462 102.08 199.315C102.353 199.169 102.663 199.096 103.012 199.096C103.557 199.096 103.964 199.236 104.233 199.518C104.506 199.796 104.642 200.243 104.642 200.858V204H103.913ZM110.487 201.587C110.487 202.373 110.289 202.986 109.893 203.429C109.498 203.868 108.951 204.088 108.254 204.088C107.824 204.088 107.441 203.987 107.107 203.785C106.773 203.583 106.515 203.292 106.334 202.915C106.152 202.537 106.061 202.094 106.061 201.587C106.061 200.802 106.258 200.191 106.65 199.755C107.043 199.315 107.588 199.096 108.285 199.096C108.959 199.096 109.493 199.32 109.889 199.768C110.287 200.216 110.487 200.823 110.487 201.587ZM106.817 201.587C106.817 202.203 106.94 202.671 107.186 202.994C107.432 203.316 107.794 203.477 108.272 203.477C108.749 203.477 109.111 203.317 109.357 202.998C109.606 202.676 109.731 202.206 109.731 201.587C109.731 200.975 109.606 200.511 109.357 200.194C109.111 199.875 108.746 199.715 108.263 199.715C107.785 199.715 107.425 199.872 107.182 200.186C106.939 200.499 106.817 200.966 106.817 201.587ZM115.246 204V200.884C115.246 200.492 115.156 200.199 114.978 200.005C114.799 199.812 114.519 199.715 114.138 199.715C113.634 199.715 113.265 199.852 113.031 200.124C112.797 200.396 112.679 200.846 112.679 201.473V204H111.95V199.184H112.543L112.662 199.843H112.697C112.846 199.605 113.056 199.422 113.325 199.293C113.595 199.162 113.895 199.096 114.226 199.096C114.806 199.096 115.243 199.236 115.536 199.518C115.829 199.796 115.975 200.243 115.975 200.858V204H115.246ZM119.214 203.486C119.343 203.486 119.467 203.477 119.587 203.459C119.707 203.439 119.803 203.418 119.873 203.398V203.956C119.794 203.994 119.677 204.025 119.521 204.048C119.369 204.075 119.231 204.088 119.108 204.088C118.177 204.088 117.711 203.597 117.711 202.616V199.75H117.021V199.399L117.711 199.096L118.019 198.067H118.44V199.184H119.838V199.75H118.44V202.585C118.44 202.875 118.509 203.098 118.647 203.253C118.785 203.408 118.974 203.486 119.214 203.486ZM124.316 204V200.884C124.316 200.492 124.226 200.199 124.048 200.005C123.869 199.812 123.589 199.715 123.208 199.715C122.701 199.715 122.331 199.853 122.096 200.128C121.865 200.404 121.749 200.855 121.749 201.482V204H121.02V197.162H121.749V199.232C121.749 199.481 121.738 199.688 121.714 199.852H121.758C121.902 199.62 122.105 199.438 122.369 199.307C122.636 199.172 122.939 199.104 123.279 199.104C123.867 199.104 124.308 199.245 124.601 199.526C124.897 199.805 125.045 200.249 125.045 200.858V204H124.316Z" fill="#BD4C5F"/>
<path d="M16.7852 35.2891H18.3984C19.1562 35.2891 19.7044 35.4023 20.043 35.6289C20.3815 35.8555 20.5508 36.2135 20.5508 36.7031C20.5508 37.0417 20.4557 37.3216 20.2656 37.543C20.0781 37.7617 19.8034 37.9036 19.4414 37.9688V38.0078C20.3086 38.1562 20.7422 38.612 20.7422 39.375C20.7422 39.8854 20.569 40.2839 20.2227 40.5703C19.8789 40.8568 19.3971 41 18.7773 41H16.7852V35.2891ZM17.4492 37.7344H18.543C19.0117 37.7344 19.349 37.6615 19.5547 37.5156C19.7604 37.3672 19.8633 37.1185 19.8633 36.7695C19.8633 36.4492 19.7487 36.2188 19.5195 36.0781C19.2904 35.9349 18.9258 35.8633 18.4258 35.8633H17.4492V37.7344ZM17.4492 38.2969V40.4336H18.6406C19.1016 40.4336 19.4479 40.3451 19.6797 40.168C19.9141 39.9883 20.0312 39.7083 20.0312 39.3281C20.0312 38.974 19.9115 38.7135 19.6719 38.5469C19.4349 38.3802 19.0729 38.2969 18.5859 38.2969H17.4492ZM24.5078 41L24.3789 40.3906H24.3477C24.1341 40.6589 23.9206 40.8411 23.707 40.9375C23.4961 41.0312 23.2318 41.0781 22.9141 41.0781C22.4896 41.0781 22.1562 40.9688 21.9141 40.75C21.6745 40.5312 21.5547 40.2201 21.5547 39.8164C21.5547 38.9518 22.2461 38.4987 23.6289 38.457L24.3555 38.4336V38.168C24.3555 37.832 24.2826 37.5846 24.1367 37.4258C23.9935 37.2643 23.763 37.1836 23.4453 37.1836C23.0885 37.1836 22.6849 37.293 22.2344 37.5117L22.0352 37.0156C22.2461 36.901 22.4766 36.8112 22.7266 36.7461C22.9792 36.681 23.2318 36.6484 23.4844 36.6484C23.9948 36.6484 24.3724 36.7617 24.6172 36.9883C24.8646 37.2148 24.9883 37.5781 24.9883 38.0781V41H24.5078ZM23.043 40.543C23.4466 40.543 23.763 40.4323 23.9922 40.2109C24.224 39.9896 24.3398 39.6797 24.3398 39.2812V38.8945L23.6914 38.9219C23.1758 38.9401 22.8034 39.0208 22.5742 39.1641C22.3477 39.3047 22.2344 39.5247 22.2344 39.8242C22.2344 40.0586 22.3047 40.237 22.4453 40.3594C22.5885 40.4818 22.7878 40.543 23.043 40.543ZM29.0898 39.832C29.0898 40.2305 28.9414 40.5378 28.6445 40.7539C28.3477 40.9701 27.931 41.0781 27.3945 41.0781C26.8268 41.0781 26.3841 40.9883 26.0664 40.8086V40.207C26.2721 40.3112 26.4922 40.3932 26.7266 40.4531C26.9635 40.513 27.1914 40.543 27.4102 40.543C27.7487 40.543 28.0091 40.4896 28.1914 40.3828C28.3737 40.2734 28.4648 40.1081 28.4648 39.8867C28.4648 39.7201 28.3919 39.5781 28.2461 39.4609C28.1029 39.3411 27.8216 39.2005 27.4023 39.0391C27.0039 38.8906 26.7201 38.7617 26.5508 38.6523C26.3841 38.5404 26.2591 38.4141 26.1758 38.2734C26.0951 38.1328 26.0547 37.9648 26.0547 37.7695C26.0547 37.4206 26.1966 37.1458 26.4805 36.9453C26.7643 36.7422 27.1536 36.6406 27.6484 36.6406C28.1094 36.6406 28.5599 36.7344 29 36.9219L28.7695 37.4492C28.3398 37.2721 27.9505 37.1836 27.6016 37.1836C27.2943 37.1836 27.0625 37.2318 26.9062 37.3281C26.75 37.4245 26.6719 37.5573 26.6719 37.7266C26.6719 37.8411 26.7005 37.9388 26.7578 38.0195C26.8177 38.1003 26.9128 38.1771 27.043 38.25C27.1732 38.3229 27.4232 38.4284 27.793 38.5664C28.3008 38.7513 28.6432 38.9375 28.8203 39.125C29 39.3125 29.0898 39.5482 29.0898 39.832ZM30.7969 41H30.1484V36.7188H30.7969V41ZM30.0938 35.5586C30.0938 35.4102 30.1302 35.3021 30.2031 35.2344C30.276 35.1641 30.3672 35.1289 30.4766 35.1289C30.5807 35.1289 30.6706 35.1641 30.7461 35.2344C30.8216 35.3047 30.8594 35.4128 30.8594 35.5586C30.8594 35.7044 30.8216 35.8138 30.7461 35.8867C30.6706 35.957 30.5807 35.9922 30.4766 35.9922C30.3672 35.9922 30.276 35.957 30.2031 35.8867C30.1302 35.8138 30.0938 35.7044 30.0938 35.5586ZM33.8828 41.0781C33.263 41.0781 32.7826 40.888 32.4414 40.5078C32.1029 40.125 31.9336 39.5846 31.9336 38.8867C31.9336 38.1706 32.1055 37.6172 32.4492 37.2266C32.7956 36.8359 33.2878 36.6406 33.9258 36.6406C34.1315 36.6406 34.3372 36.6628 34.543 36.707C34.7487 36.7513 34.9102 36.8034 35.0273 36.8633L34.8281 37.4141C34.6849 37.3568 34.5286 37.3099 34.3594 37.2734C34.1901 37.2344 34.0404 37.2148 33.9102 37.2148C33.0404 37.2148 32.6055 37.7695 32.6055 38.8789C32.6055 39.4049 32.7109 39.8086 32.9219 40.0898C33.1354 40.3711 33.4505 40.5117 33.8672 40.5117C34.224 40.5117 34.5898 40.4349 34.9648 40.2812V40.8555C34.6784 41.0039 34.3177 41.0781 33.8828 41.0781Z" fill="white"/>
<path d="M159.113 87H139.758V83.5234L147.121 76.1211C149.296 73.8945 150.734 72.319 151.438 71.3945C152.154 70.457 152.674 69.5781 153 68.7578C153.326 67.9375 153.488 67.0586 153.488 66.1211C153.488 64.832 153.098 63.8164 152.316 63.0742C151.548 62.332 150.48 61.9609 149.113 61.9609C148.02 61.9609 146.958 62.1628 145.93 62.5664C144.914 62.9701 143.736 63.6992 142.395 64.7539L139.914 61.7266C141.503 60.3854 143.046 59.4349 144.543 58.875C146.04 58.3151 147.635 58.0352 149.328 58.0352C151.984 58.0352 154.113 58.7318 155.715 60.125C157.316 61.5052 158.117 63.3672 158.117 65.7109C158.117 67 157.883 68.224 157.414 69.3828C156.958 70.5417 156.249 71.7396 155.285 72.9766C154.335 74.2005 152.746 75.8607 150.52 77.957L145.559 82.7617V82.957H159.113V87ZM183.78 80.7695H179.933V87H175.46V80.7695H162.413V77.2344L175.46 58.3672H179.933V76.9609H183.78V80.7695ZM175.46 76.9609V69.793C175.46 67.2409 175.525 65.151 175.655 63.5234H175.499C175.135 64.3828 174.562 65.4245 173.78 66.6484L166.691 76.9609H175.46Z" fill="white"/>
<path d="M142.698 105.088C142.001 105.088 141.46 104.874 141.077 104.446C140.696 104.016 140.505 103.408 140.505 102.623C140.505 101.817 140.699 101.194 141.085 100.755C141.475 100.315 142.029 100.096 142.747 100.096C142.978 100.096 143.209 100.121 143.441 100.17C143.672 100.22 143.854 100.279 143.986 100.346L143.762 100.966C143.601 100.901 143.425 100.849 143.234 100.808C143.044 100.764 142.875 100.742 142.729 100.742C141.75 100.742 141.261 101.366 141.261 102.614C141.261 103.206 141.38 103.66 141.617 103.976C141.857 104.292 142.212 104.451 142.681 104.451C143.082 104.451 143.494 104.364 143.916 104.191V104.837C143.593 105.004 143.188 105.088 142.698 105.088ZM148.204 105L148.059 104.314H148.024C147.784 104.616 147.544 104.821 147.304 104.93C147.066 105.035 146.769 105.088 146.411 105.088C145.934 105.088 145.559 104.965 145.286 104.719C145.017 104.473 144.882 104.123 144.882 103.668C144.882 102.696 145.66 102.186 147.216 102.139L148.033 102.113V101.814C148.033 101.436 147.951 101.158 147.787 100.979C147.626 100.797 147.367 100.707 147.009 100.707C146.608 100.707 146.154 100.83 145.647 101.076L145.423 100.518C145.66 100.389 145.919 100.288 146.201 100.214C146.485 100.141 146.769 100.104 147.053 100.104C147.627 100.104 148.052 100.232 148.327 100.487C148.606 100.742 148.745 101.15 148.745 101.713V105H148.204ZM146.556 104.486C147.011 104.486 147.367 104.361 147.624 104.112C147.885 103.863 148.015 103.515 148.015 103.066V102.631L147.286 102.662C146.706 102.683 146.287 102.773 146.029 102.935C145.774 103.093 145.647 103.34 145.647 103.677C145.647 103.941 145.726 104.142 145.884 104.279C146.045 104.417 146.269 104.486 146.556 104.486ZM152.63 100.096C152.843 100.096 153.035 100.113 153.205 100.148L153.104 100.825C152.905 100.781 152.729 100.759 152.577 100.759C152.187 100.759 151.853 100.917 151.575 101.234C151.299 101.55 151.162 101.944 151.162 102.416V105H150.432V100.184H151.034L151.118 101.076H151.153C151.332 100.762 151.547 100.521 151.799 100.351C152.051 100.181 152.328 100.096 152.63 100.096ZM157.564 104.354H157.525C157.188 104.843 156.684 105.088 156.013 105.088C155.383 105.088 154.893 104.873 154.541 104.442C154.192 104.011 154.018 103.399 154.018 102.605C154.018 101.811 154.194 101.194 154.545 100.755C154.897 100.315 155.386 100.096 156.013 100.096C156.666 100.096 157.167 100.333 157.516 100.808H157.573L157.542 100.46L157.525 100.122V98.1621H158.254V105H157.661L157.564 104.354ZM156.105 104.477C156.603 104.477 156.964 104.342 157.186 104.073C157.412 103.8 157.525 103.362 157.525 102.759V102.605C157.525 101.922 157.411 101.436 157.182 101.146C156.957 100.853 156.595 100.707 156.097 100.707C155.669 100.707 155.341 100.874 155.112 101.208C154.887 101.539 154.774 102.007 154.774 102.614C154.774 103.229 154.887 103.693 155.112 104.007C155.338 104.32 155.669 104.477 156.105 104.477ZM163.093 103.686C163.093 104.134 162.926 104.48 162.592 104.723C162.258 104.966 161.789 105.088 161.185 105.088C160.547 105.088 160.049 104.987 159.691 104.785V104.108C159.923 104.225 160.17 104.317 160.434 104.385C160.7 104.452 160.957 104.486 161.203 104.486C161.584 104.486 161.877 104.426 162.082 104.306C162.287 104.183 162.389 103.997 162.389 103.748C162.389 103.56 162.307 103.4 162.143 103.269C161.982 103.134 161.666 102.976 161.194 102.794C160.746 102.627 160.427 102.482 160.236 102.359C160.049 102.233 159.908 102.091 159.814 101.933C159.723 101.774 159.678 101.585 159.678 101.366C159.678 100.973 159.838 100.664 160.157 100.438C160.476 100.21 160.914 100.096 161.471 100.096C161.99 100.096 162.496 100.201 162.991 100.412L162.732 101.005C162.249 100.806 161.811 100.707 161.418 100.707C161.073 100.707 160.812 100.761 160.636 100.869C160.46 100.978 160.372 101.127 160.372 101.317C160.372 101.446 160.405 101.556 160.469 101.647C160.536 101.738 160.643 101.824 160.79 101.906C160.936 101.988 161.218 102.107 161.634 102.262C162.205 102.47 162.59 102.68 162.789 102.891C162.991 103.102 163.093 103.367 163.093 103.686ZM166.902 98.5752L164.507 105H163.778L166.173 98.5752H166.902ZM167.184 100.184H167.966L169.02 102.93C169.252 103.557 169.395 104.01 169.451 104.288H169.486C169.524 104.139 169.603 103.884 169.724 103.523C169.847 103.16 170.245 102.047 170.919 100.184H171.701L169.631 105.668C169.426 106.21 169.186 106.594 168.911 106.819C168.638 107.048 168.303 107.162 167.904 107.162C167.682 107.162 167.462 107.137 167.245 107.087V106.503C167.406 106.538 167.586 106.556 167.786 106.556C168.287 106.556 168.644 106.274 168.858 105.712L169.126 105.026L167.184 100.184ZM174.698 105.088C173.986 105.088 173.424 104.871 173.01 104.438C172.6 104.004 172.395 103.402 172.395 102.631C172.395 101.855 172.586 101.238 172.967 100.781C173.35 100.324 173.864 100.096 174.509 100.096C175.113 100.096 175.59 100.295 175.942 100.693C176.293 101.089 176.469 101.612 176.469 102.262V102.724H173.151C173.166 103.289 173.308 103.718 173.577 104.011C173.85 104.304 174.232 104.451 174.724 104.451C175.243 104.451 175.756 104.342 176.262 104.125V104.776C176.005 104.887 175.76 104.966 175.529 105.013C175.3 105.063 175.023 105.088 174.698 105.088ZM174.5 100.707C174.114 100.707 173.804 100.833 173.573 101.084C173.344 101.336 173.21 101.685 173.169 102.13H175.687C175.687 101.67 175.584 101.319 175.379 101.076C175.174 100.83 174.881 100.707 174.5 100.707ZM180.859 105L180.714 104.314H180.679C180.439 104.616 180.198 104.821 179.958 104.93C179.721 105.035 179.423 105.088 179.066 105.088C178.588 105.088 178.213 104.965 177.941 104.719C177.671 104.473 177.537 104.123 177.537 103.668C177.537 102.696 178.315 102.186 179.87 102.139L180.688 102.113V101.814C180.688 101.436 180.606 101.158 180.441 100.979C180.28 100.797 180.021 100.707 179.664 100.707C179.262 100.707 178.808 100.83 178.301 101.076L178.077 100.518C178.315 100.389 178.574 100.288 178.855 100.214C179.139 100.141 179.423 100.104 179.708 100.104C180.282 100.104 180.707 100.232 180.982 100.487C181.26 100.742 181.399 101.15 181.399 101.713V105H180.859ZM179.211 104.486C179.665 104.486 180.021 104.361 180.279 104.112C180.54 103.863 180.67 103.515 180.67 103.066V102.631L179.94 102.662C179.36 102.683 178.941 102.773 178.684 102.935C178.429 103.093 178.301 103.34 178.301 103.677C178.301 103.941 178.38 104.142 178.539 104.279C178.7 104.417 178.924 104.486 179.211 104.486ZM185.284 100.096C185.498 100.096 185.69 100.113 185.86 100.148L185.759 100.825C185.559 100.781 185.384 100.759 185.231 100.759C184.842 100.759 184.508 100.917 184.229 101.234C183.954 101.55 183.816 101.944 183.816 102.416V105H183.087V100.184H183.689L183.772 101.076H183.807C183.986 100.762 184.202 100.521 184.453 100.351C184.705 100.181 184.982 100.096 185.284 100.096Z" fill="white"/>
<path d="M127.406 36.9531C127.406 37.5312 127.208 37.9766 126.812 38.2891C126.419 38.599 125.855 38.7539 125.121 38.7539H124.449V41H123.785V35.2891H125.266C126.693 35.2891 127.406 35.8438 127.406 36.9531ZM124.449 38.1836H125.047C125.635 38.1836 126.061 38.0885 126.324 37.8984C126.587 37.7083 126.719 37.4036 126.719 36.9844C126.719 36.6068 126.595 36.3255 126.348 36.1406C126.1 35.9557 125.715 35.8633 125.191 35.8633H124.449V38.1836ZM130.461 36.6406C130.651 36.6406 130.822 36.6562 130.973 36.6875L130.883 37.2891C130.706 37.25 130.549 37.2305 130.414 37.2305C130.068 37.2305 129.771 37.3711 129.523 37.6523C129.279 37.9336 129.156 38.2839 129.156 38.7031V41H128.508V36.7188H129.043L129.117 37.5117H129.148C129.307 37.2331 129.499 37.0182 129.723 36.8672C129.947 36.7161 130.193 36.6406 130.461 36.6406ZM133.582 41.0781C132.949 41.0781 132.449 40.8854 132.082 40.5C131.717 40.1146 131.535 39.5794 131.535 38.8945C131.535 38.2044 131.704 37.6562 132.043 37.25C132.384 36.8438 132.841 36.6406 133.414 36.6406C133.951 36.6406 134.375 36.8177 134.688 37.1719C135 37.5234 135.156 37.9883 135.156 38.5664V38.9766H132.207C132.22 39.4792 132.346 39.8607 132.586 40.1211C132.828 40.3815 133.168 40.5117 133.605 40.5117C134.066 40.5117 134.522 40.4154 134.973 40.2227V40.8008C134.743 40.8997 134.526 40.9701 134.32 41.0117C134.117 41.056 133.871 41.0781 133.582 41.0781ZM133.406 37.1836C133.062 37.1836 132.788 37.2956 132.582 37.5195C132.379 37.7435 132.259 38.0534 132.223 38.4492H134.461C134.461 38.0404 134.37 37.7279 134.188 37.5117C134.005 37.293 133.745 37.1836 133.406 37.1836ZM141.723 41V38.2148C141.723 37.8737 141.65 37.6185 141.504 37.4492C141.358 37.2773 141.132 37.1914 140.824 37.1914C140.421 37.1914 140.122 37.3073 139.93 37.5391C139.737 37.7708 139.641 38.1276 139.641 38.6094V41H138.992V38.2148C138.992 37.8737 138.919 37.6185 138.773 37.4492C138.628 37.2773 138.4 37.1914 138.09 37.1914C137.684 37.1914 137.385 37.3138 137.195 37.5586C137.008 37.8008 136.914 38.1992 136.914 38.7539V41H136.266V36.7188H136.793L136.898 37.3047H136.93C137.052 37.0964 137.224 36.9336 137.445 36.8164C137.669 36.6992 137.919 36.6406 138.195 36.6406C138.865 36.6406 139.302 36.8828 139.508 37.3672H139.539C139.667 37.1432 139.852 36.9661 140.094 36.8359C140.336 36.7057 140.612 36.6406 140.922 36.6406C141.406 36.6406 141.768 36.7656 142.008 37.0156C142.25 37.263 142.371 37.6602 142.371 38.207V41H141.723ZM144.359 41H143.711V36.7188H144.359V41ZM143.656 35.5586C143.656 35.4102 143.693 35.3021 143.766 35.2344C143.839 35.1641 143.93 35.1289 144.039 35.1289C144.143 35.1289 144.233 35.1641 144.309 35.2344C144.384 35.3047 144.422 35.4128 144.422 35.5586C144.422 35.7044 144.384 35.8138 144.309 35.8867C144.233 35.957 144.143 35.9922 144.039 35.9922C143.93 35.9922 143.839 35.957 143.766 35.8867C143.693 35.8138 143.656 35.7044 143.656 35.5586ZM146.344 36.7188V39.4961C146.344 39.8451 146.423 40.1055 146.582 40.2773C146.741 40.4492 146.99 40.5352 147.328 40.5352C147.776 40.5352 148.103 40.4128 148.309 40.168C148.517 39.9232 148.621 39.5234 148.621 38.9688V36.7188H149.27V41H148.734L148.641 40.4258H148.605C148.473 40.6367 148.288 40.7982 148.051 40.9102C147.816 41.0221 147.548 41.0781 147.246 41.0781C146.725 41.0781 146.335 40.9544 146.074 40.707C145.816 40.4596 145.688 40.0638 145.688 39.5195V36.7188H146.344ZM156.105 41V38.2148C156.105 37.8737 156.033 37.6185 155.887 37.4492C155.741 37.2773 155.514 37.1914 155.207 37.1914C154.803 37.1914 154.505 37.3073 154.312 37.5391C154.12 37.7708 154.023 38.1276 154.023 38.6094V41H153.375V38.2148C153.375 37.8737 153.302 37.6185 153.156 37.4492C153.01 37.2773 152.783 37.1914 152.473 37.1914C152.066 37.1914 151.768 37.3138 151.578 37.5586C151.391 37.8008 151.297 38.1992 151.297 38.7539V41H150.648V36.7188H151.176L151.281 37.3047H151.312C151.435 37.0964 151.607 36.9336 151.828 36.8164C152.052 36.6992 152.302 36.6406 152.578 36.6406C153.247 36.6406 153.685 36.8828 153.891 37.3672H153.922C154.049 37.1432 154.234 36.9661 154.477 36.8359C154.719 36.7057 154.995 36.6406 155.305 36.6406C155.789 36.6406 156.151 36.7656 156.391 37.0156C156.633 37.263 156.754 37.6602 156.754 38.207V41H156.105Z" fill="white"/>
<path d="M105.867 188H83.3438V184.648L92.3672 175.578C95.1172 172.797 96.9297 170.812 97.8047 169.625C98.6797 168.438 99.3359 167.281 99.7734 166.156C100.211 165.031 100.43 163.82 100.43 162.523C100.43 160.695 99.875 159.25 98.7656 158.188C97.6562 157.109 96.1172 156.57 94.1484 156.57C92.7266 156.57 91.375 156.805 90.0938 157.273C88.8281 157.742 87.4141 158.594 85.8516 159.828L83.7891 157.18C86.9453 154.555 90.3828 153.242 94.1016 153.242C97.3203 153.242 99.8438 154.07 101.672 155.727C103.5 157.367 104.414 159.578 104.414 162.359C104.414 164.531 103.805 166.68 102.586 168.805C101.367 170.93 99.0859 173.617 95.7422 176.867L88.2422 184.203V184.391H105.867V188ZM135.913 180.125H130.827V188H127.101V180.125H110.437V176.727L126.702 153.547H130.827V176.586H135.913V180.125ZM127.101 176.586V165.195C127.101 162.961 127.179 160.438 127.335 157.625H127.147C126.397 159.125 125.694 160.367 125.038 161.352L114.327 176.586H127.101Z" fill="#BD4C5F"/>
<line x1="107.5" y1="35" x2="107.5" y2="62" stroke="white"/>
<line x1="107.5" y1="95" x2="107.5" y2="122" stroke="white"/>
<path d="M79.1055 160.054C79.1055 160.851 78.8066 161.51 78.209 162.031C77.6113 162.547 76.7764 162.872 75.7041 163.007V165.046H74.5703V163.086C73.9141 163.086 73.2783 163.036 72.6631 162.937C72.0479 162.831 71.5439 162.688 71.1514 162.506V161.135C71.6377 161.352 72.1973 161.53 72.8301 161.671C73.4688 161.806 74.0488 161.873 74.5703 161.873V158.006C73.3691 157.625 72.5254 157.183 72.0391 156.679C71.5586 156.175 71.3184 155.524 71.3184 154.728C71.3184 153.96 71.6143 153.33 72.2061 152.838C72.8037 152.346 73.5918 152.047 74.5703 151.941V150.342H75.7041V151.924C76.7822 151.953 77.8223 152.17 78.8242 152.574L78.3672 153.726C77.4941 153.38 76.6064 153.175 75.7041 153.11V156.925C76.624 157.218 77.3125 157.505 77.7695 157.786C78.2266 158.062 78.5635 158.381 78.7803 158.744C78.9971 159.102 79.1055 159.538 79.1055 160.054ZM77.6113 160.168C77.6113 159.746 77.4795 159.406 77.2158 159.148C76.958 158.885 76.4541 158.624 75.7041 158.366V161.785C76.9756 161.609 77.6113 161.07 77.6113 160.168ZM72.8037 154.71C72.8037 155.155 72.9355 155.513 73.1992 155.782C73.4629 156.052 73.9199 156.307 74.5703 156.547V153.146C73.9902 153.239 73.5508 153.424 73.252 153.699C72.9531 153.969 72.8037 154.306 72.8037 154.71Z" fill="#BD4C5F"/>
</svg>
