<svg width="181" height="189" viewBox="0 0 181 189" fill="none" xmlns="http://www.w3.org/2000/svg">
<g opacity="0.4">
<path d="M154.617 100.353L151.579 92.3413L159.588 89.4773L162.194 97.4346L154.617 100.353Z" fill="#FFEBCC"/>
<path d="M146.767 117.526L143.729 109.514L151.739 106.65L154.345 114.607L146.767 117.526Z" fill="#FFEBCC"/>
<path d="M170.315 66.0081L167.277 57.9961L175.286 55.132L177.893 63.0893L170.315 66.0081Z" fill="#FFEBCC"/>
<path d="M162.466 83.18L159.428 75.1679L167.437 72.3039L170.043 80.2612L162.466 83.18Z" fill="#FFEBCC"/>
<path d="M132.269 89.6307L129.231 81.6186L137.24 78.7546L139.846 86.7119L132.269 89.6307Z" fill="#FFEBCC"/>
<path d="M124.419 106.804L121.381 98.7915L129.39 95.9275L131.997 103.885L124.419 106.804Z" fill="#FFEBCC"/>
<path d="M147.967 55.285L144.929 47.2729L152.938 44.4089L155.544 52.3662L147.967 55.285Z" fill="#FFEBCC"/>
<path d="M140.118 72.4583L137.08 64.4463L145.089 61.5822L147.695 69.5395L140.118 72.4583Z" fill="#FFEBCC"/>
<path d="M109.92 78.907L106.882 70.895L114.892 68.031L117.498 75.9883L109.92 78.907Z" fill="#FFEBCC"/>
<path d="M102.071 96.0804L99.0331 88.0683L107.042 85.2043L109.648 93.1616L102.071 96.0804Z" fill="#FFEBCC"/>
<path d="M125.619 44.5618L122.581 36.5498L130.59 33.6858L133.196 41.643L125.619 44.5618Z" fill="#FFEBCC"/>
<path d="M117.77 61.7352L114.732 53.7231L122.741 50.8591L125.347 58.8164L117.77 61.7352Z" fill="#FFEBCC"/>
<path d="M123.073 169.366L120.035 161.353L128.044 158.489L130.65 166.447L123.073 169.366Z" fill="#FFEBCC"/>
<path d="M115.224 186.538L112.186 178.526L120.195 175.662L122.801 183.619L115.224 186.538Z" fill="#FFEBCC"/>
<path d="M138.772 135.02L135.734 127.008L143.743 124.144L146.349 132.101L138.772 135.02Z" fill="#FFEBCC"/>
<path d="M130.922 152.192L127.884 144.18L135.894 141.316L138.5 149.273L130.922 152.192Z" fill="#FFEBCC"/>
<path d="M100.725 158.642L97.6867 150.63L105.696 147.766L108.302 155.724L100.725 158.642Z" fill="#FFEBCC"/>
<path d="M92.8754 175.815L89.8374 167.803L97.8466 164.939L100.453 172.896L92.8754 175.815Z" fill="#FFEBCC"/>
<path d="M116.423 124.297L113.385 116.285L121.394 113.421L124.001 121.378L116.423 124.297Z" fill="#FFEBCC"/>
<path d="M108.574 141.469L105.536 133.457L113.545 130.593L116.151 138.55L108.574 141.469Z" fill="#FFEBCC"/>
<path d="M78.3765 147.919L75.3385 139.907L83.3477 137.043L85.9539 145L78.3765 147.919Z" fill="#FFEBCC"/>
<path d="M70.5285 165.093L67.4905 157.081L75.4997 154.217L78.1059 162.174L70.5285 165.093Z" fill="#FFEBCC"/>
<path d="M94.0751 113.574L91.0371 105.562L99.0463 102.698L101.652 110.655L94.0751 113.574Z" fill="#FFEBCC"/>
<path d="M86.2258 130.747L83.1878 122.735L91.197 119.871L93.8032 127.828L86.2258 130.747Z" fill="#FFEBCC"/>
<path d="M90.027 69.3631L86.989 61.351L94.9982 58.487L97.6044 66.4443L90.027 69.3631Z" fill="#FFEBCC"/>
<path d="M82.1775 86.535L79.1395 78.5229L87.1487 75.6589L89.7549 83.6162L82.1775 86.535Z" fill="#FFEBCC"/>
<path d="M105.726 35.0179L102.688 27.0058L110.697 24.1418L113.303 32.0991L105.726 35.0179Z" fill="#FFEBCC"/>
<path d="M97.8763 52.1902L94.8383 44.1782L102.847 41.3142L105.454 49.2715L97.8763 52.1902Z" fill="#FFEBCC"/>
<path d="M67.6786 58.6399L64.6406 50.6279L72.6498 47.7639L75.256 55.7212L67.6786 58.6399Z" fill="#FFEBCC"/>
<path d="M59.8293 75.8128L56.7913 67.8007L64.8005 64.9367L67.4067 72.894L59.8293 75.8128Z" fill="#FFEBCC"/>
<path d="M83.3772 24.2942L80.3392 16.2822L88.3484 13.4182L90.9546 21.3755L83.3772 24.2942Z" fill="#FFEBCC"/>
<path d="M75.5279 41.4671L72.4899 33.455L80.4991 30.591L83.1053 38.5483L75.5279 41.4671Z" fill="#FFEBCC"/>
<path d="M45.3304 47.9173L42.2924 39.9052L50.3016 37.0412L52.9078 44.9985L45.3304 47.9173Z" fill="#FFEBCC"/>
<path d="M37.4815 65.0901L34.4435 57.0781L42.4527 54.2141L45.0589 62.1714L37.4815 65.0901Z" fill="#FFEBCC"/>
<path d="M53.1797 30.7444L50.1417 22.7324L58.1509 19.8684L60.7571 27.8257L53.1797 30.7444Z" fill="#FFEBCC"/>
<path d="M58.483 138.375L55.445 130.363L63.4543 127.499L66.0604 135.457L58.483 138.375Z" fill="#FFEBCC"/>
<path d="M50.6338 155.547L47.5958 147.535L55.605 144.671L58.2112 152.628L50.6338 155.547Z" fill="#FFEBCC"/>
<path d="M74.1818 104.029L71.1438 96.0171L79.153 93.153L81.7592 101.11L74.1818 104.029Z" fill="#FFEBCC"/>
<path d="M66.3325 121.202L63.2945 113.19L71.3037 110.326L73.9099 118.283L66.3325 121.202Z" fill="#FFEBCC"/>
<path d="M36.1349 127.652L33.0969 119.64L41.1061 116.776L43.7123 124.733L36.1349 127.652Z" fill="#FFEBCC"/>
<path d="M28.2856 144.824L25.2476 136.812L33.2568 133.948L35.863 141.905L28.2856 144.824Z" fill="#FFEBCC"/>
<path d="M51.8334 93.306L48.7954 85.2939L56.8047 82.4299L59.4109 90.3872L51.8334 93.306Z" fill="#FFEBCC"/>
<path d="M43.9842 110.479L40.9462 102.467L48.9554 99.6028L51.5616 107.56L43.9842 110.479Z" fill="#FFEBCC"/>
<path d="M13.7867 116.929L10.7487 108.917L18.7579 106.053L21.3641 114.01L13.7867 116.929Z" fill="#FFEBCC"/>
<path d="M29.4853 82.5838L26.4473 74.5717L34.4565 71.7077L37.0627 79.665L29.4853 82.5838Z" fill="#FFEBCC"/>
<path d="M21.636 99.7561L18.598 91.7441L26.6072 88.8801L29.2134 96.8374L21.636 99.7561Z" fill="#FFEBCC"/>
</g>
</svg>
