<svg xmlns="http://www.w3.org/2000/svg" viewBox="0 0 141 144" width="141" height="144">
	<style>
		tspan { white-space:pre }
		.shp0 { fill: #ffebcc } 
	</style>
	<g id="Layer" style="opacity: 0.4">
		<path id="Layer" class="shp0" d="M154.62 100.35L151.58 92.34L159.59 89.48L162.19 97.43L154.62 100.35Z" />
		<path id="Layer" class="shp0" d="M146.77 117.53L143.73 109.51L151.74 106.65L154.34 114.61L146.77 117.53Z" />
		<path id="Layer" class="shp0" d="M170.31 66.01L167.28 58L175.29 55.13L177.89 63.09L170.31 66.01Z" />
		<path id="Layer" class="shp0" d="M162.47 83.18L159.43 75.17L167.44 72.3L170.04 80.26L162.47 83.18Z" />
		<path id="Layer" class="shp0" d="M132.27 89.63L129.23 81.62L137.24 78.75L139.85 86.71L132.27 89.63Z" />
		<path id="Layer" class="shp0" d="M124.42 106.8L121.38 98.79L129.39 95.93L132 103.89L124.42 106.8Z" />
		<path id="Layer" class="shp0" d="M147.97 55.28L144.93 47.27L152.94 44.41L155.54 52.37L147.97 55.28Z" />
		<path id="Layer" class="shp0" d="M140.12 72.46L137.08 64.45L145.09 61.58L147.69 69.54L140.12 72.46Z" />
		<path id="Layer" class="shp0" d="M109.92 78.91L106.88 70.89L114.89 68.03L117.5 75.99L109.92 78.91Z" />
		<path id="Layer" class="shp0" d="M102.07 96.08L99.03 88.07L107.04 85.2L109.65 93.16L102.07 96.08Z" />
		<path id="Layer" class="shp0" d="M125.62 44.56L122.58 36.55L130.59 33.69L133.2 41.64L125.62 44.56Z" />
		<path id="Layer" class="shp0" d="M117.77 61.74L114.73 53.72L122.74 50.86L125.35 58.82L117.77 61.74Z" />
		<path id="Layer" class="shp0" d="M123.07 169.37L120.03 161.35L128.04 158.49L130.65 166.45L123.07 169.37Z" />
		<path id="Layer" class="shp0" d="M115.22 186.54L112.19 178.53L120.19 175.66L122.8 183.62L115.22 186.54Z" />
		<path id="Layer" class="shp0" d="M138.77 135.02L135.73 127.01L143.74 124.14L146.35 132.1L138.77 135.02Z" />
		<path id="Layer" class="shp0" d="M130.92 152.19L127.88 144.18L135.89 141.32L138.5 149.27L130.92 152.19Z" />
		<path id="Layer" class="shp0" d="M100.72 158.64L97.69 150.63L105.7 147.77L108.3 155.72L100.72 158.64Z" />
		<path id="Layer" class="shp0" d="M92.88 175.81L89.84 167.8L97.85 164.94L100.45 172.9L92.88 175.81Z" />
		<path id="Layer" class="shp0" d="M116.42 124.3L113.39 116.28L121.39 113.42L124 121.38L116.42 124.3Z" />
		<path id="Layer" class="shp0" d="M108.57 141.47L105.54 133.46L113.55 130.59L116.15 138.55L108.57 141.47Z" />
		<path id="Layer" class="shp0" d="M78.38 147.92L75.34 139.91L83.35 137.04L85.95 145L78.38 147.92Z" />
		<path id="Layer" class="shp0" d="M70.53 165.09L67.49 157.08L75.5 154.22L78.11 162.17L70.53 165.09Z" />
		<path id="Layer" class="shp0" d="M94.08 113.57L91.04 105.56L99.05 102.7L101.65 110.66L94.08 113.57Z" />
		<path id="Layer" class="shp0" d="M86.23 130.75L83.19 122.73L91.2 119.87L93.8 127.83L86.23 130.75Z" />
		<path id="Layer" class="shp0" d="M90.03 69.36L86.99 61.35L95 58.49L97.6 66.44L90.03 69.36Z" />
		<path id="Layer" class="shp0" d="M82.18 86.53L79.14 78.52L87.15 75.66L89.75 83.62L82.18 86.53Z" />
		<path id="Layer" class="shp0" d="M105.73 35.02L102.69 27.01L110.7 24.14L113.3 32.1L105.73 35.02Z" />
		<path id="Layer" class="shp0" d="M97.88 52.19L94.84 44.18L102.85 41.31L105.45 49.27L97.88 52.19Z" />
		<path id="Layer" class="shp0" d="M67.68 58.64L64.64 50.63L72.65 47.76L75.26 55.72L67.68 58.64Z" />
		<path id="Layer" class="shp0" d="M59.83 75.81L56.79 67.8L64.8 64.94L67.41 72.89L59.83 75.81Z" />
		<path id="Layer" class="shp0" d="M83.38 24.29L80.34 16.28L88.35 13.42L90.95 21.38L83.38 24.29Z" />
		<path id="Layer" class="shp0" d="M75.53 41.47L72.49 33.45L80.5 30.59L83.11 38.55L75.53 41.47Z" />
		<path id="Layer" class="shp0" d="M45.33 47.92L42.29 39.91L50.3 37.04L52.91 45L45.33 47.92Z" />
		<path id="Layer" class="shp0" d="M37.48 65.09L34.44 57.08L42.45 54.21L45.06 62.17L37.48 65.09Z" />
		<path id="Layer" class="shp0" d="M53.18 30.74L50.14 22.73L58.15 19.87L60.76 27.83L53.18 30.74Z" />
		<path id="Layer" class="shp0" d="M58.48 138.38L55.45 130.36L63.45 127.5L66.06 135.46L58.48 138.38Z" />
		<path id="Layer" class="shp0" d="M50.63 155.55L47.6 147.53L55.6 144.67L58.21 152.63L50.63 155.55Z" />
		<path id="Layer" class="shp0" d="M74.18 104.03L71.14 96.02L79.15 93.15L81.76 101.11L74.18 104.03Z" />
		<path id="Layer" class="shp0" d="M66.33 121.2L63.29 113.19L71.3 110.33L73.91 118.28L66.33 121.2Z" />
		<path id="Layer" class="shp0" d="M36.13 127.65L33.1 119.64L41.11 116.78L43.71 124.73L36.13 127.65Z" />
		<path id="Layer" class="shp0" d="M28.29 144.82L25.25 136.81L33.26 133.95L35.86 141.91L28.29 144.82Z" />
		<path id="Layer" class="shp0" d="M51.83 93.31L48.8 85.29L56.8 82.43L59.41 90.39L51.83 93.31Z" />
		<path id="Layer" class="shp0" d="M43.98 110.48L40.95 102.47L48.96 99.6L51.56 107.56L43.98 110.48Z" />
		<path id="Layer" class="shp0" d="M13.79 116.93L10.75 108.92L18.76 106.05L21.36 114.01L13.79 116.93Z" />
		<path id="Layer" class="shp0" d="M29.49 82.58L26.45 74.57L34.46 71.71L37.06 79.67L29.49 82.58Z" />
		<path id="Layer" class="shp0" d="M21.64 99.76L18.6 91.74L26.61 88.88L29.21 96.84L21.64 99.76Z" />
	</g>
</svg>