<svg xmlns="http://www.w3.org/2000/svg" viewBox="0 0 376 386" width="376" height="386">
	<style>
		tspan { white-space:pre }
		.shp0 { fill: #2c4052 } 
		.shp1 { fill: #ffebcc } 
	</style>
	<path id="Layer" class="shp0" d="M10 0L364 0C369.53 0 374 4.47 374 10L374 373C374 378.53 369.53 383 364 383L10 383C4.47 383 0 378.53 0 373L0 10C0 4.47 4.47 0 10 0Z" />
	<g id="Layer" style="opacity: 0.4">
		<path id="Layer" class="shp1" d="M386.62 338.35L383.58 330.34L391.59 327.48L394.19 335.44L386.62 338.35Z" />
		<path id="Layer" class="shp1" d="M378.77 355.53L375.73 347.51L383.74 344.65L386.35 352.61L378.77 355.53Z" />
		<path id="Layer" class="shp1" d="M402.31 304.01L399.28 296L407.29 293.13L409.89 301.09L402.31 304.01Z" />
		<path id="Layer" class="shp1" d="M394.47 321.18L391.43 313.17L399.44 310.3L402.04 318.26L394.47 321.18Z" />
		<path id="Layer" class="shp1" d="M364.27 327.63L361.23 319.62L369.24 316.75L371.85 324.71L364.27 327.63Z" />
		<path id="Layer" class="shp1" d="M356.42 344.8L353.38 336.79L361.39 333.93L364 341.88L356.42 344.8Z" />
		<path id="Layer" class="shp1" d="M379.97 293.29L376.93 285.27L384.94 282.41L387.54 290.37L379.97 293.29Z" />
		<path id="Layer" class="shp1" d="M372.12 310.46L369.08 302.45L377.09 299.58L379.69 307.54L372.12 310.46Z" />
		<path id="Layer" class="shp1" d="M341.92 316.91L338.88 308.89L346.89 306.03L349.5 313.99L341.92 316.91Z" />
		<path id="Layer" class="shp1" d="M334.07 334.08L331.03 326.07L339.04 323.2L341.65 331.16L334.07 334.08Z" />
		<path id="Layer" class="shp1" d="M357.62 282.56L354.58 274.55L362.59 271.69L365.2 279.64L357.62 282.56Z" />
		<path id="Layer" class="shp1" d="M349.77 299.74L346.73 291.72L354.74 288.86L357.35 296.82L349.77 299.74Z" />
		<path id="Layer" class="shp1" d="M355.07 407.37L352.04 399.35L360.04 396.49L362.65 404.45L355.07 407.37Z" />
		<path id="Layer" class="shp1" d="M347.22 424.54L344.19 416.53L352.19 413.66L354.8 421.62L347.22 424.54Z" />
		<path id="Layer" class="shp1" d="M370.77 373.02L367.73 365.01L375.74 362.14L378.35 370.1L370.77 373.02Z" />
		<path id="Layer" class="shp1" d="M362.92 390.19L359.88 382.18L367.89 379.32L370.5 387.27L362.92 390.19Z" />
		<path id="Layer" class="shp1" d="M332.73 396.64L329.69 388.63L337.7 385.77L340.3 393.72L332.73 396.64Z" />
		<path id="Layer" class="shp1" d="M324.88 413.81L321.84 405.8L329.85 402.94L332.45 410.9L324.88 413.81Z" />
		<path id="Layer" class="shp1" d="M348.42 362.3L345.38 354.29L353.39 351.42L356 359.38L348.42 362.3Z" />
		<path id="Layer" class="shp1" d="M340.57 379.47L337.54 371.46L345.55 368.59L348.15 376.55L340.57 379.47Z" />
		<path id="Layer" class="shp1" d="M310.38 385.92L307.34 377.91L315.35 375.04L317.95 383L310.38 385.92Z" />
		<path id="Layer" class="shp1" d="M302.53 403.09L299.49 395.08L307.5 392.22L310.11 400.17L302.53 403.09Z" />
		<path id="Layer" class="shp1" d="M326.07 351.57L323.04 343.56L331.05 340.7L333.65 348.65L326.07 351.57Z" />
		<path id="Layer" class="shp1" d="M318.23 368.75L315.19 360.74L323.2 357.87L325.8 365.83L318.23 368.75Z" />
		<path id="Layer" class="shp1" d="M322.03 307.36L318.99 299.35L327 296.49L329.6 304.44L322.03 307.36Z" />
		<path id="Layer" class="shp1" d="M314.18 324.54L311.14 316.52L319.15 313.66L321.75 321.62L314.18 324.54Z" />
		<path id="Layer" class="shp1" d="M337.73 273.02L334.69 265.01L342.7 262.14L345.3 270.1L337.73 273.02Z" />
		<path id="Layer" class="shp1" d="M329.88 290.19L326.84 282.18L334.85 279.31L337.45 287.27L329.88 290.19Z" />
		<path id="Layer" class="shp1" d="M299.68 296.64L296.64 288.63L304.65 285.76L307.26 293.72L299.68 296.64Z" />
		<path id="Layer" class="shp1" d="M291.83 313.81L288.79 305.8L296.8 302.94L299.41 310.89L291.83 313.81Z" />
		<path id="Layer" class="shp1" d="M315.38 262.29L312.34 254.28L320.35 251.42L322.95 259.38L315.38 262.29Z" />
		<path id="Layer" class="shp1" d="M307.53 279.47L304.49 271.45L312.5 268.59L315.11 276.55L307.53 279.47Z" />
		<path id="Layer" class="shp1" d="M277.33 285.92L274.29 277.9L282.3 275.04L284.91 283L277.33 285.92Z" />
		<path id="Layer" class="shp1" d="M269.48 303.09L266.44 295.08L274.45 292.21L277.06 300.17L269.48 303.09Z" />
		<path id="Layer" class="shp1" d="M285.18 268.74L282.14 260.73L290.15 257.87L292.76 265.83L285.18 268.74Z" />
		<path id="Layer" class="shp1" d="M290.48 376.38L287.44 368.36L295.45 365.5L298.06 373.46L290.48 376.38Z" />
		<path id="Layer" class="shp1" d="M282.63 393.55L279.6 385.54L287.61 382.67L290.21 390.63L282.63 393.55Z" />
		<path id="Layer" class="shp1" d="M306.18 342.03L303.14 334.02L311.15 331.15L313.76 339.11L306.18 342.03Z" />
		<path id="Layer" class="shp1" d="M298.33 359.2L295.3 351.19L303.3 348.33L305.91 356.28L298.33 359.2Z" />
		<path id="Layer" class="shp1" d="M268.13 365.65L265.1 357.64L273.11 354.78L275.71 362.73L268.13 365.65Z" />
		<path id="Layer" class="shp1" d="M260.29 382.82L257.25 374.81L265.26 371.95L267.86 379.9L260.29 382.82Z" />
		<path id="Layer" class="shp1" d="M283.83 331.31L280.8 323.29L288.81 320.43L291.41 328.39L283.83 331.31Z" />
		<path id="Layer" class="shp1" d="M275.98 348.48L272.95 340.47L280.95 337.6L283.56 345.56L275.98 348.48Z" />
		<path id="Layer" class="shp1" d="M245.79 354.93L242.75 346.92L250.76 344.05L253.36 352.01L245.79 354.93Z" />
		<path id="Layer" class="shp1" d="M261.49 320.58L258.45 312.57L266.46 309.71L269.06 317.67L261.49 320.58Z" />
		<path id="Layer" class="shp1" d="M253.64 337.76L250.6 329.74L258.61 326.88L261.21 334.84L253.64 337.76Z" />
	</g>
</svg>