<svg width="225" height="275" viewBox="0 0 225 275" fill="none" xmlns="http://www.w3.org/2000/svg">
<g filter="url(#filter0_d)">
<path fill-rule="evenodd" clip-rule="evenodd" d="M11 0C6.02944 0 2 4.02944 2 9V26V120V252C2 256.971 6.02943 261 11 261H206C210.971 261 215 256.971 215 252V120V26V9C215 4.02944 210.971 0 206 0H11Z" fill="#BD4C5F"/>
<path d="M60.1738 246.248C60.1738 246.846 59.9512 247.307 59.5059 247.631C59.0605 247.955 58.4355 248.117 57.6309 248.117C56.7793 248.117 56.1152 247.982 55.6387 247.713V246.811C55.9473 246.967 56.2773 247.09 56.6289 247.18C56.9844 247.27 57.3262 247.314 57.6543 247.314C58.1621 247.314 58.5527 247.234 58.8262 247.074C59.0996 246.91 59.2363 246.662 59.2363 246.33C59.2363 246.08 59.127 245.867 58.9082 245.691C58.6934 245.512 58.2715 245.301 57.6426 245.059C57.0449 244.836 56.6191 244.643 56.3652 244.479C56.1152 244.311 55.9277 244.121 55.8027 243.91C55.6816 243.699 55.6211 243.447 55.6211 243.154C55.6211 242.631 55.834 242.219 56.2598 241.918C56.6855 241.613 57.2695 241.461 58.0117 241.461C58.7031 241.461 59.3789 241.602 60.0391 241.883L59.6934 242.674C59.0488 242.408 58.4648 242.275 57.9414 242.275C57.4805 242.275 57.1328 242.348 56.8984 242.492C56.6641 242.637 56.5469 242.836 56.5469 243.09C56.5469 243.262 56.5898 243.408 56.6758 243.529C56.7656 243.65 56.9082 243.766 57.1035 243.875C57.2988 243.984 57.6738 244.143 58.2285 244.35C58.9902 244.627 59.5039 244.906 59.7695 245.188C60.0391 245.469 60.1738 245.822 60.1738 246.248ZM64.7146 248.117C63.7654 248.117 63.0154 247.828 62.4646 247.25C61.9177 246.672 61.6443 245.869 61.6443 244.842C61.6443 243.807 61.8982 242.984 62.406 242.375C62.9177 241.766 63.6033 241.461 64.4627 241.461C65.2673 241.461 65.9041 241.727 66.3728 242.258C66.8416 242.785 67.0759 243.482 67.0759 244.35V244.965H62.6521C62.6716 245.719 62.8611 246.291 63.2205 246.682C63.5837 247.072 64.0935 247.268 64.7498 247.268C65.4412 247.268 66.1248 247.123 66.8005 246.834V247.701C66.4568 247.85 66.1306 247.955 65.822 248.018C65.5173 248.084 65.1482 248.117 64.7146 248.117ZM64.4509 242.275C63.9353 242.275 63.5232 242.443 63.2146 242.779C62.9099 243.115 62.7302 243.58 62.6755 244.174H66.033C66.033 243.561 65.8962 243.092 65.6228 242.768C65.3494 242.439 64.9587 242.275 64.4509 242.275ZM71.6929 248.117C70.7437 248.117 69.9937 247.828 69.4429 247.25C68.896 246.672 68.6226 245.869 68.6226 244.842C68.6226 243.807 68.8765 242.984 69.3843 242.375C69.896 241.766 70.5816 241.461 71.4409 241.461C72.2456 241.461 72.8823 241.727 73.3511 242.258C73.8198 242.785 74.0542 243.482 74.0542 244.35V244.965H69.6304C69.6499 245.719 69.8394 246.291 70.1987 246.682C70.562 247.072 71.0718 247.268 71.728 247.268C72.4195 247.268 73.103 247.123 73.7788 246.834V247.701C73.4351 247.85 73.1089 247.955 72.8003 248.018C72.4956 248.084 72.1265 248.117 71.6929 248.117ZM71.4292 242.275C70.9136 242.275 70.5015 242.443 70.1929 242.779C69.8882 243.115 69.7085 243.58 69.6538 244.174H73.0112C73.0112 243.561 72.8745 243.092 72.6011 242.768C72.3277 242.439 71.937 242.275 71.4292 242.275ZM83.2647 248L83.0713 247.086H83.0245C82.7041 247.488 82.3838 247.762 82.0635 247.906C81.7471 248.047 81.3506 248.117 80.8741 248.117C80.2373 248.117 79.7373 247.953 79.3741 247.625C79.0147 247.297 78.835 246.83 78.835 246.225C78.835 244.928 79.8721 244.248 81.9463 244.186L83.0362 244.15V243.752C83.0362 243.248 82.9268 242.877 82.708 242.639C82.4932 242.396 82.1475 242.275 81.6709 242.275C81.1358 242.275 80.5303 242.439 79.8545 242.768L79.5557 242.023C79.8721 241.852 80.2178 241.717 80.5928 241.619C80.9717 241.521 81.3506 241.473 81.7295 241.473C82.4952 241.473 83.0616 241.643 83.4287 241.982C83.7998 242.322 83.9854 242.867 83.9854 243.617V248H83.2647ZM81.0674 247.314C81.6729 247.314 82.1475 247.148 82.4912 246.816C82.8389 246.484 83.0127 246.02 83.0127 245.422V244.842L82.0401 244.883C81.2666 244.91 80.708 245.031 80.3643 245.246C80.0245 245.457 79.8545 245.787 79.8545 246.236C79.8545 246.588 79.96 246.855 80.1709 247.039C80.3858 247.223 80.6846 247.314 81.0674 247.314ZM90.6297 248V243.846C90.6297 243.322 90.5105 242.932 90.2723 242.674C90.034 242.416 89.6609 242.287 89.1531 242.287C88.4813 242.287 87.9891 242.469 87.6766 242.832C87.3641 243.195 87.2078 243.795 87.2078 244.631V248H86.2352V241.578H87.0262L87.1844 242.457H87.2313C87.4305 242.141 87.7098 241.896 88.0691 241.725C88.4285 241.549 88.8289 241.461 89.2703 241.461C90.0438 241.461 90.6258 241.648 91.0164 242.023C91.407 242.395 91.6023 242.99 91.6023 243.811V248H90.6297ZM98.2408 248V243.846C98.2408 243.322 98.1216 242.932 97.8834 242.674C97.6451 242.416 97.272 242.287 96.7642 242.287C96.0923 242.287 95.6002 242.469 95.2877 242.832C94.9752 243.195 94.8189 243.795 94.8189 244.631V248H93.8462V241.578H94.6373L94.7955 242.457H94.8423C95.0416 242.141 95.3209 241.896 95.6802 241.725C96.0396 241.549 96.44 241.461 96.8814 241.461C97.6548 241.461 98.2369 241.648 98.6275 242.023C99.0181 242.395 99.2134 242.99 99.2134 243.811V248H98.2408ZM102.371 241.578V245.744C102.371 246.268 102.491 246.658 102.729 246.916C102.967 247.174 103.34 247.303 103.848 247.303C104.52 247.303 105.01 247.119 105.319 246.752C105.631 246.385 105.787 245.785 105.787 244.953V241.578H106.76V248H105.957L105.817 247.139H105.764C105.565 247.455 105.287 247.697 104.932 247.865C104.58 248.033 104.178 248.117 103.725 248.117C102.944 248.117 102.358 247.932 101.967 247.561C101.58 247.189 101.387 246.596 101.387 245.779V241.578H102.371ZM113.018 248L112.824 247.086H112.777C112.457 247.488 112.137 247.762 111.816 247.906C111.5 248.047 111.104 248.117 110.627 248.117C109.99 248.117 109.49 247.953 109.127 247.625C108.768 247.297 108.588 246.83 108.588 246.225C108.588 244.928 109.625 244.248 111.699 244.186L112.789 244.15V243.752C112.789 243.248 112.68 242.877 112.461 242.639C112.246 242.396 111.9 242.275 111.424 242.275C110.889 242.275 110.283 242.439 109.607 242.768L109.309 242.023C109.625 241.852 109.971 241.717 110.346 241.619C110.725 241.521 111.104 241.473 111.482 241.473C112.248 241.473 112.815 241.643 113.182 241.982C113.553 242.322 113.738 242.867 113.738 243.617V248H113.018ZM110.82 247.314C111.426 247.314 111.9 247.148 112.244 246.816C112.592 246.484 112.766 246.02 112.766 245.422V244.842L111.793 244.883C111.02 244.91 110.461 245.031 110.117 245.246C109.777 245.457 109.607 245.787 109.607 246.236C109.607 246.588 109.713 246.855 109.924 247.039C110.139 247.223 110.438 247.314 110.82 247.314ZM116.961 248H115.988V238.883H116.961V248ZM125.609 248.117C125.191 248.117 124.808 248.041 124.46 247.889C124.117 247.732 123.827 247.494 123.593 247.174H123.523C123.57 247.549 123.593 247.904 123.593 248.24V250.883H122.62V241.578H123.411L123.546 242.457H123.593C123.843 242.105 124.134 241.852 124.466 241.695C124.798 241.539 125.179 241.461 125.609 241.461C126.46 241.461 127.117 241.752 127.577 242.334C128.042 242.916 128.275 243.732 128.275 244.783C128.275 245.838 128.038 246.658 127.566 247.244C127.097 247.826 126.445 248.117 125.609 248.117ZM125.468 242.287C124.812 242.287 124.337 242.469 124.044 242.832C123.751 243.195 123.601 243.773 123.593 244.566V244.783C123.593 245.686 123.744 246.332 124.044 246.723C124.345 247.109 124.827 247.303 125.492 247.303C126.046 247.303 126.48 247.078 126.792 246.629C127.109 246.18 127.267 245.561 127.267 244.771C127.267 243.971 127.109 243.357 126.792 242.932C126.48 242.502 126.038 242.287 125.468 242.287ZM133.15 241.461C133.435 241.461 133.691 241.484 133.917 241.531L133.782 242.434C133.517 242.375 133.282 242.346 133.079 242.346C132.56 242.346 132.114 242.557 131.743 242.979C131.376 243.4 131.192 243.926 131.192 244.555V248H130.22V241.578H131.023L131.134 242.768H131.181C131.419 242.35 131.706 242.027 132.042 241.801C132.378 241.574 132.747 241.461 133.15 241.461ZM136.331 248H135.358V241.578H136.331V248ZM135.276 239.838C135.276 239.615 135.331 239.453 135.44 239.352C135.55 239.246 135.686 239.193 135.85 239.193C136.007 239.193 136.141 239.246 136.255 239.352C136.368 239.457 136.425 239.619 136.425 239.838C136.425 240.057 136.368 240.221 136.255 240.33C136.141 240.436 136.007 240.488 135.85 240.488C135.686 240.488 135.55 240.436 135.44 240.33C135.331 240.221 135.276 240.057 135.276 239.838ZM141.2 248.117C140.27 248.117 139.549 247.832 139.038 247.262C138.53 246.688 138.276 245.877 138.276 244.83C138.276 243.756 138.534 242.926 139.049 242.34C139.569 241.754 140.307 241.461 141.264 241.461C141.573 241.461 141.881 241.494 142.19 241.561C142.499 241.627 142.741 241.705 142.917 241.795L142.618 242.621C142.403 242.535 142.169 242.465 141.915 242.41C141.661 242.352 141.436 242.322 141.241 242.322C139.936 242.322 139.284 243.154 139.284 244.818C139.284 245.607 139.442 246.213 139.758 246.635C140.079 247.057 140.551 247.268 141.176 247.268C141.712 247.268 142.26 247.152 142.823 246.922V247.783C142.393 248.006 141.852 248.117 141.2 248.117ZM145.565 248H144.592V241.578H145.565V248ZM144.51 239.838C144.51 239.615 144.565 239.453 144.674 239.352C144.784 239.246 144.92 239.193 145.084 239.193C145.241 239.193 145.375 239.246 145.489 239.352C145.602 239.457 145.659 239.619 145.659 239.838C145.659 240.057 145.602 240.221 145.489 240.33C145.375 240.436 145.241 240.488 145.084 240.488C144.92 240.488 144.784 240.436 144.674 240.33C144.565 240.221 144.51 240.057 144.51 239.838ZM152.262 248V243.846C152.262 243.322 152.143 242.932 151.904 242.674C151.666 242.416 151.293 242.287 150.785 242.287C150.113 242.287 149.621 242.469 149.309 242.832C148.996 243.195 148.84 243.795 148.84 244.631V248H147.867V241.578H148.658L148.817 242.457H148.863C149.063 242.141 149.342 241.896 149.701 241.725C150.061 241.549 150.461 241.461 150.902 241.461C151.676 241.461 152.258 241.648 152.649 242.023C153.039 242.395 153.235 242.99 153.235 243.811V248H152.262ZM160.734 241.578V242.193L159.545 242.334C159.654 242.471 159.752 242.65 159.838 242.873C159.924 243.092 159.967 243.34 159.967 243.617C159.967 244.246 159.752 244.748 159.322 245.123C158.893 245.498 158.303 245.686 157.553 245.686C157.361 245.686 157.182 245.67 157.014 245.639C156.6 245.857 156.393 246.133 156.393 246.465C156.393 246.641 156.465 246.771 156.609 246.857C156.754 246.939 157.002 246.98 157.353 246.98H158.49C159.185 246.98 159.719 247.127 160.09 247.42C160.465 247.713 160.652 248.139 160.652 248.697C160.652 249.408 160.367 249.949 159.797 250.32C159.226 250.695 158.394 250.883 157.301 250.883C156.461 250.883 155.812 250.727 155.355 250.414C154.902 250.102 154.676 249.66 154.676 249.09C154.676 248.699 154.801 248.361 155.051 248.076C155.301 247.791 155.652 247.598 156.105 247.496C155.941 247.422 155.803 247.307 155.689 247.15C155.58 246.994 155.525 246.812 155.525 246.605C155.525 246.371 155.588 246.166 155.713 245.99C155.838 245.814 156.035 245.645 156.305 245.48C155.973 245.344 155.701 245.111 155.49 244.783C155.283 244.455 155.18 244.08 155.18 243.658C155.18 242.955 155.391 242.414 155.812 242.035C156.234 241.652 156.832 241.461 157.605 241.461C157.941 241.461 158.244 241.5 158.514 241.578H160.734ZM155.613 249.078C155.613 249.426 155.76 249.689 156.053 249.869C156.346 250.049 156.766 250.139 157.312 250.139C158.129 250.139 158.732 250.016 159.123 249.77C159.518 249.527 159.715 249.197 159.715 248.779C159.715 248.432 159.607 248.189 159.393 248.053C159.178 247.92 158.773 247.854 158.18 247.854H157.014C156.572 247.854 156.228 247.959 155.982 248.17C155.736 248.381 155.613 248.684 155.613 249.078ZM156.141 243.635C156.141 244.084 156.268 244.424 156.521 244.654C156.775 244.885 157.129 245 157.582 245C158.531 245 159.006 244.539 159.006 243.617C159.006 242.652 158.525 242.17 157.564 242.17C157.107 242.17 156.756 242.293 156.51 242.539C156.264 242.785 156.141 243.15 156.141 243.635Z" fill="white"/>
<path d="M2 9C2 4.02944 6.02944 0 11 0H206C210.971 0 215 4.02944 215 9V25H2V9Z" fill="#B5495B"/>
<rect x="2" y="129" width="213" height="92" fill="white"/>
<path d="M109.403 135L100 128H118L109.403 135Z" fill="#BD4C5F"/>
<path d="M109.313 228L102 221H116L109.313 228Z" fill="white"/>
<path d="M53.1289 80.7695H49.2812V87H44.8086V80.7695H31.7617V77.2344L44.8086 58.3672H49.2812V76.9609H53.1289V80.7695ZM44.8086 76.9609V69.793C44.8086 67.2409 44.8737 65.151 45.0039 63.5234H44.8477C44.4831 64.3828 43.9102 65.4245 43.1289 66.6484L36.0391 76.9609H44.8086ZM66.0578 58.0742C68.7661 58.0742 70.9081 58.6992 72.4836 59.9492C74.0591 61.1862 74.8469 62.8464 74.8469 64.9297C74.8469 67.8594 73.0891 70.1901 69.5734 71.9219C71.813 73.0417 73.4016 74.2201 74.3391 75.457C75.2896 76.694 75.7648 78.0742 75.7648 79.5977C75.7648 81.9544 74.899 83.8424 73.1672 85.2617C71.4354 86.681 69.0917 87.3906 66.1359 87.3906C63.037 87.3906 60.6346 86.7266 58.9289 85.3984C57.2232 84.0703 56.3703 82.1888 56.3703 79.7539C56.3703 78.1654 56.813 76.7396 57.6984 75.4766C58.5969 74.2005 60.0617 73.0677 62.093 72.0781C60.3482 71.0365 59.1047 69.9362 58.3625 68.7773C57.6203 67.6185 57.2492 66.3164 57.2492 64.8711C57.2492 62.8008 58.063 61.1536 59.6906 59.9297C61.3182 58.6927 63.4406 58.0742 66.0578 58.0742ZM60.7648 79.5977C60.7648 80.9518 61.2401 82.0065 62.1906 82.7617C63.1411 83.5039 64.4302 83.875 66.0578 83.875C67.7375 83.875 69.0396 83.4909 69.9641 82.7227C70.9016 81.9414 71.3703 80.8867 71.3703 79.5586C71.3703 78.5039 70.9406 77.5404 70.0812 76.668C69.2219 75.7956 67.9198 74.9883 66.175 74.2461L65.6086 73.9922C63.8898 74.7474 62.6529 75.5807 61.8977 76.4922C61.1424 77.3906 60.7648 78.4258 60.7648 79.5977ZM66.0187 61.6094C64.7167 61.6094 63.6685 61.9349 62.8742 62.5859C62.0799 63.224 61.6828 64.0964 61.6828 65.2031C61.6828 65.8802 61.826 66.4857 62.1125 67.0195C62.399 67.5534 62.8156 68.0417 63.3625 68.4844C63.9094 68.9141 64.8339 69.4349 66.1359 70.0469C67.6984 69.3568 68.7987 68.6341 69.4367 67.8789C70.0878 67.1107 70.4133 66.2188 70.4133 65.2031C70.4133 64.0964 70.0096 63.224 69.2023 62.5859C68.4081 61.9349 67.3469 61.6094 66.0187 61.6094Z" fill="white"/>
<path d="M35.6982 105.088C35.001 105.088 34.4604 104.874 34.0767 104.446C33.6958 104.016 33.5054 103.408 33.5054 102.623C33.5054 101.817 33.6987 101.194 34.0854 100.755C34.4751 100.315 35.0288 100.096 35.7466 100.096C35.978 100.096 36.2095 100.121 36.4409 100.17C36.6724 100.22 36.854 100.279 36.9858 100.346L36.7617 100.966C36.6006 100.901 36.4248 100.849 36.2344 100.808C36.0439 100.764 35.8755 100.742 35.729 100.742C34.7505 100.742 34.2612 101.366 34.2612 102.614C34.2612 103.206 34.3799 103.66 34.6172 103.976C34.8574 104.292 35.2119 104.451 35.6807 104.451C36.082 104.451 36.4937 104.364 36.9155 104.191V104.837C36.5933 105.004 36.1875 105.088 35.6982 105.088ZM41.2044 105L41.0594 104.314H41.0242C40.784 104.616 40.5438 104.821 40.3035 104.93C40.0662 105.035 39.7689 105.088 39.4114 105.088C38.9339 105.088 38.5589 104.965 38.2864 104.719C38.0169 104.473 37.8821 104.123 37.8821 103.668C37.8821 102.696 38.66 102.186 40.2156 102.139L41.033 102.113V101.814C41.033 101.436 40.951 101.158 40.7869 100.979C40.6258 100.797 40.3665 100.707 40.0091 100.707C39.6077 100.707 39.1536 100.83 38.6468 101.076L38.4227 100.518C38.66 100.389 38.9193 100.288 39.2005 100.214C39.4847 100.141 39.7689 100.104 40.053 100.104C40.6273 100.104 41.0521 100.232 41.3275 100.487C41.6058 100.742 41.7449 101.15 41.7449 101.713V105H41.2044ZM39.5565 104.486C40.0106 104.486 40.3665 104.361 40.6243 104.112C40.8851 103.863 41.0154 103.515 41.0154 103.066V102.631L40.286 102.662C39.7059 102.683 39.2869 102.773 39.0291 102.935C38.7742 103.093 38.6468 103.34 38.6468 103.677C38.6468 103.941 38.7259 104.142 38.8841 104.279C39.0452 104.417 39.2694 104.486 39.5565 104.486ZM45.6295 100.096C45.8434 100.096 46.0353 100.113 46.2052 100.148L46.1041 100.825C45.9049 100.781 45.7291 100.759 45.5768 100.759C45.1871 100.759 44.8532 100.917 44.5748 101.234C44.2995 101.55 44.1618 101.944 44.1618 102.416V105H43.4323V100.184H44.0343L44.1178 101.076H44.153C44.3317 100.762 44.547 100.521 44.799 100.351C45.0509 100.181 45.3278 100.096 45.6295 100.096ZM50.5644 104.354H50.5249C50.1879 104.843 49.684 105.088 49.0131 105.088C48.3833 105.088 47.8925 104.873 47.541 104.442C47.1923 104.011 47.018 103.399 47.018 102.605C47.018 101.811 47.1938 101.194 47.5454 100.755C47.8969 100.315 48.3862 100.096 49.0131 100.096C49.6665 100.096 50.1674 100.333 50.5161 100.808H50.5732L50.5424 100.46L50.5249 100.122V98.1621H51.2544V105H50.6611L50.5644 104.354ZM49.1054 104.477C49.6035 104.477 49.9638 104.342 50.1865 104.073C50.4121 103.8 50.5249 103.362 50.5249 102.759V102.605C50.5249 101.922 50.4106 101.436 50.1821 101.146C49.9565 100.853 49.5947 100.707 49.0966 100.707C48.6689 100.707 48.3408 100.874 48.1123 101.208C47.8867 101.539 47.7739 102.007 47.7739 102.614C47.7739 103.229 47.8867 103.693 48.1123 104.007C48.3379 104.32 48.6689 104.477 49.1054 104.477ZM56.0926 103.686C56.0926 104.134 55.9256 104.48 55.5916 104.723C55.2576 104.966 54.7888 105.088 54.1853 105.088C53.5467 105.088 53.0486 104.987 52.6912 104.785V104.108C52.9226 104.225 53.1702 104.317 53.4339 104.385C53.7005 104.452 53.9568 104.486 54.2029 104.486C54.5838 104.486 54.8767 104.426 55.0818 104.306C55.2869 104.183 55.3894 103.997 55.3894 103.748C55.3894 103.56 55.3074 103.4 55.1433 103.269C54.9822 103.134 54.6658 102.976 54.1941 102.794C53.7459 102.627 53.4265 102.482 53.2361 102.359C53.0486 102.233 52.908 102.091 52.8142 101.933C52.7234 101.774 52.678 101.585 52.678 101.366C52.678 100.973 52.8377 100.664 53.157 100.438C53.4763 100.21 53.9143 100.096 54.471 100.096C54.9895 100.096 55.4964 100.201 55.9915 100.412L55.7322 101.005C55.2488 100.806 54.8108 100.707 54.4182 100.707C54.0725 100.707 53.8118 100.761 53.636 100.869C53.4602 100.978 53.3723 101.127 53.3723 101.317C53.3723 101.446 53.4046 101.556 53.469 101.647C53.5364 101.738 53.6433 101.824 53.7898 101.906C53.9363 101.988 54.2176 102.107 54.6336 102.262C55.2049 102.47 55.5901 102.68 55.7893 102.891C55.9915 103.102 56.0926 103.367 56.0926 103.686ZM59.9024 98.5752L57.5074 105H56.7779L59.1729 98.5752H59.9024ZM60.1835 100.184H60.9657L62.0204 102.93C62.2519 103.557 62.3954 104.01 62.4511 104.288H62.4862C62.5243 104.139 62.6034 103.884 62.7236 103.523C62.8466 103.16 63.245 102.047 63.9189 100.184H64.7011L62.6313 105.668C62.4262 106.21 62.186 106.594 61.9106 106.819C61.6381 107.048 61.3027 107.162 60.9042 107.162C60.6816 107.162 60.4618 107.137 60.245 107.087V106.503C60.4062 106.538 60.5863 106.556 60.7856 106.556C61.2865 106.556 61.644 106.274 61.8578 105.712L62.1259 105.026L60.1835 100.184ZM67.698 105.088C66.9861 105.088 66.4236 104.871 66.0105 104.438C65.6003 104.004 65.3953 103.402 65.3953 102.631C65.3953 101.855 65.5857 101.238 65.9665 100.781C66.3503 100.324 66.8645 100.096 67.509 100.096C68.1125 100.096 68.5901 100.295 68.9416 100.693C69.2932 101.089 69.469 101.612 69.469 102.262V102.724H66.1511C66.1658 103.289 66.3079 103.718 66.5774 104.011C66.8498 104.304 67.2322 104.451 67.7244 104.451C68.2429 104.451 68.7556 104.342 69.2624 104.125V104.776C69.0046 104.887 68.76 104.966 68.5286 105.013C68.3 105.063 68.0232 105.088 67.698 105.088ZM67.5002 100.707C67.1135 100.707 66.8044 100.833 66.573 101.084C66.3445 101.336 66.2097 101.685 66.1687 102.13H68.6868C68.6868 101.67 68.5842 101.319 68.3791 101.076C68.1741 100.83 67.8811 100.707 67.5002 100.707ZM73.8589 105L73.7139 104.314H73.6788C73.4385 104.616 73.1983 104.821 72.9581 104.93C72.7208 105.035 72.4234 105.088 72.066 105.088C71.5884 105.088 71.2134 104.965 70.941 104.719C70.6714 104.473 70.5367 104.123 70.5367 103.668C70.5367 102.696 71.3145 102.186 72.8702 102.139L73.6876 102.113V101.814C73.6876 101.436 73.6055 101.158 73.4415 100.979C73.2803 100.797 73.0211 100.707 72.6636 100.707C72.2623 100.707 71.8082 100.83 71.3013 101.076L71.0772 100.518C71.3145 100.389 71.5738 100.288 71.855 100.214C72.1392 100.141 72.4234 100.104 72.7076 100.104C73.2818 100.104 73.7066 100.232 73.982 100.487C74.2603 100.742 74.3995 101.15 74.3995 101.713V105H73.8589ZM72.211 104.486C72.6651 104.486 73.0211 104.361 73.2789 104.112C73.5396 103.863 73.67 103.515 73.67 103.066V102.631L72.9405 102.662C72.3604 102.683 71.9415 102.773 71.6837 102.935C71.4288 103.093 71.3013 103.34 71.3013 103.677C71.3013 103.941 71.3804 104.142 71.5386 104.279C71.6998 104.417 71.9239 104.486 72.211 104.486ZM78.2841 100.096C78.4979 100.096 78.6898 100.113 78.8597 100.148L78.7587 100.825C78.5595 100.781 78.3837 100.759 78.2313 100.759C77.8417 100.759 77.5077 100.917 77.2294 101.234C76.954 101.55 76.8163 101.944 76.8163 102.416V105H76.0868V100.184H76.6888L76.7723 101.076H76.8075C76.9862 100.762 77.2015 100.521 77.4535 100.351C77.7054 100.181 77.9823 100.096 78.2841 100.096Z" fill="white"/>
<path d="M111.026 79.0513C111.026 80.0109 110.785 80.7611 110.301 81.3018C109.818 81.8389 109.15 82.1074 108.298 82.1074C107.771 82.1074 107.304 81.9839 106.896 81.7368C106.488 81.4897 106.173 81.1353 105.951 80.6733C105.729 80.2114 105.618 79.6707 105.618 79.0513C105.618 78.0916 105.858 77.3451 106.337 76.8115C106.817 76.2744 107.483 76.0059 108.335 76.0059C109.159 76.0059 109.812 76.2798 110.296 76.8276C110.783 77.3755 111.026 78.1167 111.026 79.0513ZM106.542 79.0513C106.542 79.8032 106.692 80.3761 106.993 80.77C107.293 81.1639 107.736 81.3608 108.319 81.3608C108.903 81.3608 109.345 81.1657 109.646 80.7754C109.95 80.3815 110.103 79.8068 110.103 79.0513C110.103 78.3029 109.95 77.7354 109.646 77.3486C109.345 76.9583 108.899 76.7632 108.309 76.7632C107.725 76.7632 107.285 76.9548 106.987 77.3379C106.69 77.721 106.542 78.2922 106.542 79.0513ZM115.5 76.0059C115.762 76.0059 115.996 76.0273 116.204 76.0703L116.08 76.8975C115.837 76.8438 115.622 76.8169 115.436 76.8169C114.96 76.8169 114.551 77.0103 114.211 77.397C113.875 77.7837 113.706 78.2653 113.706 78.8418V82H112.815V76.1133H113.551L113.653 77.2036H113.696C113.914 76.8205 114.177 76.5251 114.485 76.3174C114.793 76.1097 115.131 76.0059 115.5 76.0059Z" fill="white"/>
<path d="M105.913 204V200.867C105.913 200.483 105.831 200.196 105.667 200.005C105.502 199.812 105.248 199.715 104.902 199.715C104.448 199.715 104.112 199.846 103.896 200.106C103.679 200.367 103.57 200.769 103.57 201.311V204H102.841V200.867C102.841 200.483 102.759 200.196 102.595 200.005C102.431 199.812 102.174 199.715 101.826 199.715C101.369 199.715 101.033 199.853 100.819 200.128C100.608 200.401 100.503 200.849 100.503 201.473V204H99.7734V199.184H100.367L100.485 199.843H100.521C100.658 199.608 100.852 199.425 101.101 199.293C101.353 199.162 101.634 199.096 101.944 199.096C102.697 199.096 103.189 199.368 103.421 199.913H103.456C103.6 199.661 103.808 199.462 104.08 199.315C104.353 199.169 104.663 199.096 105.012 199.096C105.557 199.096 105.964 199.236 106.233 199.518C106.506 199.796 106.642 200.243 106.642 200.858V204H105.913ZM112.487 201.587C112.487 202.373 112.289 202.986 111.893 203.429C111.498 203.868 110.951 204.088 110.254 204.088C109.824 204.088 109.441 203.987 109.107 203.785C108.773 203.583 108.515 203.292 108.334 202.915C108.152 202.537 108.061 202.094 108.061 201.587C108.061 200.802 108.258 200.191 108.65 199.755C109.043 199.315 109.588 199.096 110.285 199.096C110.959 199.096 111.493 199.32 111.889 199.768C112.287 200.216 112.487 200.823 112.487 201.587ZM108.817 201.587C108.817 202.203 108.94 202.671 109.186 202.994C109.432 203.316 109.794 203.477 110.272 203.477C110.749 203.477 111.111 203.317 111.357 202.998C111.606 202.676 111.731 202.206 111.731 201.587C111.731 200.975 111.606 200.511 111.357 200.194C111.111 199.875 110.746 199.715 110.263 199.715C109.785 199.715 109.425 199.872 109.182 200.186C108.939 200.499 108.817 200.966 108.817 201.587ZM117.246 204V200.884C117.246 200.492 117.156 200.199 116.978 200.005C116.799 199.812 116.519 199.715 116.138 199.715C115.634 199.715 115.265 199.852 115.031 200.124C114.797 200.396 114.679 200.846 114.679 201.473V204H113.95V199.184H114.543L114.662 199.843H114.697C114.846 199.605 115.056 199.422 115.325 199.293C115.595 199.162 115.895 199.096 116.226 199.096C116.806 199.096 117.243 199.236 117.536 199.518C117.829 199.796 117.975 200.243 117.975 200.858V204H117.246ZM121.214 203.486C121.343 203.486 121.467 203.477 121.587 203.459C121.707 203.439 121.803 203.418 121.873 203.398V203.956C121.794 203.994 121.677 204.025 121.521 204.048C121.369 204.075 121.231 204.088 121.108 204.088C120.177 204.088 119.711 203.597 119.711 202.616V199.75H119.021V199.399L119.711 199.096L120.019 198.067H120.44V199.184H121.838V199.75H120.44V202.585C120.44 202.875 120.509 203.098 120.647 203.253C120.785 203.408 120.974 203.486 121.214 203.486ZM126.316 204V200.884C126.316 200.492 126.226 200.199 126.048 200.005C125.869 199.812 125.589 199.715 125.208 199.715C124.701 199.715 124.331 199.853 124.096 200.128C123.865 200.404 123.749 200.855 123.749 201.482V204H123.02V197.162H123.749V199.232C123.749 199.481 123.738 199.688 123.714 199.852H123.758C123.902 199.62 124.105 199.438 124.369 199.307C124.636 199.172 124.939 199.104 125.279 199.104C125.867 199.104 126.308 199.245 126.601 199.526C126.897 199.805 127.045 200.249 127.045 200.858V204H126.316Z" fill="#BD4C5F"/>
<path d="M18.7852 35.2891H20.3984C21.1562 35.2891 21.7044 35.4023 22.043 35.6289C22.3815 35.8555 22.5508 36.2135 22.5508 36.7031C22.5508 37.0417 22.4557 37.3216 22.2656 37.543C22.0781 37.7617 21.8034 37.9036 21.4414 37.9688V38.0078C22.3086 38.1562 22.7422 38.612 22.7422 39.375C22.7422 39.8854 22.569 40.2839 22.2227 40.5703C21.8789 40.8568 21.3971 41 20.7773 41H18.7852V35.2891ZM19.4492 37.7344H20.543C21.0117 37.7344 21.349 37.6615 21.5547 37.5156C21.7604 37.3672 21.8633 37.1185 21.8633 36.7695C21.8633 36.4492 21.7487 36.2188 21.5195 36.0781C21.2904 35.9349 20.9258 35.8633 20.4258 35.8633H19.4492V37.7344ZM19.4492 38.2969V40.4336H20.6406C21.1016 40.4336 21.4479 40.3451 21.6797 40.168C21.9141 39.9883 22.0312 39.7083 22.0312 39.3281C22.0312 38.974 21.9115 38.7135 21.6719 38.5469C21.4349 38.3802 21.0729 38.2969 20.5859 38.2969H19.4492ZM26.5078 41L26.3789 40.3906H26.3477C26.1341 40.6589 25.9206 40.8411 25.707 40.9375C25.4961 41.0312 25.2318 41.0781 24.9141 41.0781C24.4896 41.0781 24.1562 40.9688 23.9141 40.75C23.6745 40.5312 23.5547 40.2201 23.5547 39.8164C23.5547 38.9518 24.2461 38.4987 25.6289 38.457L26.3555 38.4336V38.168C26.3555 37.832 26.2826 37.5846 26.1367 37.4258C25.9935 37.2643 25.763 37.1836 25.4453 37.1836C25.0885 37.1836 24.6849 37.293 24.2344 37.5117L24.0352 37.0156C24.2461 36.901 24.4766 36.8112 24.7266 36.7461C24.9792 36.681 25.2318 36.6484 25.4844 36.6484C25.9948 36.6484 26.3724 36.7617 26.6172 36.9883C26.8646 37.2148 26.9883 37.5781 26.9883 38.0781V41H26.5078ZM25.043 40.543C25.4466 40.543 25.763 40.4323 25.9922 40.2109C26.224 39.9896 26.3398 39.6797 26.3398 39.2812V38.8945L25.6914 38.9219C25.1758 38.9401 24.8034 39.0208 24.5742 39.1641C24.3477 39.3047 24.2344 39.5247 24.2344 39.8242C24.2344 40.0586 24.3047 40.237 24.4453 40.3594C24.5885 40.4818 24.7878 40.543 25.043 40.543ZM31.0898 39.832C31.0898 40.2305 30.9414 40.5378 30.6445 40.7539C30.3477 40.9701 29.931 41.0781 29.3945 41.0781C28.8268 41.0781 28.3841 40.9883 28.0664 40.8086V40.207C28.2721 40.3112 28.4922 40.3932 28.7266 40.4531C28.9635 40.513 29.1914 40.543 29.4102 40.543C29.7487 40.543 30.0091 40.4896 30.1914 40.3828C30.3737 40.2734 30.4648 40.1081 30.4648 39.8867C30.4648 39.7201 30.3919 39.5781 30.2461 39.4609C30.1029 39.3411 29.8216 39.2005 29.4023 39.0391C29.0039 38.8906 28.7201 38.7617 28.5508 38.6523C28.3841 38.5404 28.2591 38.4141 28.1758 38.2734C28.0951 38.1328 28.0547 37.9648 28.0547 37.7695C28.0547 37.4206 28.1966 37.1458 28.4805 36.9453C28.7643 36.7422 29.1536 36.6406 29.6484 36.6406C30.1094 36.6406 30.5599 36.7344 31 36.9219L30.7695 37.4492C30.3398 37.2721 29.9505 37.1836 29.6016 37.1836C29.2943 37.1836 29.0625 37.2318 28.9062 37.3281C28.75 37.4245 28.6719 37.5573 28.6719 37.7266C28.6719 37.8411 28.7005 37.9388 28.7578 38.0195C28.8177 38.1003 28.9128 38.1771 29.043 38.25C29.1732 38.3229 29.4232 38.4284 29.793 38.5664C30.3008 38.7513 30.6432 38.9375 30.8203 39.125C31 39.3125 31.0898 39.5482 31.0898 39.832ZM32.7969 41H32.1484V36.7188H32.7969V41ZM32.0938 35.5586C32.0938 35.4102 32.1302 35.3021 32.2031 35.2344C32.276 35.1641 32.3672 35.1289 32.4766 35.1289C32.5807 35.1289 32.6706 35.1641 32.7461 35.2344C32.8216 35.3047 32.8594 35.4128 32.8594 35.5586C32.8594 35.7044 32.8216 35.8138 32.7461 35.8867C32.6706 35.957 32.5807 35.9922 32.4766 35.9922C32.3672 35.9922 32.276 35.957 32.2031 35.8867C32.1302 35.8138 32.0938 35.7044 32.0938 35.5586ZM35.8828 41.0781C35.263 41.0781 34.7826 40.888 34.4414 40.5078C34.1029 40.125 33.9336 39.5846 33.9336 38.8867C33.9336 38.1706 34.1055 37.6172 34.4492 37.2266C34.7956 36.8359 35.2878 36.6406 35.9258 36.6406C36.1315 36.6406 36.3372 36.6628 36.543 36.707C36.7487 36.7513 36.9102 36.8034 37.0273 36.8633L36.8281 37.4141C36.6849 37.3568 36.5286 37.3099 36.3594 37.2734C36.1901 37.2344 36.0404 37.2148 35.9102 37.2148C35.0404 37.2148 34.6055 37.7695 34.6055 38.8789C34.6055 39.4049 34.7109 39.8086 34.9219 40.0898C35.1354 40.3711 35.4505 40.5117 35.8672 40.5117C36.224 40.5117 36.5898 40.4349 36.9648 40.2812V40.8555C36.6784 41.0039 36.3177 41.0781 35.8828 41.0781Z" fill="white"/>
<path d="M161.113 87H141.758V83.5234L149.121 76.1211C151.296 73.8945 152.734 72.319 153.438 71.3945C154.154 70.457 154.674 69.5781 155 68.7578C155.326 67.9375 155.488 67.0586 155.488 66.1211C155.488 64.832 155.098 63.8164 154.316 63.0742C153.548 62.332 152.48 61.9609 151.113 61.9609C150.02 61.9609 148.958 62.1628 147.93 62.5664C146.914 62.9701 145.736 63.6992 144.395 64.7539L141.914 61.7266C143.503 60.3854 145.046 59.4349 146.543 58.875C148.04 58.3151 149.635 58.0352 151.328 58.0352C153.984 58.0352 156.113 58.7318 157.715 60.125C159.316 61.5052 160.117 63.3672 160.117 65.7109C160.117 67 159.883 68.224 159.414 69.3828C158.958 70.5417 158.249 71.7396 157.285 72.9766C156.335 74.2005 154.746 75.8607 152.52 77.957L147.559 82.7617V82.957H161.113V87ZM185.78 80.7695H181.933V87H177.46V80.7695H164.413V77.2344L177.46 58.3672H181.933V76.9609H185.78V80.7695ZM177.46 76.9609V69.793C177.46 67.2409 177.525 65.151 177.655 63.5234H177.499C177.135 64.3828 176.562 65.4245 175.78 66.6484L168.691 76.9609H177.46Z" fill="white"/>
<path d="M144.698 105.088C144.001 105.088 143.46 104.874 143.077 104.446C142.696 104.016 142.505 103.408 142.505 102.623C142.505 101.817 142.699 101.194 143.085 100.755C143.475 100.315 144.029 100.096 144.747 100.096C144.978 100.096 145.209 100.121 145.441 100.17C145.672 100.22 145.854 100.279 145.986 100.346L145.762 100.966C145.601 100.901 145.425 100.849 145.234 100.808C145.044 100.764 144.875 100.742 144.729 100.742C143.75 100.742 143.261 101.366 143.261 102.614C143.261 103.206 143.38 103.66 143.617 103.976C143.857 104.292 144.212 104.451 144.681 104.451C145.082 104.451 145.494 104.364 145.916 104.191V104.837C145.593 105.004 145.188 105.088 144.698 105.088ZM150.204 105L150.059 104.314H150.024C149.784 104.616 149.544 104.821 149.304 104.93C149.066 105.035 148.769 105.088 148.411 105.088C147.934 105.088 147.559 104.965 147.286 104.719C147.017 104.473 146.882 104.123 146.882 103.668C146.882 102.696 147.66 102.186 149.216 102.139L150.033 102.113V101.814C150.033 101.436 149.951 101.158 149.787 100.979C149.626 100.797 149.367 100.707 149.009 100.707C148.608 100.707 148.154 100.83 147.647 101.076L147.423 100.518C147.66 100.389 147.919 100.288 148.201 100.214C148.485 100.141 148.769 100.104 149.053 100.104C149.627 100.104 150.052 100.232 150.327 100.487C150.606 100.742 150.745 101.15 150.745 101.713V105H150.204ZM148.556 104.486C149.011 104.486 149.367 104.361 149.624 104.112C149.885 103.863 150.015 103.515 150.015 103.066V102.631L149.286 102.662C148.706 102.683 148.287 102.773 148.029 102.935C147.774 103.093 147.647 103.34 147.647 103.677C147.647 103.941 147.726 104.142 147.884 104.279C148.045 104.417 148.269 104.486 148.556 104.486ZM154.63 100.096C154.843 100.096 155.035 100.113 155.205 100.148L155.104 100.825C154.905 100.781 154.729 100.759 154.577 100.759C154.187 100.759 153.853 100.917 153.575 101.234C153.299 101.55 153.162 101.944 153.162 102.416V105H152.432V100.184H153.034L153.118 101.076H153.153C153.332 100.762 153.547 100.521 153.799 100.351C154.051 100.181 154.328 100.096 154.63 100.096ZM159.564 104.354H159.525C159.188 104.843 158.684 105.088 158.013 105.088C157.383 105.088 156.893 104.873 156.541 104.442C156.192 104.011 156.018 103.399 156.018 102.605C156.018 101.811 156.194 101.194 156.545 100.755C156.897 100.315 157.386 100.096 158.013 100.096C158.666 100.096 159.167 100.333 159.516 100.808H159.573L159.542 100.46L159.525 100.122V98.1621H160.254V105H159.661L159.564 104.354ZM158.105 104.477C158.603 104.477 158.964 104.342 159.186 104.073C159.412 103.8 159.525 103.362 159.525 102.759V102.605C159.525 101.922 159.411 101.436 159.182 101.146C158.957 100.853 158.595 100.707 158.097 100.707C157.669 100.707 157.341 100.874 157.112 101.208C156.887 101.539 156.774 102.007 156.774 102.614C156.774 103.229 156.887 103.693 157.112 104.007C157.338 104.32 157.669 104.477 158.105 104.477ZM165.093 103.686C165.093 104.134 164.926 104.48 164.592 104.723C164.258 104.966 163.789 105.088 163.185 105.088C162.547 105.088 162.049 104.987 161.691 104.785V104.108C161.923 104.225 162.17 104.317 162.434 104.385C162.7 104.452 162.957 104.486 163.203 104.486C163.584 104.486 163.877 104.426 164.082 104.306C164.287 104.183 164.389 103.997 164.389 103.748C164.389 103.56 164.307 103.4 164.143 103.269C163.982 103.134 163.666 102.976 163.194 102.794C162.746 102.627 162.427 102.482 162.236 102.359C162.049 102.233 161.908 102.091 161.814 101.933C161.723 101.774 161.678 101.585 161.678 101.366C161.678 100.973 161.838 100.664 162.157 100.438C162.476 100.21 162.914 100.096 163.471 100.096C163.99 100.096 164.496 100.201 164.991 100.412L164.732 101.005C164.249 100.806 163.811 100.707 163.418 100.707C163.073 100.707 162.812 100.761 162.636 100.869C162.46 100.978 162.372 101.127 162.372 101.317C162.372 101.446 162.405 101.556 162.469 101.647C162.536 101.738 162.643 101.824 162.79 101.906C162.936 101.988 163.218 102.107 163.634 102.262C164.205 102.47 164.59 102.68 164.789 102.891C164.991 103.102 165.093 103.367 165.093 103.686ZM168.902 98.5752L166.507 105H165.778L168.173 98.5752H168.902ZM169.184 100.184H169.966L171.02 102.93C171.252 103.557 171.395 104.01 171.451 104.288H171.486C171.524 104.139 171.603 103.884 171.724 103.523C171.847 103.16 172.245 102.047 172.919 100.184H173.701L171.631 105.668C171.426 106.21 171.186 106.594 170.911 106.819C170.638 107.048 170.303 107.162 169.904 107.162C169.682 107.162 169.462 107.137 169.245 107.087V106.503C169.406 106.538 169.586 106.556 169.786 106.556C170.287 106.556 170.644 106.274 170.858 105.712L171.126 105.026L169.184 100.184ZM176.698 105.088C175.986 105.088 175.424 104.871 175.01 104.438C174.6 104.004 174.395 103.402 174.395 102.631C174.395 101.855 174.586 101.238 174.967 100.781C175.35 100.324 175.864 100.096 176.509 100.096C177.113 100.096 177.59 100.295 177.942 100.693C178.293 101.089 178.469 101.612 178.469 102.262V102.724H175.151C175.166 103.289 175.308 103.718 175.577 104.011C175.85 104.304 176.232 104.451 176.724 104.451C177.243 104.451 177.756 104.342 178.262 104.125V104.776C178.005 104.887 177.76 104.966 177.529 105.013C177.3 105.063 177.023 105.088 176.698 105.088ZM176.5 100.707C176.114 100.707 175.804 100.833 175.573 101.084C175.344 101.336 175.21 101.685 175.169 102.13H177.687C177.687 101.67 177.584 101.319 177.379 101.076C177.174 100.83 176.881 100.707 176.5 100.707ZM182.859 105L182.714 104.314H182.679C182.439 104.616 182.198 104.821 181.958 104.93C181.721 105.035 181.423 105.088 181.066 105.088C180.588 105.088 180.213 104.965 179.941 104.719C179.671 104.473 179.537 104.123 179.537 103.668C179.537 102.696 180.315 102.186 181.87 102.139L182.688 102.113V101.814C182.688 101.436 182.606 101.158 182.441 100.979C182.28 100.797 182.021 100.707 181.664 100.707C181.262 100.707 180.808 100.83 180.301 101.076L180.077 100.518C180.315 100.389 180.574 100.288 180.855 100.214C181.139 100.141 181.423 100.104 181.708 100.104C182.282 100.104 182.707 100.232 182.982 100.487C183.26 100.742 183.399 101.15 183.399 101.713V105H182.859ZM181.211 104.486C181.665 104.486 182.021 104.361 182.279 104.112C182.54 103.863 182.67 103.515 182.67 103.066V102.631L181.94 102.662C181.36 102.683 180.941 102.773 180.684 102.935C180.429 103.093 180.301 103.34 180.301 103.677C180.301 103.941 180.38 104.142 180.539 104.279C180.7 104.417 180.924 104.486 181.211 104.486ZM187.284 100.096C187.498 100.096 187.69 100.113 187.86 100.148L187.759 100.825C187.559 100.781 187.384 100.759 187.231 100.759C186.842 100.759 186.508 100.917 186.229 101.234C185.954 101.55 185.816 101.944 185.816 102.416V105H185.087V100.184H185.689L185.772 101.076H185.807C185.986 100.762 186.202 100.521 186.453 100.351C186.705 100.181 186.982 100.096 187.284 100.096Z" fill="white"/>
<path d="M129.406 36.9531C129.406 37.5312 129.208 37.9766 128.812 38.2891C128.419 38.599 127.855 38.7539 127.121 38.7539H126.449V41H125.785V35.2891H127.266C128.693 35.2891 129.406 35.8438 129.406 36.9531ZM126.449 38.1836H127.047C127.635 38.1836 128.061 38.0885 128.324 37.8984C128.587 37.7083 128.719 37.4036 128.719 36.9844C128.719 36.6068 128.595 36.3255 128.348 36.1406C128.1 35.9557 127.715 35.8633 127.191 35.8633H126.449V38.1836ZM132.461 36.6406C132.651 36.6406 132.822 36.6562 132.973 36.6875L132.883 37.2891C132.706 37.25 132.549 37.2305 132.414 37.2305C132.068 37.2305 131.771 37.3711 131.523 37.6523C131.279 37.9336 131.156 38.2839 131.156 38.7031V41H130.508V36.7188H131.043L131.117 37.5117H131.148C131.307 37.2331 131.499 37.0182 131.723 36.8672C131.947 36.7161 132.193 36.6406 132.461 36.6406ZM135.582 41.0781C134.949 41.0781 134.449 40.8854 134.082 40.5C133.717 40.1146 133.535 39.5794 133.535 38.8945C133.535 38.2044 133.704 37.6562 134.043 37.25C134.384 36.8438 134.841 36.6406 135.414 36.6406C135.951 36.6406 136.375 36.8177 136.688 37.1719C137 37.5234 137.156 37.9883 137.156 38.5664V38.9766H134.207C134.22 39.4792 134.346 39.8607 134.586 40.1211C134.828 40.3815 135.168 40.5117 135.605 40.5117C136.066 40.5117 136.522 40.4154 136.973 40.2227V40.8008C136.743 40.8997 136.526 40.9701 136.32 41.0117C136.117 41.056 135.871 41.0781 135.582 41.0781ZM135.406 37.1836C135.062 37.1836 134.788 37.2956 134.582 37.5195C134.379 37.7435 134.259 38.0534 134.223 38.4492H136.461C136.461 38.0404 136.37 37.7279 136.188 37.5117C136.005 37.293 135.745 37.1836 135.406 37.1836ZM143.723 41V38.2148C143.723 37.8737 143.65 37.6185 143.504 37.4492C143.358 37.2773 143.132 37.1914 142.824 37.1914C142.421 37.1914 142.122 37.3073 141.93 37.5391C141.737 37.7708 141.641 38.1276 141.641 38.6094V41H140.992V38.2148C140.992 37.8737 140.919 37.6185 140.773 37.4492C140.628 37.2773 140.4 37.1914 140.09 37.1914C139.684 37.1914 139.385 37.3138 139.195 37.5586C139.008 37.8008 138.914 38.1992 138.914 38.7539V41H138.266V36.7188H138.793L138.898 37.3047H138.93C139.052 37.0964 139.224 36.9336 139.445 36.8164C139.669 36.6992 139.919 36.6406 140.195 36.6406C140.865 36.6406 141.302 36.8828 141.508 37.3672H141.539C141.667 37.1432 141.852 36.9661 142.094 36.8359C142.336 36.7057 142.612 36.6406 142.922 36.6406C143.406 36.6406 143.768 36.7656 144.008 37.0156C144.25 37.263 144.371 37.6602 144.371 38.207V41H143.723ZM146.359 41H145.711V36.7188H146.359V41ZM145.656 35.5586C145.656 35.4102 145.693 35.3021 145.766 35.2344C145.839 35.1641 145.93 35.1289 146.039 35.1289C146.143 35.1289 146.233 35.1641 146.309 35.2344C146.384 35.3047 146.422 35.4128 146.422 35.5586C146.422 35.7044 146.384 35.8138 146.309 35.8867C146.233 35.957 146.143 35.9922 146.039 35.9922C145.93 35.9922 145.839 35.957 145.766 35.8867C145.693 35.8138 145.656 35.7044 145.656 35.5586ZM148.344 36.7188V39.4961C148.344 39.8451 148.423 40.1055 148.582 40.2773C148.741 40.4492 148.99 40.5352 149.328 40.5352C149.776 40.5352 150.103 40.4128 150.309 40.168C150.517 39.9232 150.621 39.5234 150.621 38.9688V36.7188H151.27V41H150.734L150.641 40.4258H150.605C150.473 40.6367 150.288 40.7982 150.051 40.9102C149.816 41.0221 149.548 41.0781 149.246 41.0781C148.725 41.0781 148.335 40.9544 148.074 40.707C147.816 40.4596 147.688 40.0638 147.688 39.5195V36.7188H148.344ZM158.105 41V38.2148C158.105 37.8737 158.033 37.6185 157.887 37.4492C157.741 37.2773 157.514 37.1914 157.207 37.1914C156.803 37.1914 156.505 37.3073 156.312 37.5391C156.12 37.7708 156.023 38.1276 156.023 38.6094V41H155.375V38.2148C155.375 37.8737 155.302 37.6185 155.156 37.4492C155.01 37.2773 154.783 37.1914 154.473 37.1914C154.066 37.1914 153.768 37.3138 153.578 37.5586C153.391 37.8008 153.297 38.1992 153.297 38.7539V41H152.648V36.7188H153.176L153.281 37.3047H153.312C153.435 37.0964 153.607 36.9336 153.828 36.8164C154.052 36.6992 154.302 36.6406 154.578 36.6406C155.247 36.6406 155.685 36.8828 155.891 37.3672H155.922C156.049 37.1432 156.234 36.9661 156.477 36.8359C156.719 36.7057 156.995 36.6406 157.305 36.6406C157.789 36.6406 158.151 36.7656 158.391 37.0156C158.633 37.263 158.754 37.6602 158.754 38.207V41H158.105Z" fill="white"/>
<path d="M107.867 188H85.3438V184.648L94.3672 175.578C97.1172 172.797 98.9297 170.812 99.8047 169.625C100.68 168.438 101.336 167.281 101.773 166.156C102.211 165.031 102.43 163.82 102.43 162.523C102.43 160.695 101.875 159.25 100.766 158.188C99.6562 157.109 98.1172 156.57 96.1484 156.57C94.7266 156.57 93.375 156.805 92.0938 157.273C90.8281 157.742 89.4141 158.594 87.8516 159.828L85.7891 157.18C88.9453 154.555 92.3828 153.242 96.1016 153.242C99.3203 153.242 101.844 154.07 103.672 155.727C105.5 157.367 106.414 159.578 106.414 162.359C106.414 164.531 105.805 166.68 104.586 168.805C103.367 170.93 101.086 173.617 97.7422 176.867L90.2422 184.203V184.391H107.867V188ZM137.913 180.125H132.827V188H129.101V180.125H112.437V176.727L128.702 153.547H132.827V176.586H137.913V180.125ZM129.101 176.586V165.195C129.101 162.961 129.179 160.438 129.335 157.625H129.147C128.397 159.125 127.694 160.367 127.038 161.352L116.327 176.586H129.101Z" fill="#BD4C5F"/>
<line x1="109.5" y1="35" x2="109.5" y2="62" stroke="white"/>
<line x1="109.5" y1="95" x2="109.5" y2="122" stroke="white"/>
<path d="M81.1055 160.054C81.1055 160.851 80.8066 161.51 80.209 162.031C79.6113 162.547 78.7764 162.872 77.7041 163.007V165.046H76.5703V163.086C75.9141 163.086 75.2783 163.036 74.6631 162.937C74.0479 162.831 73.5439 162.688 73.1514 162.506V161.135C73.6377 161.352 74.1973 161.53 74.8301 161.671C75.4688 161.806 76.0488 161.873 76.5703 161.873V158.006C75.3691 157.625 74.5254 157.183 74.0391 156.679C73.5586 156.175 73.3184 155.524 73.3184 154.728C73.3184 153.96 73.6143 153.33 74.2061 152.838C74.8037 152.346 75.5918 152.047 76.5703 151.941V150.342H77.7041V151.924C78.7822 151.953 79.8223 152.17 80.8242 152.574L80.3672 153.726C79.4941 153.38 78.6064 153.175 77.7041 153.11V156.925C78.624 157.218 79.3125 157.505 79.7695 157.786C80.2266 158.062 80.5635 158.381 80.7803 158.744C80.9971 159.102 81.1055 159.538 81.1055 160.054ZM79.6113 160.168C79.6113 159.746 79.4795 159.406 79.2158 159.148C78.958 158.885 78.4541 158.624 77.7041 158.366V161.785C78.9756 161.609 79.6113 161.07 79.6113 160.168ZM74.8037 154.71C74.8037 155.155 74.9355 155.513 75.1992 155.782C75.4629 156.052 75.9199 156.307 76.5703 156.547V153.146C75.9902 153.239 75.5508 153.424 75.252 153.699C74.9531 153.969 74.8037 154.306 74.8037 154.71Z" fill="#BD4C5F"/>
</g>
<defs>
<filter id="filter0_d" x="0" y="0" width="225" height="275" filterUnits="userSpaceOnUse" color-interpolation-filters="sRGB">
<feFlood flood-opacity="0" result="BackgroundImageFix"/>
<feColorMatrix in="SourceAlpha" type="matrix" values="0 0 0 0 0 0 0 0 0 0 0 0 0 0 0 0 0 0 127 0"/>
<feOffset dx="4" dy="8"/>
<feGaussianBlur stdDeviation="3"/>
<feColorMatrix type="matrix" values="0 0 0 0 0.699544 0 0 0 0 0.284235 0 0 0 0 0.354066 0 0 0 0.33 0"/>
<feBlend mode="normal" in2="BackgroundImageFix" result="effect1_dropShadow"/>
<feBlend mode="normal" in="SourceGraphic" in2="effect1_dropShadow" result="shape"/>
</filter>
</defs>
</svg>
