<svg width="225" height="275" viewBox="0 0 225 275" fill="none" xmlns="http://www.w3.org/2000/svg">
<g filter="url(#filter0_d)">
<path fill-rule="evenodd" clip-rule="evenodd" d="M11 0C6.02944 0 2 4.02944 2 9V26V120V252C2 256.971 6.02943 261 11 261H206C210.971 261 215 256.971 215 252V120V26V9C215 4.02944 210.971 0 206 0H11Z" fill="#41606C"/>
<path d="M64.7427 245.394C64.7427 245.942 64.5386 246.364 64.1304 246.662C63.7222 246.959 63.1493 247.107 62.4116 247.107C61.631 247.107 61.0223 246.984 60.5854 246.737V245.91C60.8683 246.053 61.1709 246.166 61.4932 246.248C61.819 246.33 62.1323 246.372 62.4331 246.372C62.8986 246.372 63.2567 246.298 63.5073 246.151C63.758 246.001 63.8833 245.774 63.8833 245.469C63.8833 245.24 63.783 245.045 63.5825 244.884C63.3856 244.719 62.9989 244.526 62.4224 244.304C61.8745 244.1 61.4842 243.922 61.2515 243.772C61.0223 243.618 60.8504 243.444 60.7358 243.251C60.6248 243.058 60.5693 242.827 60.5693 242.558C60.5693 242.078 60.7645 241.701 61.1548 241.425C61.5451 241.146 62.0804 241.006 62.7607 241.006C63.3945 241.006 64.014 241.135 64.6191 241.393L64.3022 242.118C63.7114 241.874 63.1761 241.752 62.6963 241.752C62.2738 241.752 61.9551 241.819 61.7402 241.951C61.5254 242.084 61.418 242.266 61.418 242.499C61.418 242.657 61.4574 242.791 61.5361 242.902C61.6185 243.013 61.7492 243.118 61.9282 243.219C62.1073 243.319 62.451 243.464 62.9595 243.654C63.6577 243.908 64.1286 244.164 64.3721 244.422C64.6191 244.68 64.7427 245.004 64.7427 245.394ZM68.9051 247.107C68.0349 247.107 67.3474 246.842 66.8426 246.312C66.3413 245.783 66.0906 245.047 66.0906 244.105C66.0906 243.156 66.3234 242.402 66.7888 241.844C67.2579 241.285 67.8863 241.006 68.6741 241.006C69.4117 241.006 69.9954 241.249 70.4251 241.736C70.8548 242.22 71.0696 242.859 71.0696 243.654V244.218H67.0144C67.0323 244.909 67.206 245.433 67.5354 245.792C67.8684 246.15 68.3357 246.329 68.9373 246.329C69.5711 246.329 70.1977 246.196 70.8172 245.931V246.726C70.5021 246.862 70.2031 246.959 69.9202 247.016C69.6409 247.077 69.3025 247.107 68.9051 247.107ZM68.6634 241.752C68.1907 241.752 67.8129 241.906 67.5301 242.214C67.2508 242.522 67.086 242.948 67.0359 243.493H70.1136C70.1136 242.931 69.9882 242.501 69.7376 242.204C69.4869 241.903 69.1289 241.752 68.6634 241.752ZM75.3018 247.107C74.4317 247.107 73.7442 246.842 73.2393 246.312C72.738 245.783 72.4874 245.047 72.4874 244.105C72.4874 243.156 72.7201 242.402 73.1856 241.844C73.6547 241.285 74.2831 241.006 75.0709 241.006C75.8085 241.006 76.3921 241.249 76.8218 241.736C77.2515 242.22 77.4664 242.859 77.4664 243.654V244.218H73.4112C73.4291 244.909 73.6028 245.433 73.9322 245.792C74.2652 246.15 74.7325 246.329 75.334 246.329C75.9678 246.329 76.5945 246.196 77.2139 245.931V246.726C76.8988 246.862 76.5998 246.959 76.317 247.016C76.0377 247.077 75.6993 247.107 75.3018 247.107ZM75.0601 241.752C74.5875 241.752 74.2097 241.906 73.9268 242.214C73.6475 242.522 73.4828 242.948 73.4327 243.493H76.5103C76.5103 242.931 76.385 242.501 76.1343 242.204C75.8837 241.903 75.5256 241.752 75.0601 241.752ZM85.9093 247L85.732 246.162H85.6891C85.3955 246.531 85.1018 246.782 84.8082 246.914C84.5182 247.043 84.1547 247.107 83.7179 247.107C83.1342 247.107 82.6759 246.957 82.3429 246.656C82.0135 246.355 81.8487 245.928 81.8487 245.373C81.8487 244.184 82.7994 243.561 84.7008 243.503L85.6998 243.471V243.106C85.6998 242.644 85.5996 242.304 85.399 242.085C85.2021 241.863 84.8852 241.752 84.4484 241.752C83.9578 241.752 83.4028 241.903 82.7833 242.204L82.5094 241.521C82.7994 241.364 83.1163 241.24 83.4601 241.151C83.8074 241.061 84.1547 241.017 84.5021 241.017C85.2039 241.017 85.7231 241.172 86.0597 241.484C86.3999 241.795 86.5699 242.295 86.5699 242.982V247H85.9093ZM83.8951 246.372C84.4501 246.372 84.8852 246.219 85.2003 245.915C85.519 245.611 85.6783 245.185 85.6783 244.637V244.105L84.7867 244.143C84.0778 244.168 83.5657 244.279 83.2506 244.476C82.9391 244.669 82.7833 244.972 82.7833 245.383C82.7833 245.706 82.88 245.951 83.0734 246.119C83.2703 246.287 83.5442 246.372 83.8951 246.372ZM92.6605 247V243.192C92.6605 242.712 92.5513 242.354 92.3329 242.118C92.1145 241.881 91.7725 241.763 91.307 241.763C90.6911 241.763 90.24 241.93 89.9535 242.263C89.6671 242.596 89.5238 243.145 89.5238 243.912V247H88.6322V241.113H89.3573L89.5023 241.919H89.5453C89.7279 241.629 89.984 241.405 90.3134 241.248C90.6428 241.086 91.0098 241.006 91.4145 241.006C92.1234 241.006 92.657 241.178 93.015 241.521C93.3731 241.862 93.5521 242.408 93.5521 243.16V247H92.6605ZM99.6374 247V243.192C99.6374 242.712 99.5282 242.354 99.3097 242.118C99.0913 241.881 98.7494 241.763 98.2839 241.763C97.668 241.763 97.2168 241.93 96.9304 242.263C96.6439 242.596 96.5007 243.145 96.5007 243.912V247H95.6091V241.113H96.3342L96.4792 241.919H96.5221C96.7048 241.629 96.9608 241.405 97.2902 241.248C97.6196 241.086 97.9867 241.006 98.3913 241.006C99.1003 241.006 99.6338 241.178 99.9919 241.521C100.35 241.862 100.529 242.408 100.529 243.16V247H99.6374ZM103.424 241.113V244.932C103.424 245.412 103.533 245.77 103.751 246.006C103.97 246.243 104.312 246.361 104.777 246.361C105.393 246.361 105.843 246.193 106.125 245.856C106.412 245.519 106.555 244.97 106.555 244.207V241.113H107.447V247H106.711L106.582 246.21H106.534C106.351 246.5 106.097 246.722 105.771 246.876C105.449 247.03 105.08 247.107 104.665 247.107C103.948 247.107 103.411 246.937 103.053 246.597C102.699 246.257 102.521 245.713 102.521 244.964V241.113H103.424ZM113.183 247L113.006 246.162H112.963C112.669 246.531 112.375 246.782 112.082 246.914C111.792 247.043 111.428 247.107 110.991 247.107C110.408 247.107 109.949 246.957 109.616 246.656C109.287 246.355 109.122 245.928 109.122 245.373C109.122 244.184 110.073 243.561 111.974 243.503L112.973 243.471V243.106C112.973 242.644 112.873 242.304 112.673 242.085C112.476 241.863 112.159 241.752 111.722 241.752C111.231 241.752 110.676 241.903 110.057 242.204L109.783 241.521C110.073 241.364 110.39 241.24 110.734 241.151C111.081 241.061 111.428 241.017 111.776 241.017C112.477 241.017 112.997 241.172 113.333 241.484C113.673 241.795 113.843 242.295 113.843 242.982V247H113.183ZM111.169 246.372C111.724 246.372 112.159 246.219 112.474 245.915C112.793 245.611 112.952 245.185 112.952 244.637V244.105L112.06 244.143C111.351 244.168 110.839 244.279 110.524 244.476C110.213 244.669 110.057 244.972 110.057 245.383C110.057 245.706 110.154 245.951 110.347 246.119C110.544 246.287 110.818 246.372 111.169 246.372ZM116.797 247H115.906V238.643H116.797V247ZM124.725 247.107C124.342 247.107 123.991 247.038 123.672 246.898C123.357 246.755 123.092 246.536 122.877 246.243H122.813C122.856 246.586 122.877 246.912 122.877 247.22V249.643H121.985V241.113H122.711L122.834 241.919H122.877C123.106 241.597 123.373 241.364 123.677 241.221C123.982 241.077 124.331 241.006 124.725 241.006C125.505 241.006 126.107 241.273 126.529 241.806C126.955 242.34 127.169 243.088 127.169 244.051C127.169 245.018 126.952 245.77 126.519 246.307C126.089 246.841 125.491 247.107 124.725 247.107ZM124.596 241.763C123.994 241.763 123.559 241.93 123.291 242.263C123.022 242.596 122.884 243.126 122.877 243.853V244.051C122.877 244.878 123.015 245.471 123.291 245.829C123.566 246.184 124.009 246.361 124.617 246.361C125.126 246.361 125.523 246.155 125.81 245.743C126.1 245.331 126.245 244.764 126.245 244.041C126.245 243.306 126.1 242.744 125.81 242.354C125.523 241.96 125.119 241.763 124.596 241.763ZM131.637 241.006C131.898 241.006 132.133 241.027 132.341 241.07L132.217 241.897C131.974 241.844 131.759 241.817 131.573 241.817C131.096 241.817 130.688 242.01 130.348 242.397C130.011 242.784 129.843 243.265 129.843 243.842V247H128.952V241.113H129.687L129.789 242.204H129.832C130.051 241.82 130.314 241.525 130.622 241.317C130.93 241.11 131.268 241.006 131.637 241.006ZM134.553 247H133.662V241.113H134.553V247ZM133.587 239.518C133.587 239.314 133.637 239.165 133.737 239.072C133.837 238.976 133.963 238.927 134.113 238.927C134.256 238.927 134.38 238.976 134.484 239.072C134.587 239.169 134.639 239.318 134.639 239.518C134.639 239.719 134.587 239.869 134.484 239.969C134.38 240.066 134.256 240.114 134.113 240.114C133.963 240.114 133.837 240.066 133.737 239.969C133.637 239.869 133.587 239.719 133.587 239.518ZM139.017 247.107C138.164 247.107 137.504 246.846 137.035 246.323C136.569 245.797 136.336 245.054 136.336 244.094C136.336 243.11 136.573 242.349 137.045 241.812C137.522 241.274 138.198 241.006 139.076 241.006C139.358 241.006 139.641 241.036 139.924 241.097C140.207 241.158 140.429 241.23 140.59 241.312L140.316 242.069C140.119 241.991 139.905 241.926 139.672 241.876C139.439 241.822 139.233 241.795 139.054 241.795C137.858 241.795 137.26 242.558 137.26 244.083C137.26 244.807 137.405 245.362 137.695 245.749C137.989 246.135 138.422 246.329 138.995 246.329C139.486 246.329 139.989 246.223 140.504 246.012V246.801C140.11 247.005 139.615 247.107 139.017 247.107ZM143.018 247H142.126V241.113H143.018V247ZM142.051 239.518C142.051 239.314 142.101 239.165 142.201 239.072C142.302 238.976 142.427 238.927 142.577 238.927C142.721 238.927 142.844 238.976 142.948 239.072C143.052 239.169 143.104 239.318 143.104 239.518C143.104 239.719 143.052 239.869 142.948 239.969C142.844 240.066 142.721 240.114 142.577 240.114C142.427 240.114 142.302 240.066 142.201 239.969C142.101 239.869 142.051 239.719 142.051 239.518ZM149.157 247V243.192C149.157 242.712 149.048 242.354 148.829 242.118C148.611 241.881 148.269 241.763 147.803 241.763C147.187 241.763 146.736 241.93 146.45 242.263C146.163 242.596 146.02 243.145 146.02 243.912V247H145.128V241.113H145.853L145.999 241.919H146.041C146.224 241.629 146.48 241.405 146.81 241.248C147.139 241.086 147.506 241.006 147.911 241.006C148.62 241.006 149.153 241.178 149.511 241.521C149.869 241.862 150.048 242.408 150.048 243.16V247H149.157ZM156.923 241.113V241.677L155.833 241.806C155.933 241.931 156.023 242.096 156.101 242.3C156.18 242.501 156.219 242.728 156.219 242.982C156.219 243.559 156.023 244.019 155.629 244.363C155.235 244.707 154.694 244.878 154.007 244.878C153.831 244.878 153.666 244.864 153.512 244.835C153.133 245.036 152.943 245.288 152.943 245.593C152.943 245.754 153.009 245.874 153.142 245.953C153.274 246.028 153.502 246.065 153.824 246.065H154.866C155.503 246.065 155.992 246.2 156.332 246.468C156.676 246.737 156.848 247.127 156.848 247.639C156.848 248.291 156.587 248.787 156.064 249.127C155.541 249.471 154.778 249.643 153.776 249.643C153.006 249.643 152.411 249.499 151.992 249.213C151.577 248.926 151.369 248.522 151.369 247.999C151.369 247.641 151.484 247.331 151.713 247.07C151.942 246.808 152.265 246.631 152.68 246.538C152.53 246.47 152.402 246.364 152.299 246.221C152.198 246.078 152.148 245.911 152.148 245.722C152.148 245.507 152.205 245.319 152.32 245.158C152.435 244.997 152.615 244.841 152.863 244.69C152.558 244.565 152.309 244.352 152.116 244.051C151.926 243.75 151.831 243.407 151.831 243.02C151.831 242.375 152.025 241.88 152.411 241.532C152.798 241.181 153.346 241.006 154.055 241.006C154.363 241.006 154.64 241.042 154.887 241.113H156.923ZM152.229 247.988C152.229 248.307 152.363 248.549 152.632 248.713C152.9 248.878 153.285 248.96 153.786 248.96C154.535 248.96 155.088 248.848 155.446 248.622C155.808 248.4 155.989 248.097 155.989 247.714C155.989 247.396 155.89 247.174 155.693 247.048C155.496 246.927 155.126 246.866 154.581 246.866H153.512C153.108 246.866 152.793 246.962 152.567 247.156C152.342 247.349 152.229 247.627 152.229 247.988ZM152.712 242.999C152.712 243.41 152.829 243.722 153.061 243.933C153.294 244.144 153.618 244.25 154.033 244.25C154.904 244.25 155.339 243.827 155.339 242.982C155.339 242.098 154.898 241.656 154.017 241.656C153.598 241.656 153.276 241.769 153.051 241.994C152.825 242.22 152.712 242.555 152.712 242.999Z" fill="white"/>
<path d="M2 9C2 4.02944 6.02944 0 11 0H206C210.971 0 215 4.02944 215 9V25H2V9Z" fill="#37525C"/>
<rect x="2" y="129" width="213" height="92" fill="white"/>
<path d="M109.403 135L100 128H118L109.403 135Z" fill="#41606C"/>
<path d="M109.313 228L102 221H116L109.313 228Z" fill="white"/>
<path d="M53.1133 87H33.7578V83.5234L41.1211 76.1211C43.2956 73.8945 44.7344 72.319 45.4375 71.3945C46.1536 70.457 46.6745 69.5781 47 68.7578C47.3255 67.9375 47.4883 67.0586 47.4883 66.1211C47.4883 64.832 47.0977 63.8164 46.3164 63.0742C45.5482 62.332 44.4805 61.9609 43.1133 61.9609C42.0195 61.9609 40.9583 62.1628 39.9297 62.5664C38.9141 62.9701 37.7357 63.6992 36.3945 64.7539L33.9141 61.7266C35.5026 60.3854 37.0456 59.4349 38.543 58.875C40.0404 58.3151 41.6354 58.0352 43.3281 58.0352C45.9844 58.0352 48.1133 58.7318 49.7148 60.125C51.3164 61.5052 52.1172 63.3672 52.1172 65.7109C52.1172 67 51.8828 68.224 51.4141 69.3828C50.9583 70.5417 50.2487 71.7396 49.2852 72.9766C48.3346 74.2005 46.7461 75.8607 44.5195 77.957L39.5586 82.7617V82.957H53.1133V87ZM77.7805 80.7695H73.9328V87H69.4602V80.7695H56.4133V77.2344L69.4602 58.3672H73.9328V76.9609H77.7805V80.7695ZM69.4602 76.9609V69.793C69.4602 67.2409 69.5253 65.151 69.6555 63.5234H69.4992C69.1346 64.3828 68.5617 65.4245 67.7805 66.6484L60.6906 76.9609H69.4602Z" fill="white"/>
<path d="M34.6982 105.088C34.001 105.088 33.4604 104.874 33.0767 104.446C32.6958 104.016 32.5054 103.408 32.5054 102.623C32.5054 101.817 32.6987 101.194 33.0854 100.755C33.4751 100.315 34.0288 100.096 34.7466 100.096C34.978 100.096 35.2095 100.121 35.4409 100.17C35.6724 100.22 35.854 100.279 35.9858 100.346L35.7617 100.966C35.6006 100.901 35.4248 100.849 35.2344 100.808C35.0439 100.764 34.8755 100.742 34.729 100.742C33.7505 100.742 33.2612 101.366 33.2612 102.614C33.2612 103.206 33.3799 103.66 33.6172 103.976C33.8574 104.292 34.2119 104.451 34.6807 104.451C35.082 104.451 35.4937 104.364 35.9155 104.191V104.837C35.5933 105.004 35.1875 105.088 34.6982 105.088ZM40.2044 105L40.0594 104.314H40.0242C39.784 104.616 39.5438 104.821 39.3035 104.93C39.0662 105.035 38.7689 105.088 38.4114 105.088C37.9339 105.088 37.5589 104.965 37.2864 104.719C37.0169 104.473 36.8821 104.123 36.8821 103.668C36.8821 102.696 37.66 102.186 39.2156 102.139L40.033 102.113V101.814C40.033 101.436 39.951 101.158 39.7869 100.979C39.6258 100.797 39.3665 100.707 39.0091 100.707C38.6077 100.707 38.1536 100.83 37.6468 101.076L37.4227 100.518C37.66 100.389 37.9193 100.288 38.2005 100.214C38.4847 100.141 38.7689 100.104 39.053 100.104C39.6273 100.104 40.0521 100.232 40.3275 100.487C40.6058 100.742 40.7449 101.15 40.7449 101.713V105H40.2044ZM38.5565 104.486C39.0106 104.486 39.3665 104.361 39.6243 104.112C39.8851 103.863 40.0154 103.515 40.0154 103.066V102.631L39.286 102.662C38.7059 102.683 38.2869 102.773 38.0291 102.935C37.7742 103.093 37.6468 103.34 37.6468 103.677C37.6468 103.941 37.7259 104.142 37.8841 104.279C38.0452 104.417 38.2694 104.486 38.5565 104.486ZM44.6295 100.096C44.8434 100.096 45.0353 100.113 45.2052 100.148L45.1041 100.825C44.9049 100.781 44.7291 100.759 44.5768 100.759C44.1871 100.759 43.8532 100.917 43.5748 101.234C43.2995 101.55 43.1618 101.944 43.1618 102.416V105H42.4323V100.184H43.0343L43.1178 101.076H43.153C43.3317 100.762 43.547 100.521 43.799 100.351C44.0509 100.181 44.3278 100.096 44.6295 100.096ZM49.5644 104.354H49.5249C49.1879 104.843 48.684 105.088 48.0131 105.088C47.3833 105.088 46.8925 104.873 46.541 104.442C46.1923 104.011 46.018 103.399 46.018 102.605C46.018 101.811 46.1938 101.194 46.5454 100.755C46.8969 100.315 47.3862 100.096 48.0131 100.096C48.6665 100.096 49.1674 100.333 49.5161 100.808H49.5732L49.5424 100.46L49.5249 100.122V98.1621H50.2544V105H49.6611L49.5644 104.354ZM48.1054 104.477C48.6035 104.477 48.9638 104.342 49.1865 104.073C49.4121 103.8 49.5249 103.362 49.5249 102.759V102.605C49.5249 101.922 49.4106 101.436 49.1821 101.146C48.9565 100.853 48.5947 100.707 48.0966 100.707C47.6689 100.707 47.3408 100.874 47.1123 101.208C46.8867 101.539 46.7739 102.007 46.7739 102.614C46.7739 103.229 46.8867 103.693 47.1123 104.007C47.3379 104.32 47.6689 104.477 48.1054 104.477ZM55.0926 103.686C55.0926 104.134 54.9256 104.48 54.5916 104.723C54.2576 104.966 53.7888 105.088 53.1853 105.088C52.5467 105.088 52.0486 104.987 51.6912 104.785V104.108C51.9226 104.225 52.1702 104.317 52.4339 104.385C52.7005 104.452 52.9568 104.486 53.2029 104.486C53.5838 104.486 53.8767 104.426 54.0818 104.306C54.2869 104.183 54.3894 103.997 54.3894 103.748C54.3894 103.56 54.3074 103.4 54.1433 103.269C53.9822 103.134 53.6658 102.976 53.1941 102.794C52.7459 102.627 52.4265 102.482 52.2361 102.359C52.0486 102.233 51.908 102.091 51.8142 101.933C51.7234 101.774 51.678 101.585 51.678 101.366C51.678 100.973 51.8377 100.664 52.157 100.438C52.4763 100.21 52.9143 100.096 53.471 100.096C53.9895 100.096 54.4964 100.201 54.9915 100.412L54.7322 101.005C54.2488 100.806 53.8108 100.707 53.4182 100.707C53.0725 100.707 52.8118 100.761 52.636 100.869C52.4602 100.978 52.3723 101.127 52.3723 101.317C52.3723 101.446 52.4046 101.556 52.469 101.647C52.5364 101.738 52.6433 101.824 52.7898 101.906C52.9363 101.988 53.2176 102.107 53.6336 102.262C54.2049 102.47 54.5901 102.68 54.7893 102.891C54.9915 103.102 55.0926 103.367 55.0926 103.686ZM58.9024 98.5752L56.5074 105H55.7779L58.1729 98.5752H58.9024ZM59.1835 100.184H59.9657L61.0204 102.93C61.2519 103.557 61.3954 104.01 61.4511 104.288H61.4862C61.5243 104.139 61.6034 103.884 61.7236 103.523C61.8466 103.16 62.245 102.047 62.9189 100.184H63.7011L61.6313 105.668C61.4262 106.21 61.186 106.594 60.9106 106.819C60.6381 107.048 60.3027 107.162 59.9042 107.162C59.6816 107.162 59.4618 107.137 59.245 107.087V106.503C59.4062 106.538 59.5863 106.556 59.7856 106.556C60.2865 106.556 60.644 106.274 60.8578 105.712L61.1259 105.026L59.1835 100.184ZM66.698 105.088C65.9861 105.088 65.4236 104.871 65.0105 104.438C64.6003 104.004 64.3953 103.402 64.3953 102.631C64.3953 101.855 64.5857 101.238 64.9665 100.781C65.3503 100.324 65.8645 100.096 66.509 100.096C67.1125 100.096 67.5901 100.295 67.9416 100.693C68.2932 101.089 68.469 101.612 68.469 102.262V102.724H65.1511C65.1658 103.289 65.3079 103.718 65.5774 104.011C65.8498 104.304 66.2322 104.451 66.7244 104.451C67.2429 104.451 67.7556 104.342 68.2624 104.125V104.776C68.0046 104.887 67.76 104.966 67.5286 105.013C67.3 105.063 67.0232 105.088 66.698 105.088ZM66.5002 100.707C66.1135 100.707 65.8044 100.833 65.573 101.084C65.3445 101.336 65.2097 101.685 65.1687 102.13H67.6868C67.6868 101.67 67.5842 101.319 67.3791 101.076C67.1741 100.83 66.8811 100.707 66.5002 100.707ZM72.8589 105L72.7139 104.314H72.6788C72.4385 104.616 72.1983 104.821 71.9581 104.93C71.7208 105.035 71.4234 105.088 71.066 105.088C70.5884 105.088 70.2134 104.965 69.941 104.719C69.6714 104.473 69.5367 104.123 69.5367 103.668C69.5367 102.696 70.3145 102.186 71.8702 102.139L72.6876 102.113V101.814C72.6876 101.436 72.6055 101.158 72.4415 100.979C72.2803 100.797 72.0211 100.707 71.6636 100.707C71.2623 100.707 70.8082 100.83 70.3013 101.076L70.0772 100.518C70.3145 100.389 70.5738 100.288 70.855 100.214C71.1392 100.141 71.4234 100.104 71.7076 100.104C72.2818 100.104 72.7066 100.232 72.982 100.487C73.2603 100.742 73.3995 101.15 73.3995 101.713V105H72.8589ZM71.211 104.486C71.6651 104.486 72.0211 104.361 72.2789 104.112C72.5396 103.863 72.67 103.515 72.67 103.066V102.631L71.9405 102.662C71.3604 102.683 70.9415 102.773 70.6837 102.935C70.4288 103.093 70.3013 103.34 70.3013 103.677C70.3013 103.941 70.3804 104.142 70.5386 104.279C70.6998 104.417 70.9239 104.486 71.211 104.486ZM77.2841 100.096C77.4979 100.096 77.6898 100.113 77.8597 100.148L77.7587 100.825C77.5595 100.781 77.3837 100.759 77.2313 100.759C76.8417 100.759 76.5077 100.917 76.2294 101.234C75.954 101.55 75.8163 101.944 75.8163 102.416V105H75.0868V100.184H75.6888L75.7723 101.076H75.8075C75.9862 100.762 76.2015 100.521 76.4535 100.351C76.7054 100.181 76.9823 100.096 77.2841 100.096Z" fill="white"/>
<path d="M111.026 79.0513C111.026 80.0109 110.785 80.7611 110.301 81.3018C109.818 81.8389 109.15 82.1074 108.298 82.1074C107.771 82.1074 107.304 81.9839 106.896 81.7368C106.488 81.4897 106.173 81.1353 105.951 80.6733C105.729 80.2114 105.618 79.6707 105.618 79.0513C105.618 78.0916 105.858 77.3451 106.337 76.8115C106.817 76.2744 107.483 76.0059 108.335 76.0059C109.159 76.0059 109.812 76.2798 110.296 76.8276C110.783 77.3755 111.026 78.1167 111.026 79.0513ZM106.542 79.0513C106.542 79.8032 106.692 80.3761 106.993 80.77C107.293 81.1639 107.736 81.3608 108.319 81.3608C108.903 81.3608 109.345 81.1657 109.646 80.7754C109.95 80.3815 110.103 79.8068 110.103 79.0513C110.103 78.3029 109.95 77.7354 109.646 77.3486C109.345 76.9583 108.899 76.7632 108.309 76.7632C107.725 76.7632 107.285 76.9548 106.987 77.3379C106.69 77.721 106.542 78.2922 106.542 79.0513ZM115.5 76.0059C115.762 76.0059 115.996 76.0273 116.204 76.0703L116.08 76.8975C115.837 76.8438 115.622 76.8169 115.436 76.8169C114.96 76.8169 114.551 77.0103 114.211 77.397C113.875 77.7837 113.706 78.2653 113.706 78.8418V82H112.815V76.1133H113.551L113.653 77.2036H113.696C113.914 76.8205 114.177 76.5251 114.485 76.3174C114.793 76.1097 115.131 76.0059 115.5 76.0059Z" fill="white"/>
<path d="M100.913 204V200.867C100.913 200.483 100.831 200.196 100.667 200.005C100.502 199.812 100.248 199.715 99.9019 199.715C99.4478 199.715 99.1123 199.846 98.8955 200.106C98.6787 200.367 98.5703 200.769 98.5703 201.311V204H97.8408V200.867C97.8408 200.483 97.7588 200.196 97.5947 200.005C97.4307 199.812 97.1743 199.715 96.8257 199.715C96.3687 199.715 96.0332 199.853 95.8193 200.128C95.6084 200.401 95.5029 200.849 95.5029 201.473V204H94.7734V199.184H95.3667L95.4854 199.843H95.5205C95.6582 199.608 95.8516 199.425 96.1006 199.293C96.3525 199.162 96.6338 199.096 96.9443 199.096C97.6973 199.096 98.1895 199.368 98.4209 199.913H98.4561C98.5996 199.661 98.8076 199.462 99.0801 199.315C99.3525 199.169 99.6631 199.096 100.012 199.096C100.557 199.096 100.964 199.236 101.233 199.518C101.506 199.796 101.642 200.243 101.642 200.858V204H100.913ZM107.487 201.587C107.487 202.373 107.289 202.986 106.893 203.429C106.498 203.868 105.951 204.088 105.254 204.088C104.824 204.088 104.441 203.987 104.107 203.785C103.773 203.583 103.515 203.292 103.334 202.915C103.152 202.537 103.061 202.094 103.061 201.587C103.061 200.802 103.258 200.191 103.65 199.755C104.043 199.315 104.588 199.096 105.285 199.096C105.959 199.096 106.493 199.32 106.889 199.768C107.287 200.216 107.487 200.823 107.487 201.587ZM103.817 201.587C103.817 202.203 103.94 202.671 104.186 202.994C104.432 203.316 104.794 203.477 105.272 203.477C105.749 203.477 106.111 203.317 106.357 202.998C106.606 202.676 106.731 202.206 106.731 201.587C106.731 200.975 106.606 200.511 106.357 200.194C106.111 199.875 105.746 199.715 105.263 199.715C104.785 199.715 104.425 199.872 104.182 200.186C103.939 200.499 103.817 200.966 103.817 201.587ZM112.246 204V200.884C112.246 200.492 112.156 200.199 111.978 200.005C111.799 199.812 111.519 199.715 111.138 199.715C110.634 199.715 110.265 199.852 110.031 200.124C109.797 200.396 109.679 200.846 109.679 201.473V204H108.95V199.184H109.543L109.662 199.843H109.697C109.846 199.605 110.056 199.422 110.325 199.293C110.595 199.162 110.895 199.096 111.226 199.096C111.806 199.096 112.243 199.236 112.536 199.518C112.829 199.796 112.975 200.243 112.975 200.858V204H112.246ZM116.214 203.486C116.343 203.486 116.467 203.477 116.587 203.459C116.707 203.439 116.803 203.418 116.873 203.398V203.956C116.794 203.994 116.677 204.025 116.521 204.048C116.369 204.075 116.231 204.088 116.108 204.088C115.177 204.088 114.711 203.597 114.711 202.616V199.75H114.021V199.399L114.711 199.096L115.019 198.067H115.44V199.184H116.838V199.75H115.44V202.585C115.44 202.875 115.509 203.098 115.647 203.253C115.785 203.408 115.974 203.486 116.214 203.486ZM121.316 204V200.884C121.316 200.492 121.226 200.199 121.048 200.005C120.869 199.812 120.589 199.715 120.208 199.715C119.701 199.715 119.331 199.853 119.096 200.128C118.865 200.404 118.749 200.855 118.749 201.482V204H118.02V197.162H118.749V199.232C118.749 199.481 118.738 199.688 118.714 199.852H118.758C118.902 199.62 119.105 199.438 119.369 199.307C119.636 199.172 119.939 199.104 120.279 199.104C120.867 199.104 121.308 199.245 121.601 199.526C121.897 199.805 122.045 200.249 122.045 200.858V204H121.316Z" fill="#253848"/>
<path d="M18.7852 35.2891H20.3984C21.1562 35.2891 21.7044 35.4023 22.043 35.6289C22.3815 35.8555 22.5508 36.2135 22.5508 36.7031C22.5508 37.0417 22.4557 37.3216 22.2656 37.543C22.0781 37.7617 21.8034 37.9036 21.4414 37.9688V38.0078C22.3086 38.1562 22.7422 38.612 22.7422 39.375C22.7422 39.8854 22.569 40.2839 22.2227 40.5703C21.8789 40.8568 21.3971 41 20.7773 41H18.7852V35.2891ZM19.4492 37.7344H20.543C21.0117 37.7344 21.349 37.6615 21.5547 37.5156C21.7604 37.3672 21.8633 37.1185 21.8633 36.7695C21.8633 36.4492 21.7487 36.2188 21.5195 36.0781C21.2904 35.9349 20.9258 35.8633 20.4258 35.8633H19.4492V37.7344ZM19.4492 38.2969V40.4336H20.6406C21.1016 40.4336 21.4479 40.3451 21.6797 40.168C21.9141 39.9883 22.0312 39.7083 22.0312 39.3281C22.0312 38.974 21.9115 38.7135 21.6719 38.5469C21.4349 38.3802 21.0729 38.2969 20.5859 38.2969H19.4492ZM26.5078 41L26.3789 40.3906H26.3477C26.1341 40.6589 25.9206 40.8411 25.707 40.9375C25.4961 41.0312 25.2318 41.0781 24.9141 41.0781C24.4896 41.0781 24.1562 40.9688 23.9141 40.75C23.6745 40.5312 23.5547 40.2201 23.5547 39.8164C23.5547 38.9518 24.2461 38.4987 25.6289 38.457L26.3555 38.4336V38.168C26.3555 37.832 26.2826 37.5846 26.1367 37.4258C25.9935 37.2643 25.763 37.1836 25.4453 37.1836C25.0885 37.1836 24.6849 37.293 24.2344 37.5117L24.0352 37.0156C24.2461 36.901 24.4766 36.8112 24.7266 36.7461C24.9792 36.681 25.2318 36.6484 25.4844 36.6484C25.9948 36.6484 26.3724 36.7617 26.6172 36.9883C26.8646 37.2148 26.9883 37.5781 26.9883 38.0781V41H26.5078ZM25.043 40.543C25.4466 40.543 25.763 40.4323 25.9922 40.2109C26.224 39.9896 26.3398 39.6797 26.3398 39.2812V38.8945L25.6914 38.9219C25.1758 38.9401 24.8034 39.0208 24.5742 39.1641C24.3477 39.3047 24.2344 39.5247 24.2344 39.8242C24.2344 40.0586 24.3047 40.237 24.4453 40.3594C24.5885 40.4818 24.7878 40.543 25.043 40.543ZM31.0898 39.832C31.0898 40.2305 30.9414 40.5378 30.6445 40.7539C30.3477 40.9701 29.931 41.0781 29.3945 41.0781C28.8268 41.0781 28.3841 40.9883 28.0664 40.8086V40.207C28.2721 40.3112 28.4922 40.3932 28.7266 40.4531C28.9635 40.513 29.1914 40.543 29.4102 40.543C29.7487 40.543 30.0091 40.4896 30.1914 40.3828C30.3737 40.2734 30.4648 40.1081 30.4648 39.8867C30.4648 39.7201 30.3919 39.5781 30.2461 39.4609C30.1029 39.3411 29.8216 39.2005 29.4023 39.0391C29.0039 38.8906 28.7201 38.7617 28.5508 38.6523C28.3841 38.5404 28.2591 38.4141 28.1758 38.2734C28.0951 38.1328 28.0547 37.9648 28.0547 37.7695C28.0547 37.4206 28.1966 37.1458 28.4805 36.9453C28.7643 36.7422 29.1536 36.6406 29.6484 36.6406C30.1094 36.6406 30.5599 36.7344 31 36.9219L30.7695 37.4492C30.3398 37.2721 29.9505 37.1836 29.6016 37.1836C29.2943 37.1836 29.0625 37.2318 28.9062 37.3281C28.75 37.4245 28.6719 37.5573 28.6719 37.7266C28.6719 37.8411 28.7005 37.9388 28.7578 38.0195C28.8177 38.1003 28.9128 38.1771 29.043 38.25C29.1732 38.3229 29.4232 38.4284 29.793 38.5664C30.3008 38.7513 30.6432 38.9375 30.8203 39.125C31 39.3125 31.0898 39.5482 31.0898 39.832ZM32.7969 41H32.1484V36.7188H32.7969V41ZM32.0938 35.5586C32.0938 35.4102 32.1302 35.3021 32.2031 35.2344C32.276 35.1641 32.3672 35.1289 32.4766 35.1289C32.5807 35.1289 32.6706 35.1641 32.7461 35.2344C32.8216 35.3047 32.8594 35.4128 32.8594 35.5586C32.8594 35.7044 32.8216 35.8138 32.7461 35.8867C32.6706 35.957 32.5807 35.9922 32.4766 35.9922C32.3672 35.9922 32.276 35.957 32.2031 35.8867C32.1302 35.8138 32.0938 35.7044 32.0938 35.5586ZM35.8828 41.0781C35.263 41.0781 34.7826 40.888 34.4414 40.5078C34.1029 40.125 33.9336 39.5846 33.9336 38.8867C33.9336 38.1706 34.1055 37.6172 34.4492 37.2266C34.7956 36.8359 35.2878 36.6406 35.9258 36.6406C36.1315 36.6406 36.3372 36.6628 36.543 36.707C36.7487 36.7513 36.9102 36.8034 37.0273 36.8633L36.8281 37.4141C36.6849 37.3568 36.5286 37.3099 36.3594 37.2734C36.1901 37.2344 36.0404 37.2148 35.9102 37.2148C35.0404 37.2148 34.6055 37.7695 34.6055 38.8789C34.6055 39.4049 34.7109 39.8086 34.9219 40.0898C35.1354 40.3711 35.4505 40.5117 35.8672 40.5117C36.224 40.5117 36.5898 40.4349 36.9648 40.2812V40.8555C36.6784 41.0039 36.3177 41.0781 35.8828 41.0781Z" fill="white"/>
<path d="M152.234 87H147.645V68.5625C147.645 66.362 147.697 64.6172 147.801 63.3281C147.501 63.6406 147.13 63.9857 146.688 64.3633C146.258 64.7409 144.799 65.9388 142.312 67.957L140.008 65.0469L148.406 58.4453H152.234V87ZM181.765 87H162.409V83.5234L169.773 76.1211C171.947 73.8945 173.386 72.319 174.089 71.3945C174.805 70.457 175.326 69.5781 175.652 68.7578C175.977 67.9375 176.14 67.0586 176.14 66.1211C176.14 64.832 175.749 63.8164 174.968 63.0742C174.2 62.332 173.132 61.9609 171.765 61.9609C170.671 61.9609 169.61 62.1628 168.581 62.5664C167.566 62.9701 166.387 63.6992 165.046 64.7539L162.566 61.7266C164.154 60.3854 165.697 59.4349 167.195 58.875C168.692 58.3151 170.287 58.0352 171.98 58.0352C174.636 58.0352 176.765 58.7318 178.366 60.125C179.968 61.5052 180.769 63.3672 180.769 65.7109C180.769 67 180.534 68.224 180.066 69.3828C179.61 70.5417 178.9 71.7396 177.937 72.9766C176.986 74.2005 175.398 75.8607 173.171 77.957L168.21 82.7617V82.957H181.765V87Z" fill="white"/>
<path d="M140.698 105.088C140.001 105.088 139.46 104.874 139.077 104.446C138.696 104.016 138.505 103.408 138.505 102.623C138.505 101.817 138.699 101.194 139.085 100.755C139.475 100.315 140.029 100.096 140.747 100.096C140.978 100.096 141.209 100.121 141.441 100.17C141.672 100.22 141.854 100.279 141.986 100.346L141.762 100.966C141.601 100.901 141.425 100.849 141.234 100.808C141.044 100.764 140.875 100.742 140.729 100.742C139.75 100.742 139.261 101.366 139.261 102.614C139.261 103.206 139.38 103.66 139.617 103.976C139.857 104.292 140.212 104.451 140.681 104.451C141.082 104.451 141.494 104.364 141.916 104.191V104.837C141.593 105.004 141.188 105.088 140.698 105.088ZM146.204 105L146.059 104.314H146.024C145.784 104.616 145.544 104.821 145.304 104.93C145.066 105.035 144.769 105.088 144.411 105.088C143.934 105.088 143.559 104.965 143.286 104.719C143.017 104.473 142.882 104.123 142.882 103.668C142.882 102.696 143.66 102.186 145.216 102.139L146.033 102.113V101.814C146.033 101.436 145.951 101.158 145.787 100.979C145.626 100.797 145.367 100.707 145.009 100.707C144.608 100.707 144.154 100.83 143.647 101.076L143.423 100.518C143.66 100.389 143.919 100.288 144.201 100.214C144.485 100.141 144.769 100.104 145.053 100.104C145.627 100.104 146.052 100.232 146.327 100.487C146.606 100.742 146.745 101.15 146.745 101.713V105H146.204ZM144.556 104.486C145.011 104.486 145.367 104.361 145.624 104.112C145.885 103.863 146.015 103.515 146.015 103.066V102.631L145.286 102.662C144.706 102.683 144.287 102.773 144.029 102.935C143.774 103.093 143.647 103.34 143.647 103.677C143.647 103.941 143.726 104.142 143.884 104.279C144.045 104.417 144.269 104.486 144.556 104.486ZM150.63 100.096C150.843 100.096 151.035 100.113 151.205 100.148L151.104 100.825C150.905 100.781 150.729 100.759 150.577 100.759C150.187 100.759 149.853 100.917 149.575 101.234C149.299 101.55 149.162 101.944 149.162 102.416V105H148.432V100.184H149.034L149.118 101.076H149.153C149.332 100.762 149.547 100.521 149.799 100.351C150.051 100.181 150.328 100.096 150.63 100.096ZM155.564 104.354H155.525C155.188 104.843 154.684 105.088 154.013 105.088C153.383 105.088 152.893 104.873 152.541 104.442C152.192 104.011 152.018 103.399 152.018 102.605C152.018 101.811 152.194 101.194 152.545 100.755C152.897 100.315 153.386 100.096 154.013 100.096C154.666 100.096 155.167 100.333 155.516 100.808H155.573L155.542 100.46L155.525 100.122V98.1621H156.254V105H155.661L155.564 104.354ZM154.105 104.477C154.603 104.477 154.964 104.342 155.186 104.073C155.412 103.8 155.525 103.362 155.525 102.759V102.605C155.525 101.922 155.411 101.436 155.182 101.146C154.957 100.853 154.595 100.707 154.097 100.707C153.669 100.707 153.341 100.874 153.112 101.208C152.887 101.539 152.774 102.007 152.774 102.614C152.774 103.229 152.887 103.693 153.112 104.007C153.338 104.32 153.669 104.477 154.105 104.477ZM161.093 103.686C161.093 104.134 160.926 104.48 160.592 104.723C160.258 104.966 159.789 105.088 159.185 105.088C158.547 105.088 158.049 104.987 157.691 104.785V104.108C157.923 104.225 158.17 104.317 158.434 104.385C158.7 104.452 158.957 104.486 159.203 104.486C159.584 104.486 159.877 104.426 160.082 104.306C160.287 104.183 160.389 103.997 160.389 103.748C160.389 103.56 160.307 103.4 160.143 103.269C159.982 103.134 159.666 102.976 159.194 102.794C158.746 102.627 158.427 102.482 158.236 102.359C158.049 102.233 157.908 102.091 157.814 101.933C157.723 101.774 157.678 101.585 157.678 101.366C157.678 100.973 157.838 100.664 158.157 100.438C158.476 100.21 158.914 100.096 159.471 100.096C159.99 100.096 160.496 100.201 160.991 100.412L160.732 101.005C160.249 100.806 159.811 100.707 159.418 100.707C159.073 100.707 158.812 100.761 158.636 100.869C158.46 100.978 158.372 101.127 158.372 101.317C158.372 101.446 158.405 101.556 158.469 101.647C158.536 101.738 158.643 101.824 158.79 101.906C158.936 101.988 159.218 102.107 159.634 102.262C160.205 102.47 160.59 102.68 160.789 102.891C160.991 103.102 161.093 103.367 161.093 103.686ZM164.902 98.5752L162.507 105H161.778L164.173 98.5752H164.902ZM165.184 100.184H165.966L167.02 102.93C167.252 103.557 167.395 104.01 167.451 104.288H167.486C167.524 104.139 167.603 103.884 167.724 103.523C167.847 103.16 168.245 102.047 168.919 100.184H169.701L167.631 105.668C167.426 106.21 167.186 106.594 166.911 106.819C166.638 107.048 166.303 107.162 165.904 107.162C165.682 107.162 165.462 107.137 165.245 107.087V106.503C165.406 106.538 165.586 106.556 165.786 106.556C166.287 106.556 166.644 106.274 166.858 105.712L167.126 105.026L165.184 100.184ZM172.698 105.088C171.986 105.088 171.424 104.871 171.01 104.438C170.6 104.004 170.395 103.402 170.395 102.631C170.395 101.855 170.586 101.238 170.967 100.781C171.35 100.324 171.864 100.096 172.509 100.096C173.113 100.096 173.59 100.295 173.942 100.693C174.293 101.089 174.469 101.612 174.469 102.262V102.724H171.151C171.166 103.289 171.308 103.718 171.577 104.011C171.85 104.304 172.232 104.451 172.724 104.451C173.243 104.451 173.756 104.342 174.262 104.125V104.776C174.005 104.887 173.76 104.966 173.529 105.013C173.3 105.063 173.023 105.088 172.698 105.088ZM172.5 100.707C172.114 100.707 171.804 100.833 171.573 101.084C171.344 101.336 171.21 101.685 171.169 102.13H173.687C173.687 101.67 173.584 101.319 173.379 101.076C173.174 100.83 172.881 100.707 172.5 100.707ZM178.859 105L178.714 104.314H178.679C178.439 104.616 178.198 104.821 177.958 104.93C177.721 105.035 177.423 105.088 177.066 105.088C176.588 105.088 176.213 104.965 175.941 104.719C175.671 104.473 175.537 104.123 175.537 103.668C175.537 102.696 176.315 102.186 177.87 102.139L178.688 102.113V101.814C178.688 101.436 178.606 101.158 178.441 100.979C178.28 100.797 178.021 100.707 177.664 100.707C177.262 100.707 176.808 100.83 176.301 101.076L176.077 100.518C176.315 100.389 176.574 100.288 176.855 100.214C177.139 100.141 177.423 100.104 177.708 100.104C178.282 100.104 178.707 100.232 178.982 100.487C179.26 100.742 179.399 101.15 179.399 101.713V105H178.859ZM177.211 104.486C177.665 104.486 178.021 104.361 178.279 104.112C178.54 103.863 178.67 103.515 178.67 103.066V102.631L177.94 102.662C177.36 102.683 176.941 102.773 176.684 102.935C176.429 103.093 176.301 103.34 176.301 103.677C176.301 103.941 176.38 104.142 176.539 104.279C176.7 104.417 176.924 104.486 177.211 104.486ZM183.284 100.096C183.498 100.096 183.69 100.113 183.86 100.148L183.759 100.825C183.559 100.781 183.384 100.759 183.231 100.759C182.842 100.759 182.508 100.917 182.229 101.234C181.954 101.55 181.816 101.944 181.816 102.416V105H181.087V100.184H181.689L181.772 101.076H181.807C181.986 100.762 182.202 100.521 182.453 100.351C182.705 100.181 182.982 100.096 183.284 100.096Z" fill="white"/>
<path d="M129.406 36.9531C129.406 37.5312 129.208 37.9766 128.812 38.2891C128.419 38.599 127.855 38.7539 127.121 38.7539H126.449V41H125.785V35.2891H127.266C128.693 35.2891 129.406 35.8438 129.406 36.9531ZM126.449 38.1836H127.047C127.635 38.1836 128.061 38.0885 128.324 37.8984C128.587 37.7083 128.719 37.4036 128.719 36.9844C128.719 36.6068 128.595 36.3255 128.348 36.1406C128.1 35.9557 127.715 35.8633 127.191 35.8633H126.449V38.1836ZM132.461 36.6406C132.651 36.6406 132.822 36.6562 132.973 36.6875L132.883 37.2891C132.706 37.25 132.549 37.2305 132.414 37.2305C132.068 37.2305 131.771 37.3711 131.523 37.6523C131.279 37.9336 131.156 38.2839 131.156 38.7031V41H130.508V36.7188H131.043L131.117 37.5117H131.148C131.307 37.2331 131.499 37.0182 131.723 36.8672C131.947 36.7161 132.193 36.6406 132.461 36.6406ZM135.582 41.0781C134.949 41.0781 134.449 40.8854 134.082 40.5C133.717 40.1146 133.535 39.5794 133.535 38.8945C133.535 38.2044 133.704 37.6562 134.043 37.25C134.384 36.8438 134.841 36.6406 135.414 36.6406C135.951 36.6406 136.375 36.8177 136.688 37.1719C137 37.5234 137.156 37.9883 137.156 38.5664V38.9766H134.207C134.22 39.4792 134.346 39.8607 134.586 40.1211C134.828 40.3815 135.168 40.5117 135.605 40.5117C136.066 40.5117 136.522 40.4154 136.973 40.2227V40.8008C136.743 40.8997 136.526 40.9701 136.32 41.0117C136.117 41.056 135.871 41.0781 135.582 41.0781ZM135.406 37.1836C135.062 37.1836 134.788 37.2956 134.582 37.5195C134.379 37.7435 134.259 38.0534 134.223 38.4492H136.461C136.461 38.0404 136.37 37.7279 136.188 37.5117C136.005 37.293 135.745 37.1836 135.406 37.1836ZM143.723 41V38.2148C143.723 37.8737 143.65 37.6185 143.504 37.4492C143.358 37.2773 143.132 37.1914 142.824 37.1914C142.421 37.1914 142.122 37.3073 141.93 37.5391C141.737 37.7708 141.641 38.1276 141.641 38.6094V41H140.992V38.2148C140.992 37.8737 140.919 37.6185 140.773 37.4492C140.628 37.2773 140.4 37.1914 140.09 37.1914C139.684 37.1914 139.385 37.3138 139.195 37.5586C139.008 37.8008 138.914 38.1992 138.914 38.7539V41H138.266V36.7188H138.793L138.898 37.3047H138.93C139.052 37.0964 139.224 36.9336 139.445 36.8164C139.669 36.6992 139.919 36.6406 140.195 36.6406C140.865 36.6406 141.302 36.8828 141.508 37.3672H141.539C141.667 37.1432 141.852 36.9661 142.094 36.8359C142.336 36.7057 142.612 36.6406 142.922 36.6406C143.406 36.6406 143.768 36.7656 144.008 37.0156C144.25 37.263 144.371 37.6602 144.371 38.207V41H143.723ZM146.359 41H145.711V36.7188H146.359V41ZM145.656 35.5586C145.656 35.4102 145.693 35.3021 145.766 35.2344C145.839 35.1641 145.93 35.1289 146.039 35.1289C146.143 35.1289 146.233 35.1641 146.309 35.2344C146.384 35.3047 146.422 35.4128 146.422 35.5586C146.422 35.7044 146.384 35.8138 146.309 35.8867C146.233 35.957 146.143 35.9922 146.039 35.9922C145.93 35.9922 145.839 35.957 145.766 35.8867C145.693 35.8138 145.656 35.7044 145.656 35.5586ZM148.344 36.7188V39.4961C148.344 39.8451 148.423 40.1055 148.582 40.2773C148.741 40.4492 148.99 40.5352 149.328 40.5352C149.776 40.5352 150.103 40.4128 150.309 40.168C150.517 39.9232 150.621 39.5234 150.621 38.9688V36.7188H151.27V41H150.734L150.641 40.4258H150.605C150.473 40.6367 150.288 40.7982 150.051 40.9102C149.816 41.0221 149.548 41.0781 149.246 41.0781C148.725 41.0781 148.335 40.9544 148.074 40.707C147.816 40.4596 147.688 40.0638 147.688 39.5195V36.7188H148.344ZM158.105 41V38.2148C158.105 37.8737 158.033 37.6185 157.887 37.4492C157.741 37.2773 157.514 37.1914 157.207 37.1914C156.803 37.1914 156.505 37.3073 156.312 37.5391C156.12 37.7708 156.023 38.1276 156.023 38.6094V41H155.375V38.2148C155.375 37.8737 155.302 37.6185 155.156 37.4492C155.01 37.2773 154.783 37.1914 154.473 37.1914C154.066 37.1914 153.768 37.3138 153.578 37.5586C153.391 37.8008 153.297 38.1992 153.297 38.7539V41H152.648V36.7188H153.176L153.281 37.3047H153.312C153.435 37.0964 153.607 36.9336 153.828 36.8164C154.052 36.6992 154.302 36.6406 154.578 36.6406C155.247 36.6406 155.685 36.8828 155.891 37.3672H155.922C156.049 37.1432 156.234 36.9661 156.477 36.8359C156.719 36.7057 156.995 36.6406 157.305 36.6406C157.789 36.6406 158.151 36.7656 158.391 37.0156C158.633 37.263 158.754 37.6602 158.754 38.207V41H158.105Z" fill="white"/>
<path d="M97.7578 188H93.9609V163.578C93.9609 161.547 94.0234 159.625 94.1484 157.812C93.8203 158.141 93.4531 158.484 93.0469 158.844C92.6406 159.203 90.7812 160.727 87.4688 163.414L85.4062 160.742L94.4766 153.734H97.7578V188ZM134.296 188H111.772V184.648L120.796 175.578C123.546 172.797 125.358 170.812 126.233 169.625C127.108 168.438 127.765 167.281 128.202 166.156C128.64 165.031 128.858 163.82 128.858 162.523C128.858 160.695 128.304 159.25 127.194 158.188C126.085 157.109 124.546 156.57 122.577 156.57C121.155 156.57 119.804 156.805 118.522 157.273C117.257 157.742 115.843 158.594 114.28 159.828L112.218 157.18C115.374 154.555 118.812 153.242 122.53 153.242C125.749 153.242 128.272 154.07 130.101 155.727C131.929 157.367 132.843 159.578 132.843 162.359C132.843 164.531 132.233 166.68 131.015 168.805C129.796 170.93 127.515 173.617 124.171 176.867L116.671 184.203V184.391H134.296V188Z" fill="#253848"/>
<line x1="109.5" y1="35" x2="109.5" y2="62" stroke="white"/>
<line x1="109.5" y1="95" x2="109.5" y2="122" stroke="white"/>
<path d="M79.1055 160.054C79.1055 160.851 78.8066 161.51 78.209 162.031C77.6113 162.547 76.7764 162.872 75.7041 163.007V165.046H74.5703V163.086C73.9141 163.086 73.2783 163.036 72.6631 162.937C72.0479 162.831 71.5439 162.688 71.1514 162.506V161.135C71.6377 161.352 72.1973 161.53 72.8301 161.671C73.4688 161.806 74.0488 161.873 74.5703 161.873V158.006C73.3691 157.625 72.5254 157.183 72.0391 156.679C71.5586 156.175 71.3184 155.524 71.3184 154.728C71.3184 153.96 71.6143 153.33 72.2061 152.838C72.8037 152.346 73.5918 152.047 74.5703 151.941V150.342H75.7041V151.924C76.7822 151.953 77.8223 152.17 78.8242 152.574L78.3672 153.726C77.4941 153.38 76.6064 153.175 75.7041 153.11V156.925C76.624 157.218 77.3125 157.505 77.7695 157.786C78.2266 158.062 78.5635 158.381 78.7803 158.744C78.9971 159.102 79.1055 159.538 79.1055 160.054ZM77.6113 160.168C77.6113 159.746 77.4795 159.406 77.2158 159.148C76.958 158.885 76.4541 158.624 75.7041 158.366V161.785C76.9756 161.609 77.6113 161.07 77.6113 160.168ZM72.8037 154.71C72.8037 155.155 72.9355 155.513 73.1992 155.782C73.4629 156.052 73.9199 156.307 74.5703 156.547V153.146C73.9902 153.239 73.5508 153.424 73.252 153.699C72.9531 153.969 72.8037 154.306 72.8037 154.71Z" fill="#253848"/>
</g>
<defs>
<filter id="filter0_d" x="0" y="0" width="225" height="275" filterUnits="userSpaceOnUse" color-interpolation-filters="sRGB">
<feFlood flood-opacity="0" result="BackgroundImageFix"/>
<feColorMatrix in="SourceAlpha" type="matrix" values="0 0 0 0 0 0 0 0 0 0 0 0 0 0 0 0 0 0 127 0"/>
<feOffset dx="4" dy="8"/>
<feGaussianBlur stdDeviation="3"/>
<feColorMatrix type="matrix" values="0 0 0 0 0.145503 0 0 0 0 0.219461 0 0 0 0 0.283333 0 0 0 0.33 0"/>
<feBlend mode="normal" in2="BackgroundImageFix" result="effect1_dropShadow"/>
<feBlend mode="normal" in="SourceGraphic" in2="effect1_dropShadow" result="shape"/>
</filter>
</defs>
</svg>
