<svg width="225" height="275" viewBox="0 0 225 275" fill="none" xmlns="http://www.w3.org/2000/svg">
<g filter="url(#filter0_d)">
<path fill-rule="evenodd" clip-rule="evenodd" d="M10 0C5.02944 0 1 4.02944 1 9V26V120V252C1 256.971 5.02943 261 9.99999 261H205C209.971 261 214 256.971 214 252V120V26V9C214 4.02944 209.971 0 205 0H10Z" fill="#8ADDE6"/>
<path fill-rule="evenodd" clip-rule="evenodd" d="M10 0C5.02944 0 1 4.02944 1 9V26V120V252C1 256.971 5.02943 261 9.99999 261H205C209.971 261 214 256.971 214 252V120V26V9C214 4.02944 209.971 0 205 0H10Z" fill="#63A968"/>
<path d="M63.7427 245.394C63.7427 245.942 63.5386 246.364 63.1304 246.662C62.7222 246.959 62.1493 247.107 61.4116 247.107C60.631 247.107 60.0223 246.984 59.5854 246.737V245.91C59.8683 246.053 60.1709 246.166 60.4932 246.248C60.819 246.33 61.1323 246.372 61.4331 246.372C61.8986 246.372 62.2567 246.298 62.5073 246.151C62.758 246.001 62.8833 245.774 62.8833 245.469C62.8833 245.24 62.783 245.045 62.5825 244.884C62.3856 244.719 61.9989 244.526 61.4224 244.304C60.8745 244.1 60.4842 243.922 60.2515 243.772C60.0223 243.618 59.8504 243.444 59.7358 243.251C59.6248 243.058 59.5693 242.827 59.5693 242.558C59.5693 242.078 59.7645 241.701 60.1548 241.425C60.5451 241.146 61.0804 241.006 61.7607 241.006C62.3945 241.006 63.014 241.135 63.6191 241.393L63.3022 242.118C62.7114 241.874 62.1761 241.752 61.6963 241.752C61.2738 241.752 60.9551 241.819 60.7402 241.951C60.5254 242.084 60.418 242.266 60.418 242.499C60.418 242.657 60.4574 242.791 60.5361 242.902C60.6185 243.013 60.7492 243.118 60.9282 243.219C61.1073 243.319 61.451 243.464 61.9595 243.654C62.6577 243.908 63.1286 244.164 63.3721 244.422C63.6191 244.68 63.7427 245.004 63.7427 245.394ZM67.9051 247.107C67.0349 247.107 66.3474 246.842 65.8426 246.312C65.3413 245.783 65.0906 245.047 65.0906 244.105C65.0906 243.156 65.3234 242.402 65.7888 241.844C66.2579 241.285 66.8863 241.006 67.6741 241.006C68.4117 241.006 68.9954 241.249 69.4251 241.736C69.8548 242.22 70.0696 242.859 70.0696 243.654V244.218H66.0144C66.0323 244.909 66.206 245.433 66.5354 245.792C66.8684 246.15 67.3357 246.329 67.9373 246.329C68.5711 246.329 69.1977 246.196 69.8172 245.931V246.726C69.5021 246.862 69.2031 246.959 68.9202 247.016C68.6409 247.077 68.3025 247.107 67.9051 247.107ZM67.6634 241.752C67.1907 241.752 66.8129 241.906 66.5301 242.214C66.2508 242.522 66.086 242.948 66.0359 243.493H69.1136C69.1136 242.931 68.9882 242.501 68.7376 242.204C68.4869 241.903 68.1289 241.752 67.6634 241.752ZM74.3018 247.107C73.4317 247.107 72.7442 246.842 72.2393 246.312C71.738 245.783 71.4874 245.047 71.4874 244.105C71.4874 243.156 71.7201 242.402 72.1856 241.844C72.6547 241.285 73.2831 241.006 74.0709 241.006C74.8085 241.006 75.3921 241.249 75.8218 241.736C76.2515 242.22 76.4664 242.859 76.4664 243.654V244.218H72.4112C72.4291 244.909 72.6028 245.433 72.9322 245.792C73.2652 246.15 73.7325 246.329 74.334 246.329C74.9678 246.329 75.5945 246.196 76.2139 245.931V246.726C75.8988 246.862 75.5998 246.959 75.317 247.016C75.0377 247.077 74.6993 247.107 74.3018 247.107ZM74.0601 241.752C73.5875 241.752 73.2097 241.906 72.9268 242.214C72.6475 242.522 72.4828 242.948 72.4327 243.493H75.5103C75.5103 242.931 75.385 242.501 75.1343 242.204C74.8837 241.903 74.5256 241.752 74.0601 241.752ZM84.9093 247L84.732 246.162H84.6891C84.3955 246.531 84.1018 246.782 83.8082 246.914C83.5182 247.043 83.1547 247.107 82.7179 247.107C82.1342 247.107 81.6759 246.957 81.3429 246.656C81.0135 246.355 80.8487 245.928 80.8487 245.373C80.8487 244.184 81.7994 243.561 83.7008 243.503L84.6998 243.471V243.106C84.6998 242.644 84.5996 242.304 84.399 242.085C84.2021 241.863 83.8852 241.752 83.4484 241.752C82.9578 241.752 82.4028 241.903 81.7833 242.204L81.5094 241.521C81.7994 241.364 82.1163 241.24 82.4601 241.151C82.8074 241.061 83.1547 241.017 83.5021 241.017C84.2039 241.017 84.7231 241.172 85.0597 241.484C85.3999 241.795 85.5699 242.295 85.5699 242.982V247H84.9093ZM82.8951 246.372C83.4501 246.372 83.8852 246.219 84.2003 245.915C84.519 245.611 84.6783 245.185 84.6783 244.637V244.105L83.7867 244.143C83.0778 244.168 82.5657 244.279 82.2506 244.476C81.9391 244.669 81.7833 244.972 81.7833 245.383C81.7833 245.706 81.88 245.951 82.0734 246.119C82.2703 246.287 82.5442 246.372 82.8951 246.372ZM91.6605 247V243.192C91.6605 242.712 91.5513 242.354 91.3329 242.118C91.1145 241.881 90.7725 241.763 90.307 241.763C89.6911 241.763 89.24 241.93 88.9535 242.263C88.6671 242.596 88.5238 243.145 88.5238 243.912V247H87.6322V241.113H88.3573L88.5023 241.919H88.5453C88.7279 241.629 88.984 241.405 89.3134 241.248C89.6428 241.086 90.0098 241.006 90.4145 241.006C91.1234 241.006 91.657 241.178 92.015 241.521C92.3731 241.862 92.5521 242.408 92.5521 243.16V247H91.6605ZM98.6374 247V243.192C98.6374 242.712 98.5282 242.354 98.3097 242.118C98.0913 241.881 97.7494 241.763 97.2839 241.763C96.668 241.763 96.2168 241.93 95.9304 242.263C95.6439 242.596 95.5007 243.145 95.5007 243.912V247H94.6091V241.113H95.3342L95.4792 241.919H95.5221C95.7048 241.629 95.9608 241.405 96.2902 241.248C96.6196 241.086 96.9867 241.006 97.3913 241.006C98.1003 241.006 98.6338 241.178 98.9919 241.521C99.3499 241.862 99.529 242.408 99.529 243.16V247H98.6374ZM102.424 241.113V244.932C102.424 245.412 102.533 245.77 102.751 246.006C102.97 246.243 103.312 246.361 103.777 246.361C104.393 246.361 104.843 246.193 105.125 245.856C105.412 245.519 105.555 244.97 105.555 244.207V241.113H106.447V247H105.711L105.582 246.21H105.534C105.351 246.5 105.097 246.722 104.771 246.876C104.449 247.03 104.08 247.107 103.665 247.107C102.948 247.107 102.411 246.937 102.053 246.597C101.699 246.257 101.521 245.713 101.521 244.964V241.113H102.424ZM112.183 247L112.006 246.162H111.963C111.669 246.531 111.375 246.782 111.082 246.914C110.792 247.043 110.428 247.107 109.991 247.107C109.408 247.107 108.949 246.957 108.616 246.656C108.287 246.355 108.122 245.928 108.122 245.373C108.122 244.184 109.073 243.561 110.974 243.503L111.973 243.471V243.106C111.973 242.644 111.873 242.304 111.673 242.085C111.476 241.863 111.159 241.752 110.722 241.752C110.231 241.752 109.676 241.903 109.057 242.204L108.783 241.521C109.073 241.364 109.39 241.24 109.734 241.151C110.081 241.061 110.428 241.017 110.776 241.017C111.477 241.017 111.997 241.172 112.333 241.484C112.673 241.795 112.843 242.295 112.843 242.982V247H112.183ZM110.169 246.372C110.724 246.372 111.159 246.219 111.474 245.915C111.793 245.611 111.952 245.185 111.952 244.637V244.105L111.06 244.143C110.351 244.168 109.839 244.279 109.524 244.476C109.213 244.669 109.057 244.972 109.057 245.383C109.057 245.706 109.154 245.951 109.347 246.119C109.544 246.287 109.818 246.372 110.169 246.372ZM115.797 247H114.906V238.643H115.797V247ZM123.725 247.107C123.342 247.107 122.991 247.038 122.672 246.898C122.357 246.755 122.092 246.536 121.877 246.243H121.813C121.856 246.586 121.877 246.912 121.877 247.22V249.643H120.985V241.113H121.711L121.834 241.919H121.877C122.106 241.597 122.373 241.364 122.677 241.221C122.982 241.077 123.331 241.006 123.725 241.006C124.505 241.006 125.107 241.273 125.529 241.806C125.955 242.34 126.169 243.088 126.169 244.051C126.169 245.018 125.952 245.77 125.519 246.307C125.089 246.841 124.491 247.107 123.725 247.107ZM123.596 241.763C122.994 241.763 122.559 241.93 122.291 242.263C122.022 242.596 121.884 243.126 121.877 243.853V244.051C121.877 244.878 122.015 245.471 122.291 245.829C122.566 246.184 123.009 246.361 123.617 246.361C124.126 246.361 124.523 246.155 124.81 245.743C125.1 245.331 125.245 244.764 125.245 244.041C125.245 243.306 125.1 242.744 124.81 242.354C124.523 241.96 124.119 241.763 123.596 241.763ZM130.637 241.006C130.898 241.006 131.133 241.027 131.341 241.07L131.217 241.897C130.974 241.844 130.759 241.817 130.573 241.817C130.096 241.817 129.688 242.01 129.348 242.397C129.011 242.784 128.843 243.265 128.843 243.842V247H127.952V241.113H128.687L128.789 242.204H128.832C129.051 241.82 129.314 241.525 129.622 241.317C129.93 241.11 130.268 241.006 130.637 241.006ZM133.553 247H132.662V241.113H133.553V247ZM132.587 239.518C132.587 239.314 132.637 239.165 132.737 239.072C132.837 238.976 132.963 238.927 133.113 238.927C133.256 238.927 133.38 238.976 133.484 239.072C133.587 239.169 133.639 239.318 133.639 239.518C133.639 239.719 133.587 239.869 133.484 239.969C133.38 240.066 133.256 240.114 133.113 240.114C132.963 240.114 132.837 240.066 132.737 239.969C132.637 239.869 132.587 239.719 132.587 239.518ZM138.017 247.107C137.164 247.107 136.504 246.846 136.035 246.323C135.569 245.797 135.336 245.054 135.336 244.094C135.336 243.11 135.573 242.349 136.045 241.812C136.522 241.274 137.198 241.006 138.076 241.006C138.358 241.006 138.641 241.036 138.924 241.097C139.207 241.158 139.429 241.23 139.59 241.312L139.316 242.069C139.119 241.991 138.905 241.926 138.672 241.876C138.439 241.822 138.233 241.795 138.054 241.795C136.858 241.795 136.26 242.558 136.26 244.083C136.26 244.807 136.405 245.362 136.695 245.749C136.989 246.135 137.422 246.329 137.995 246.329C138.486 246.329 138.989 246.223 139.504 246.012V246.801C139.11 247.005 138.615 247.107 138.017 247.107ZM142.018 247H141.126V241.113H142.018V247ZM141.051 239.518C141.051 239.314 141.101 239.165 141.201 239.072C141.302 238.976 141.427 238.927 141.577 238.927C141.721 238.927 141.844 238.976 141.948 239.072C142.052 239.169 142.104 239.318 142.104 239.518C142.104 239.719 142.052 239.869 141.948 239.969C141.844 240.066 141.721 240.114 141.577 240.114C141.427 240.114 141.302 240.066 141.201 239.969C141.101 239.869 141.051 239.719 141.051 239.518ZM148.157 247V243.192C148.157 242.712 148.048 242.354 147.829 242.118C147.611 241.881 147.269 241.763 146.803 241.763C146.187 241.763 145.736 241.93 145.45 242.263C145.163 242.596 145.02 243.145 145.02 243.912V247H144.128V241.113H144.853L144.999 241.919H145.041C145.224 241.629 145.48 241.405 145.81 241.248C146.139 241.086 146.506 241.006 146.911 241.006C147.62 241.006 148.153 241.178 148.511 241.521C148.869 241.862 149.048 242.408 149.048 243.16V247H148.157ZM155.923 241.113V241.677L154.833 241.806C154.933 241.931 155.023 242.096 155.101 242.3C155.18 242.501 155.219 242.728 155.219 242.982C155.219 243.559 155.023 244.019 154.629 244.363C154.235 244.707 153.694 244.878 153.007 244.878C152.831 244.878 152.666 244.864 152.512 244.835C152.133 245.036 151.943 245.288 151.943 245.593C151.943 245.754 152.009 245.874 152.142 245.953C152.274 246.028 152.502 246.065 152.824 246.065H153.866C154.503 246.065 154.992 246.2 155.332 246.468C155.676 246.737 155.848 247.127 155.848 247.639C155.848 248.291 155.587 248.787 155.064 249.127C154.541 249.471 153.778 249.643 152.776 249.643C152.006 249.643 151.411 249.499 150.992 249.213C150.577 248.926 150.369 248.522 150.369 247.999C150.369 247.641 150.484 247.331 150.713 247.07C150.942 246.808 151.265 246.631 151.68 246.538C151.53 246.47 151.402 246.364 151.299 246.221C151.198 246.078 151.148 245.911 151.148 245.722C151.148 245.507 151.205 245.319 151.32 245.158C151.435 244.997 151.615 244.841 151.863 244.69C151.558 244.565 151.309 244.352 151.116 244.051C150.926 243.75 150.831 243.407 150.831 243.02C150.831 242.375 151.025 241.88 151.411 241.532C151.798 241.181 152.346 241.006 153.055 241.006C153.363 241.006 153.64 241.042 153.887 241.113H155.923ZM151.229 247.988C151.229 248.307 151.363 248.549 151.632 248.713C151.9 248.878 152.285 248.96 152.786 248.96C153.535 248.96 154.088 248.848 154.446 248.622C154.808 248.4 154.989 248.097 154.989 247.714C154.989 247.396 154.89 247.174 154.693 247.048C154.496 246.927 154.126 246.866 153.581 246.866H152.512C152.108 246.866 151.793 246.962 151.567 247.156C151.342 247.349 151.229 247.627 151.229 247.988ZM151.712 242.999C151.712 243.41 151.829 243.722 152.061 243.933C152.294 244.144 152.618 244.25 153.033 244.25C153.904 244.25 154.339 243.827 154.339 242.982C154.339 242.098 153.898 241.656 153.017 241.656C152.598 241.656 152.276 241.769 152.051 241.994C151.825 242.22 151.712 242.555 151.712 242.999Z" fill="white"/>
<path d="M1 9C1 4.02944 5.02944 0 10 0H205C209.971 0 214 4.02944 214 9V25H1V9Z" fill="#5B9C60"/>
<rect x="1" y="129" width="213" height="92" fill="white"/>
<path d="M108.403 135L99 128H117L108.403 135Z" fill="#63A968"/>
<path d="M108.313 228L101 221H115L108.313 228Z" fill="white"/>
<path d="M42.2344 87H37.6445V68.5625C37.6445 66.362 37.6966 64.6172 37.8008 63.3281C37.5013 63.6406 37.1302 63.9857 36.6875 64.3633C36.2578 64.7409 34.7995 65.9388 32.3125 67.957L30.0078 65.0469L38.4062 58.4453H42.2344V87ZM71.7648 87H52.4094V83.5234L59.7727 76.1211C61.9471 73.8945 63.3859 72.319 64.0891 71.3945C64.8052 70.457 65.326 69.5781 65.6516 68.7578C65.9771 67.9375 66.1398 67.0586 66.1398 66.1211C66.1398 64.832 65.7492 63.8164 64.968 63.0742C64.1997 62.332 63.132 61.9609 61.7648 61.9609C60.6711 61.9609 59.6099 62.1628 58.5812 62.5664C57.5656 62.9701 56.3872 63.6992 55.0461 64.7539L52.5656 61.7266C54.1542 60.3854 55.6971 59.4349 57.1945 58.875C58.6919 58.3151 60.287 58.0352 61.9797 58.0352C64.6359 58.0352 66.7648 58.7318 68.3664 60.125C69.968 61.5052 70.7687 63.3672 70.7687 65.7109C70.7687 67 70.5344 68.224 70.0656 69.3828C69.6099 70.5417 68.9003 71.7396 67.9367 72.9766C66.9862 74.2005 65.3977 75.8607 63.1711 77.957L58.2102 82.7617V82.957H71.7648V87Z" fill="white"/>
<path d="M31.6982 105.088C31.001 105.088 30.4604 104.874 30.0767 104.446C29.6958 104.016 29.5054 103.408 29.5054 102.623C29.5054 101.817 29.6987 101.194 30.0854 100.755C30.4751 100.315 31.0288 100.096 31.7466 100.096C31.978 100.096 32.2095 100.121 32.4409 100.17C32.6724 100.22 32.854 100.279 32.9858 100.346L32.7617 100.966C32.6006 100.901 32.4248 100.849 32.2344 100.808C32.0439 100.764 31.8755 100.742 31.729 100.742C30.7505 100.742 30.2612 101.366 30.2612 102.614C30.2612 103.206 30.3799 103.66 30.6172 103.976C30.8574 104.292 31.2119 104.451 31.6807 104.451C32.082 104.451 32.4937 104.364 32.9155 104.191V104.837C32.5933 105.004 32.1875 105.088 31.6982 105.088ZM37.2044 105L37.0594 104.314H37.0242C36.784 104.616 36.5438 104.821 36.3035 104.93C36.0662 105.035 35.7689 105.088 35.4114 105.088C34.9339 105.088 34.5589 104.965 34.2864 104.719C34.0169 104.473 33.8821 104.123 33.8821 103.668C33.8821 102.696 34.66 102.186 36.2156 102.139L37.033 102.113V101.814C37.033 101.436 36.951 101.158 36.7869 100.979C36.6258 100.797 36.3665 100.707 36.0091 100.707C35.6077 100.707 35.1536 100.83 34.6468 101.076L34.4227 100.518C34.66 100.389 34.9193 100.288 35.2005 100.214C35.4847 100.141 35.7689 100.104 36.053 100.104C36.6273 100.104 37.0521 100.232 37.3275 100.487C37.6058 100.742 37.7449 101.15 37.7449 101.713V105H37.2044ZM35.5565 104.486C36.0106 104.486 36.3665 104.361 36.6243 104.112C36.8851 103.863 37.0154 103.515 37.0154 103.066V102.631L36.286 102.662C35.7059 102.683 35.2869 102.773 35.0291 102.935C34.7742 103.093 34.6468 103.34 34.6468 103.677C34.6468 103.941 34.7259 104.142 34.8841 104.279C35.0452 104.417 35.2694 104.486 35.5565 104.486ZM41.6295 100.096C41.8434 100.096 42.0353 100.113 42.2052 100.148L42.1041 100.825C41.9049 100.781 41.7291 100.759 41.5768 100.759C41.1871 100.759 40.8532 100.917 40.5748 101.234C40.2995 101.55 40.1618 101.944 40.1618 102.416V105H39.4323V100.184H40.0343L40.1178 101.076H40.153C40.3317 100.762 40.547 100.521 40.799 100.351C41.0509 100.181 41.3278 100.096 41.6295 100.096ZM46.5644 104.354H46.5249C46.1879 104.843 45.684 105.088 45.0131 105.088C44.3833 105.088 43.8925 104.873 43.541 104.442C43.1923 104.011 43.018 103.399 43.018 102.605C43.018 101.811 43.1938 101.194 43.5454 100.755C43.8969 100.315 44.3862 100.096 45.0131 100.096C45.6665 100.096 46.1674 100.333 46.5161 100.808H46.5732L46.5424 100.46L46.5249 100.122V98.1621H47.2544V105H46.6611L46.5644 104.354ZM45.1054 104.477C45.6035 104.477 45.9638 104.342 46.1865 104.073C46.4121 103.8 46.5249 103.362 46.5249 102.759V102.605C46.5249 101.922 46.4106 101.436 46.1821 101.146C45.9565 100.853 45.5947 100.707 45.0966 100.707C44.6689 100.707 44.3408 100.874 44.1123 101.208C43.8867 101.539 43.7739 102.007 43.7739 102.614C43.7739 103.229 43.8867 103.693 44.1123 104.007C44.3379 104.32 44.6689 104.477 45.1054 104.477ZM52.0926 103.686C52.0926 104.134 51.9256 104.48 51.5916 104.723C51.2576 104.966 50.7888 105.088 50.1853 105.088C49.5467 105.088 49.0486 104.987 48.6912 104.785V104.108C48.9226 104.225 49.1702 104.317 49.4339 104.385C49.7005 104.452 49.9568 104.486 50.2029 104.486C50.5838 104.486 50.8767 104.426 51.0818 104.306C51.2869 104.183 51.3894 103.997 51.3894 103.748C51.3894 103.56 51.3074 103.4 51.1433 103.269C50.9822 103.134 50.6658 102.976 50.1941 102.794C49.7459 102.627 49.4265 102.482 49.2361 102.359C49.0486 102.233 48.908 102.091 48.8142 101.933C48.7234 101.774 48.678 101.585 48.678 101.366C48.678 100.973 48.8377 100.664 49.157 100.438C49.4763 100.21 49.9143 100.096 50.471 100.096C50.9895 100.096 51.4964 100.201 51.9915 100.412L51.7322 101.005C51.2488 100.806 50.8108 100.707 50.4182 100.707C50.0725 100.707 49.8118 100.761 49.636 100.869C49.4602 100.978 49.3723 101.127 49.3723 101.317C49.3723 101.446 49.4046 101.556 49.469 101.647C49.5364 101.738 49.6433 101.824 49.7898 101.906C49.9363 101.988 50.2176 102.107 50.6336 102.262C51.2049 102.47 51.5901 102.68 51.7893 102.891C51.9915 103.102 52.0926 103.367 52.0926 103.686ZM55.9024 98.5752L53.5074 105H52.7779L55.1729 98.5752H55.9024ZM56.1835 100.184H56.9657L58.0204 102.93C58.2519 103.557 58.3954 104.01 58.4511 104.288H58.4862C58.5243 104.139 58.6034 103.884 58.7236 103.523C58.8466 103.16 59.245 102.047 59.9189 100.184H60.7011L58.6313 105.668C58.4262 106.21 58.186 106.594 57.9106 106.819C57.6381 107.048 57.3027 107.162 56.9042 107.162C56.6816 107.162 56.4618 107.137 56.245 107.087V106.503C56.4062 106.538 56.5863 106.556 56.7856 106.556C57.2865 106.556 57.644 106.274 57.8578 105.712L58.1259 105.026L56.1835 100.184ZM63.698 105.088C62.9861 105.088 62.4236 104.871 62.0105 104.438C61.6003 104.004 61.3953 103.402 61.3953 102.631C61.3953 101.855 61.5857 101.238 61.9665 100.781C62.3503 100.324 62.8645 100.096 63.509 100.096C64.1125 100.096 64.5901 100.295 64.9416 100.693C65.2932 101.089 65.469 101.612 65.469 102.262V102.724H62.1511C62.1658 103.289 62.3079 103.718 62.5774 104.011C62.8498 104.304 63.2322 104.451 63.7244 104.451C64.2429 104.451 64.7556 104.342 65.2624 104.125V104.776C65.0046 104.887 64.76 104.966 64.5286 105.013C64.3 105.063 64.0232 105.088 63.698 105.088ZM63.5002 100.707C63.1135 100.707 62.8044 100.833 62.573 101.084C62.3445 101.336 62.2097 101.685 62.1687 102.13H64.6868C64.6868 101.67 64.5842 101.319 64.3791 101.076C64.1741 100.83 63.8811 100.707 63.5002 100.707ZM69.8589 105L69.7139 104.314H69.6788C69.4385 104.616 69.1983 104.821 68.9581 104.93C68.7208 105.035 68.4234 105.088 68.066 105.088C67.5884 105.088 67.2134 104.965 66.941 104.719C66.6714 104.473 66.5367 104.123 66.5367 103.668C66.5367 102.696 67.3145 102.186 68.8702 102.139L69.6876 102.113V101.814C69.6876 101.436 69.6055 101.158 69.4415 100.979C69.2803 100.797 69.0211 100.707 68.6636 100.707C68.2623 100.707 67.8082 100.83 67.3013 101.076L67.0772 100.518C67.3145 100.389 67.5738 100.288 67.855 100.214C68.1392 100.141 68.4234 100.104 68.7076 100.104C69.2818 100.104 69.7066 100.232 69.982 100.487C70.2603 100.742 70.3995 101.15 70.3995 101.713V105H69.8589ZM68.211 104.486C68.6651 104.486 69.0211 104.361 69.2789 104.112C69.5396 103.863 69.67 103.515 69.67 103.066V102.631L68.9405 102.662C68.3604 102.683 67.9415 102.773 67.6837 102.935C67.4288 103.093 67.3013 103.34 67.3013 103.677C67.3013 103.941 67.3804 104.142 67.5386 104.279C67.6998 104.417 67.9239 104.486 68.211 104.486ZM74.2841 100.096C74.4979 100.096 74.6898 100.113 74.8597 100.148L74.7587 100.825C74.5595 100.781 74.3837 100.759 74.2313 100.759C73.8417 100.759 73.5077 100.917 73.2294 101.234C72.954 101.55 72.8163 101.944 72.8163 102.416V105H72.0868V100.184H72.6888L72.7723 101.076H72.8075C72.9862 100.762 73.2015 100.521 73.4535 100.351C73.7054 100.181 73.9823 100.096 74.2841 100.096Z" fill="white"/>
<path d="M110.026 79.0513C110.026 80.0109 109.785 80.7611 109.301 81.3018C108.818 81.8389 108.15 82.1074 107.298 82.1074C106.771 82.1074 106.304 81.9839 105.896 81.7368C105.488 81.4897 105.173 81.1353 104.951 80.6733C104.729 80.2114 104.618 79.6707 104.618 79.0513C104.618 78.0916 104.858 77.3451 105.337 76.8115C105.817 76.2744 106.483 76.0059 107.335 76.0059C108.159 76.0059 108.812 76.2798 109.296 76.8276C109.783 77.3755 110.026 78.1167 110.026 79.0513ZM105.542 79.0513C105.542 79.8032 105.692 80.3761 105.993 80.77C106.293 81.1639 106.736 81.3608 107.319 81.3608C107.903 81.3608 108.345 81.1657 108.646 80.7754C108.95 80.3815 109.103 79.8068 109.103 79.0513C109.103 78.3029 108.95 77.7354 108.646 77.3486C108.345 76.9583 107.899 76.7632 107.309 76.7632C106.725 76.7632 106.285 76.9548 105.987 77.3379C105.69 77.721 105.542 78.2922 105.542 79.0513ZM114.5 76.0059C114.762 76.0059 114.996 76.0273 115.204 76.0703L115.08 76.8975C114.837 76.8438 114.622 76.8169 114.436 76.8169C113.96 76.8169 113.551 77.0103 113.211 77.397C112.875 77.7837 112.706 78.2653 112.706 78.8418V82H111.815V76.1133H112.551L112.653 77.2036H112.696C112.914 76.8205 113.177 76.5251 113.485 76.3174C113.793 76.1097 114.131 76.0059 114.5 76.0059Z" fill="white"/>
<path d="M99.9126 204V200.867C99.9126 200.483 99.8306 200.196 99.6665 200.005C99.5024 199.812 99.2476 199.715 98.9019 199.715C98.4478 199.715 98.1123 199.846 97.8955 200.106C97.6787 200.367 97.5703 200.769 97.5703 201.311V204H96.8408V200.867C96.8408 200.483 96.7588 200.196 96.5947 200.005C96.4307 199.812 96.1743 199.715 95.8257 199.715C95.3687 199.715 95.0332 199.853 94.8193 200.128C94.6084 200.401 94.5029 200.849 94.5029 201.473V204H93.7734V199.184H94.3667L94.4854 199.843H94.5205C94.6582 199.608 94.8516 199.425 95.1006 199.293C95.3525 199.162 95.6338 199.096 95.9443 199.096C96.6973 199.096 97.1895 199.368 97.4209 199.913H97.4561C97.5996 199.661 97.8076 199.462 98.0801 199.315C98.3525 199.169 98.6631 199.096 99.0117 199.096C99.5566 199.096 99.9639 199.236 100.233 199.518C100.506 199.796 100.642 200.243 100.642 200.858V204H99.9126ZM106.487 201.587C106.487 202.373 106.289 202.986 105.893 203.429C105.498 203.868 104.951 204.088 104.254 204.088C103.824 204.088 103.441 203.987 103.107 203.785C102.773 203.583 102.515 203.292 102.334 202.915C102.152 202.537 102.061 202.094 102.061 201.587C102.061 200.802 102.258 200.191 102.65 199.755C103.043 199.315 103.588 199.096 104.285 199.096C104.959 199.096 105.493 199.32 105.889 199.768C106.287 200.216 106.487 200.823 106.487 201.587ZM102.817 201.587C102.817 202.203 102.94 202.671 103.186 202.994C103.432 203.316 103.794 203.477 104.272 203.477C104.749 203.477 105.111 203.317 105.357 202.998C105.606 202.676 105.731 202.206 105.731 201.587C105.731 200.975 105.606 200.511 105.357 200.194C105.111 199.875 104.746 199.715 104.263 199.715C103.785 199.715 103.425 199.872 103.182 200.186C102.939 200.499 102.817 200.966 102.817 201.587ZM111.246 204V200.884C111.246 200.492 111.156 200.199 110.978 200.005C110.799 199.812 110.519 199.715 110.138 199.715C109.634 199.715 109.265 199.852 109.031 200.124C108.797 200.396 108.679 200.846 108.679 201.473V204H107.95V199.184H108.543L108.662 199.843H108.697C108.846 199.605 109.056 199.422 109.325 199.293C109.595 199.162 109.895 199.096 110.226 199.096C110.806 199.096 111.243 199.236 111.536 199.518C111.829 199.796 111.975 200.243 111.975 200.858V204H111.246ZM115.214 203.486C115.343 203.486 115.467 203.477 115.587 203.459C115.707 203.439 115.803 203.418 115.873 203.398V203.956C115.794 203.994 115.677 204.025 115.521 204.048C115.369 204.075 115.231 204.088 115.108 204.088C114.177 204.088 113.711 203.597 113.711 202.616V199.75H113.021V199.399L113.711 199.096L114.019 198.067H114.44V199.184H115.838V199.75H114.44V202.585C114.44 202.875 114.509 203.098 114.647 203.253C114.785 203.408 114.974 203.486 115.214 203.486ZM120.316 204V200.884C120.316 200.492 120.226 200.199 120.048 200.005C119.869 199.812 119.589 199.715 119.208 199.715C118.701 199.715 118.331 199.853 118.096 200.128C117.865 200.404 117.749 200.855 117.749 201.482V204H117.02V197.162H117.749V199.232C117.749 199.481 117.738 199.688 117.714 199.852H117.758C117.902 199.62 118.105 199.438 118.369 199.307C118.636 199.172 118.939 199.104 119.279 199.104C119.867 199.104 120.308 199.245 120.601 199.526C120.897 199.805 121.045 200.249 121.045 200.858V204H120.316Z" fill="#5B9C60"/>
<path d="M17.7852 35.2891H19.3984C20.1562 35.2891 20.7044 35.4023 21.043 35.6289C21.3815 35.8555 21.5508 36.2135 21.5508 36.7031C21.5508 37.0417 21.4557 37.3216 21.2656 37.543C21.0781 37.7617 20.8034 37.9036 20.4414 37.9688V38.0078C21.3086 38.1562 21.7422 38.612 21.7422 39.375C21.7422 39.8854 21.569 40.2839 21.2227 40.5703C20.8789 40.8568 20.3971 41 19.7773 41H17.7852V35.2891ZM18.4492 37.7344H19.543C20.0117 37.7344 20.349 37.6615 20.5547 37.5156C20.7604 37.3672 20.8633 37.1185 20.8633 36.7695C20.8633 36.4492 20.7487 36.2188 20.5195 36.0781C20.2904 35.9349 19.9258 35.8633 19.4258 35.8633H18.4492V37.7344ZM18.4492 38.2969V40.4336H19.6406C20.1016 40.4336 20.4479 40.3451 20.6797 40.168C20.9141 39.9883 21.0312 39.7083 21.0312 39.3281C21.0312 38.974 20.9115 38.7135 20.6719 38.5469C20.4349 38.3802 20.0729 38.2969 19.5859 38.2969H18.4492ZM25.5078 41L25.3789 40.3906H25.3477C25.1341 40.6589 24.9206 40.8411 24.707 40.9375C24.4961 41.0312 24.2318 41.0781 23.9141 41.0781C23.4896 41.0781 23.1562 40.9688 22.9141 40.75C22.6745 40.5312 22.5547 40.2201 22.5547 39.8164C22.5547 38.9518 23.2461 38.4987 24.6289 38.457L25.3555 38.4336V38.168C25.3555 37.832 25.2826 37.5846 25.1367 37.4258C24.9935 37.2643 24.763 37.1836 24.4453 37.1836C24.0885 37.1836 23.6849 37.293 23.2344 37.5117L23.0352 37.0156C23.2461 36.901 23.4766 36.8112 23.7266 36.7461C23.9792 36.681 24.2318 36.6484 24.4844 36.6484C24.9948 36.6484 25.3724 36.7617 25.6172 36.9883C25.8646 37.2148 25.9883 37.5781 25.9883 38.0781V41H25.5078ZM24.043 40.543C24.4466 40.543 24.763 40.4323 24.9922 40.2109C25.224 39.9896 25.3398 39.6797 25.3398 39.2812V38.8945L24.6914 38.9219C24.1758 38.9401 23.8034 39.0208 23.5742 39.1641C23.3477 39.3047 23.2344 39.5247 23.2344 39.8242C23.2344 40.0586 23.3047 40.237 23.4453 40.3594C23.5885 40.4818 23.7878 40.543 24.043 40.543ZM30.0898 39.832C30.0898 40.2305 29.9414 40.5378 29.6445 40.7539C29.3477 40.9701 28.931 41.0781 28.3945 41.0781C27.8268 41.0781 27.3841 40.9883 27.0664 40.8086V40.207C27.2721 40.3112 27.4922 40.3932 27.7266 40.4531C27.9635 40.513 28.1914 40.543 28.4102 40.543C28.7487 40.543 29.0091 40.4896 29.1914 40.3828C29.3737 40.2734 29.4648 40.1081 29.4648 39.8867C29.4648 39.7201 29.3919 39.5781 29.2461 39.4609C29.1029 39.3411 28.8216 39.2005 28.4023 39.0391C28.0039 38.8906 27.7201 38.7617 27.5508 38.6523C27.3841 38.5404 27.2591 38.4141 27.1758 38.2734C27.0951 38.1328 27.0547 37.9648 27.0547 37.7695C27.0547 37.4206 27.1966 37.1458 27.4805 36.9453C27.7643 36.7422 28.1536 36.6406 28.6484 36.6406C29.1094 36.6406 29.5599 36.7344 30 36.9219L29.7695 37.4492C29.3398 37.2721 28.9505 37.1836 28.6016 37.1836C28.2943 37.1836 28.0625 37.2318 27.9062 37.3281C27.75 37.4245 27.6719 37.5573 27.6719 37.7266C27.6719 37.8411 27.7005 37.9388 27.7578 38.0195C27.8177 38.1003 27.9128 38.1771 28.043 38.25C28.1732 38.3229 28.4232 38.4284 28.793 38.5664C29.3008 38.7513 29.6432 38.9375 29.8203 39.125C30 39.3125 30.0898 39.5482 30.0898 39.832ZM31.7969 41H31.1484V36.7188H31.7969V41ZM31.0938 35.5586C31.0938 35.4102 31.1302 35.3021 31.2031 35.2344C31.276 35.1641 31.3672 35.1289 31.4766 35.1289C31.5807 35.1289 31.6706 35.1641 31.7461 35.2344C31.8216 35.3047 31.8594 35.4128 31.8594 35.5586C31.8594 35.7044 31.8216 35.8138 31.7461 35.8867C31.6706 35.957 31.5807 35.9922 31.4766 35.9922C31.3672 35.9922 31.276 35.957 31.2031 35.8867C31.1302 35.8138 31.0938 35.7044 31.0938 35.5586ZM34.8828 41.0781C34.263 41.0781 33.7826 40.888 33.4414 40.5078C33.1029 40.125 32.9336 39.5846 32.9336 38.8867C32.9336 38.1706 33.1055 37.6172 33.4492 37.2266C33.7956 36.8359 34.2878 36.6406 34.9258 36.6406C35.1315 36.6406 35.3372 36.6628 35.543 36.707C35.7487 36.7513 35.9102 36.8034 36.0273 36.8633L35.8281 37.4141C35.6849 37.3568 35.5286 37.3099 35.3594 37.2734C35.1901 37.2344 35.0404 37.2148 34.9102 37.2148C34.0404 37.2148 33.6055 37.7695 33.6055 38.8789C33.6055 39.4049 33.7109 39.8086 33.9219 40.0898C34.1354 40.3711 34.4505 40.5117 34.8672 40.5117C35.224 40.5117 35.5898 40.4349 35.9648 40.2812V40.8555C35.6784 41.0039 35.3177 41.0781 34.8828 41.0781Z" fill="white"/>
<path d="M151.836 74.832C151.836 63.6602 156.387 58.0742 165.488 58.0742C166.921 58.0742 168.132 58.1849 169.121 58.4062V62.2344C168.132 61.9479 166.986 61.8047 165.684 61.8047C162.624 61.8047 160.326 62.625 158.789 64.2656C157.253 65.9062 156.419 68.5365 156.289 72.1562H156.523C157.135 71.1016 157.995 70.2878 159.102 69.7148C160.208 69.1289 161.51 68.8359 163.008 68.8359C165.599 68.8359 167.617 69.6302 169.062 71.2188C170.508 72.8073 171.23 74.9622 171.23 77.6836C171.23 80.6784 170.391 83.0482 168.711 84.793C167.044 86.5247 164.766 87.3906 161.875 87.3906C159.831 87.3906 158.053 86.9023 156.543 85.9258C155.033 84.9362 153.867 83.5039 153.047 81.6289C152.24 79.7409 151.836 77.4753 151.836 74.832ZM161.797 83.6016C163.372 83.6016 164.583 83.0938 165.43 82.0781C166.289 81.0625 166.719 79.6107 166.719 77.7227C166.719 76.082 166.315 74.793 165.508 73.8555C164.714 72.918 163.516 72.4492 161.914 72.4492C160.924 72.4492 160.013 72.6641 159.18 73.0938C158.346 73.5104 157.689 74.0898 157.207 74.832C156.725 75.5612 156.484 76.3099 156.484 77.0781C156.484 78.9141 156.979 80.4635 157.969 81.7266C158.971 82.9766 160.247 83.6016 161.797 83.6016Z" fill="white"/>
<path d="M140.698 105.088C140.001 105.088 139.46 104.874 139.077 104.446C138.696 104.016 138.505 103.408 138.505 102.623C138.505 101.817 138.699 101.194 139.085 100.755C139.475 100.315 140.029 100.096 140.747 100.096C140.978 100.096 141.209 100.121 141.441 100.17C141.672 100.22 141.854 100.279 141.986 100.346L141.762 100.966C141.601 100.901 141.425 100.849 141.234 100.808C141.044 100.764 140.875 100.742 140.729 100.742C139.75 100.742 139.261 101.366 139.261 102.614C139.261 103.206 139.38 103.66 139.617 103.976C139.857 104.292 140.212 104.451 140.681 104.451C141.082 104.451 141.494 104.364 141.916 104.191V104.837C141.593 105.004 141.188 105.088 140.698 105.088ZM146.204 105L146.059 104.314H146.024C145.784 104.616 145.544 104.821 145.304 104.93C145.066 105.035 144.769 105.088 144.411 105.088C143.934 105.088 143.559 104.965 143.286 104.719C143.017 104.473 142.882 104.123 142.882 103.668C142.882 102.696 143.66 102.186 145.216 102.139L146.033 102.113V101.814C146.033 101.436 145.951 101.158 145.787 100.979C145.626 100.797 145.367 100.707 145.009 100.707C144.608 100.707 144.154 100.83 143.647 101.076L143.423 100.518C143.66 100.389 143.919 100.288 144.201 100.214C144.485 100.141 144.769 100.104 145.053 100.104C145.627 100.104 146.052 100.232 146.327 100.487C146.606 100.742 146.745 101.15 146.745 101.713V105H146.204ZM144.556 104.486C145.011 104.486 145.367 104.361 145.624 104.112C145.885 103.863 146.015 103.515 146.015 103.066V102.631L145.286 102.662C144.706 102.683 144.287 102.773 144.029 102.935C143.774 103.093 143.647 103.34 143.647 103.677C143.647 103.941 143.726 104.142 143.884 104.279C144.045 104.417 144.269 104.486 144.556 104.486ZM150.63 100.096C150.843 100.096 151.035 100.113 151.205 100.148L151.104 100.825C150.905 100.781 150.729 100.759 150.577 100.759C150.187 100.759 149.853 100.917 149.575 101.234C149.299 101.55 149.162 101.944 149.162 102.416V105H148.432V100.184H149.034L149.118 101.076H149.153C149.332 100.762 149.547 100.521 149.799 100.351C150.051 100.181 150.328 100.096 150.63 100.096ZM155.564 104.354H155.525C155.188 104.843 154.684 105.088 154.013 105.088C153.383 105.088 152.893 104.873 152.541 104.442C152.192 104.011 152.018 103.399 152.018 102.605C152.018 101.811 152.194 101.194 152.545 100.755C152.897 100.315 153.386 100.096 154.013 100.096C154.666 100.096 155.167 100.333 155.516 100.808H155.573L155.542 100.46L155.525 100.122V98.1621H156.254V105H155.661L155.564 104.354ZM154.105 104.477C154.603 104.477 154.964 104.342 155.186 104.073C155.412 103.8 155.525 103.362 155.525 102.759V102.605C155.525 101.922 155.411 101.436 155.182 101.146C154.957 100.853 154.595 100.707 154.097 100.707C153.669 100.707 153.341 100.874 153.112 101.208C152.887 101.539 152.774 102.007 152.774 102.614C152.774 103.229 152.887 103.693 153.112 104.007C153.338 104.32 153.669 104.477 154.105 104.477ZM161.093 103.686C161.093 104.134 160.926 104.48 160.592 104.723C160.258 104.966 159.789 105.088 159.185 105.088C158.547 105.088 158.049 104.987 157.691 104.785V104.108C157.923 104.225 158.17 104.317 158.434 104.385C158.7 104.452 158.957 104.486 159.203 104.486C159.584 104.486 159.877 104.426 160.082 104.306C160.287 104.183 160.389 103.997 160.389 103.748C160.389 103.56 160.307 103.4 160.143 103.269C159.982 103.134 159.666 102.976 159.194 102.794C158.746 102.627 158.427 102.482 158.236 102.359C158.049 102.233 157.908 102.091 157.814 101.933C157.723 101.774 157.678 101.585 157.678 101.366C157.678 100.973 157.838 100.664 158.157 100.438C158.476 100.21 158.914 100.096 159.471 100.096C159.99 100.096 160.496 100.201 160.991 100.412L160.732 101.005C160.249 100.806 159.811 100.707 159.418 100.707C159.073 100.707 158.812 100.761 158.636 100.869C158.46 100.978 158.372 101.127 158.372 101.317C158.372 101.446 158.405 101.556 158.469 101.647C158.536 101.738 158.643 101.824 158.79 101.906C158.936 101.988 159.218 102.107 159.634 102.262C160.205 102.47 160.59 102.68 160.789 102.891C160.991 103.102 161.093 103.367 161.093 103.686ZM164.902 98.5752L162.507 105H161.778L164.173 98.5752H164.902ZM165.184 100.184H165.966L167.02 102.93C167.252 103.557 167.395 104.01 167.451 104.288H167.486C167.524 104.139 167.603 103.884 167.724 103.523C167.847 103.16 168.245 102.047 168.919 100.184H169.701L167.631 105.668C167.426 106.21 167.186 106.594 166.911 106.819C166.638 107.048 166.303 107.162 165.904 107.162C165.682 107.162 165.462 107.137 165.245 107.087V106.503C165.406 106.538 165.586 106.556 165.786 106.556C166.287 106.556 166.644 106.274 166.858 105.712L167.126 105.026L165.184 100.184ZM172.698 105.088C171.986 105.088 171.424 104.871 171.01 104.438C170.6 104.004 170.395 103.402 170.395 102.631C170.395 101.855 170.586 101.238 170.967 100.781C171.35 100.324 171.864 100.096 172.509 100.096C173.113 100.096 173.59 100.295 173.942 100.693C174.293 101.089 174.469 101.612 174.469 102.262V102.724H171.151C171.166 103.289 171.308 103.718 171.577 104.011C171.85 104.304 172.232 104.451 172.724 104.451C173.243 104.451 173.756 104.342 174.262 104.125V104.776C174.005 104.887 173.76 104.966 173.529 105.013C173.3 105.063 173.023 105.088 172.698 105.088ZM172.5 100.707C172.114 100.707 171.804 100.833 171.573 101.084C171.344 101.336 171.21 101.685 171.169 102.13H173.687C173.687 101.67 173.584 101.319 173.379 101.076C173.174 100.83 172.881 100.707 172.5 100.707ZM178.859 105L178.714 104.314H178.679C178.439 104.616 178.198 104.821 177.958 104.93C177.721 105.035 177.423 105.088 177.066 105.088C176.588 105.088 176.213 104.965 175.941 104.719C175.671 104.473 175.537 104.123 175.537 103.668C175.537 102.696 176.315 102.186 177.87 102.139L178.688 102.113V101.814C178.688 101.436 178.606 101.158 178.441 100.979C178.28 100.797 178.021 100.707 177.664 100.707C177.262 100.707 176.808 100.83 176.301 101.076L176.077 100.518C176.315 100.389 176.574 100.288 176.855 100.214C177.139 100.141 177.423 100.104 177.708 100.104C178.282 100.104 178.707 100.232 178.982 100.487C179.26 100.742 179.399 101.15 179.399 101.713V105H178.859ZM177.211 104.486C177.665 104.486 178.021 104.361 178.279 104.112C178.54 103.863 178.67 103.515 178.67 103.066V102.631L177.94 102.662C177.36 102.683 176.941 102.773 176.684 102.935C176.429 103.093 176.301 103.34 176.301 103.677C176.301 103.941 176.38 104.142 176.539 104.279C176.7 104.417 176.924 104.486 177.211 104.486ZM183.284 100.096C183.498 100.096 183.69 100.113 183.86 100.148L183.759 100.825C183.559 100.781 183.384 100.759 183.231 100.759C182.842 100.759 182.508 100.917 182.229 101.234C181.954 101.55 181.816 101.944 181.816 102.416V105H181.087V100.184H181.689L181.772 101.076H181.807C181.986 100.762 182.202 100.521 182.453 100.351C182.705 100.181 182.982 100.096 183.284 100.096Z" fill="white"/>
<path d="M128.406 36.9531C128.406 37.5312 128.208 37.9766 127.812 38.2891C127.419 38.599 126.855 38.7539 126.121 38.7539H125.449V41H124.785V35.2891H126.266C127.693 35.2891 128.406 35.8438 128.406 36.9531ZM125.449 38.1836H126.047C126.635 38.1836 127.061 38.0885 127.324 37.8984C127.587 37.7083 127.719 37.4036 127.719 36.9844C127.719 36.6068 127.595 36.3255 127.348 36.1406C127.1 35.9557 126.715 35.8633 126.191 35.8633H125.449V38.1836ZM131.461 36.6406C131.651 36.6406 131.822 36.6562 131.973 36.6875L131.883 37.2891C131.706 37.25 131.549 37.2305 131.414 37.2305C131.068 37.2305 130.771 37.3711 130.523 37.6523C130.279 37.9336 130.156 38.2839 130.156 38.7031V41H129.508V36.7188H130.043L130.117 37.5117H130.148C130.307 37.2331 130.499 37.0182 130.723 36.8672C130.947 36.7161 131.193 36.6406 131.461 36.6406ZM134.582 41.0781C133.949 41.0781 133.449 40.8854 133.082 40.5C132.717 40.1146 132.535 39.5794 132.535 38.8945C132.535 38.2044 132.704 37.6562 133.043 37.25C133.384 36.8438 133.841 36.6406 134.414 36.6406C134.951 36.6406 135.375 36.8177 135.688 37.1719C136 37.5234 136.156 37.9883 136.156 38.5664V38.9766H133.207C133.22 39.4792 133.346 39.8607 133.586 40.1211C133.828 40.3815 134.168 40.5117 134.605 40.5117C135.066 40.5117 135.522 40.4154 135.973 40.2227V40.8008C135.743 40.8997 135.526 40.9701 135.32 41.0117C135.117 41.056 134.871 41.0781 134.582 41.0781ZM134.406 37.1836C134.062 37.1836 133.788 37.2956 133.582 37.5195C133.379 37.7435 133.259 38.0534 133.223 38.4492H135.461C135.461 38.0404 135.37 37.7279 135.188 37.5117C135.005 37.293 134.745 37.1836 134.406 37.1836ZM142.723 41V38.2148C142.723 37.8737 142.65 37.6185 142.504 37.4492C142.358 37.2773 142.132 37.1914 141.824 37.1914C141.421 37.1914 141.122 37.3073 140.93 37.5391C140.737 37.7708 140.641 38.1276 140.641 38.6094V41H139.992V38.2148C139.992 37.8737 139.919 37.6185 139.773 37.4492C139.628 37.2773 139.4 37.1914 139.09 37.1914C138.684 37.1914 138.385 37.3138 138.195 37.5586C138.008 37.8008 137.914 38.1992 137.914 38.7539V41H137.266V36.7188H137.793L137.898 37.3047H137.93C138.052 37.0964 138.224 36.9336 138.445 36.8164C138.669 36.6992 138.919 36.6406 139.195 36.6406C139.865 36.6406 140.302 36.8828 140.508 37.3672H140.539C140.667 37.1432 140.852 36.9661 141.094 36.8359C141.336 36.7057 141.612 36.6406 141.922 36.6406C142.406 36.6406 142.768 36.7656 143.008 37.0156C143.25 37.263 143.371 37.6602 143.371 38.207V41H142.723ZM145.359 41H144.711V36.7188H145.359V41ZM144.656 35.5586C144.656 35.4102 144.693 35.3021 144.766 35.2344C144.839 35.1641 144.93 35.1289 145.039 35.1289C145.143 35.1289 145.233 35.1641 145.309 35.2344C145.384 35.3047 145.422 35.4128 145.422 35.5586C145.422 35.7044 145.384 35.8138 145.309 35.8867C145.233 35.957 145.143 35.9922 145.039 35.9922C144.93 35.9922 144.839 35.957 144.766 35.8867C144.693 35.8138 144.656 35.7044 144.656 35.5586ZM147.344 36.7188V39.4961C147.344 39.8451 147.423 40.1055 147.582 40.2773C147.741 40.4492 147.99 40.5352 148.328 40.5352C148.776 40.5352 149.103 40.4128 149.309 40.168C149.517 39.9232 149.621 39.5234 149.621 38.9688V36.7188H150.27V41H149.734L149.641 40.4258H149.605C149.473 40.6367 149.288 40.7982 149.051 40.9102C148.816 41.0221 148.548 41.0781 148.246 41.0781C147.725 41.0781 147.335 40.9544 147.074 40.707C146.816 40.4596 146.688 40.0638 146.688 39.5195V36.7188H147.344ZM157.105 41V38.2148C157.105 37.8737 157.033 37.6185 156.887 37.4492C156.741 37.2773 156.514 37.1914 156.207 37.1914C155.803 37.1914 155.505 37.3073 155.312 37.5391C155.12 37.7708 155.023 38.1276 155.023 38.6094V41H154.375V38.2148C154.375 37.8737 154.302 37.6185 154.156 37.4492C154.01 37.2773 153.783 37.1914 153.473 37.1914C153.066 37.1914 152.768 37.3138 152.578 37.5586C152.391 37.8008 152.297 38.1992 152.297 38.7539V41H151.648V36.7188H152.176L152.281 37.3047H152.312C152.435 37.0964 152.607 36.9336 152.828 36.8164C153.052 36.6992 153.302 36.6406 153.578 36.6406C154.247 36.6406 154.685 36.8828 154.891 37.3672H154.922C155.049 37.1432 155.234 36.9661 155.477 36.8359C155.719 36.7057 155.995 36.6406 156.305 36.6406C156.789 36.6406 157.151 36.7656 157.391 37.0156C157.633 37.263 157.754 37.6602 157.754 38.207V41H157.105Z" fill="white"/>
<path d="M95.7422 173.352C95.7422 166.617 97.0469 161.586 99.6562 158.258C102.281 154.914 106.156 153.242 111.281 153.242C113.047 153.242 114.438 153.391 115.453 153.688V157.039C114.25 156.648 112.875 156.453 111.328 156.453C107.656 156.453 104.852 157.602 102.914 159.898C100.977 162.18 99.9141 165.773 99.7266 170.68H100.008C101.727 167.992 104.445 166.648 108.164 166.648C111.242 166.648 113.664 167.578 115.43 169.438C117.211 171.297 118.102 173.82 118.102 177.008C118.102 180.57 117.125 183.375 115.172 185.422C113.234 187.453 110.609 188.469 107.297 188.469C103.75 188.469 100.938 187.141 98.8594 184.484C96.7812 181.812 95.7422 178.102 95.7422 173.352ZM107.25 185.164C109.469 185.164 111.188 184.469 112.406 183.078C113.641 181.672 114.258 179.648 114.258 177.008C114.258 174.742 113.688 172.961 112.547 171.664C111.406 170.367 109.703 169.719 107.438 169.719C106.031 169.719 104.742 170.008 103.57 170.586C102.398 171.164 101.461 171.961 100.758 172.977C100.07 173.992 99.7266 175.047 99.7266 176.141C99.7266 177.75 100.039 179.25 100.664 180.641C101.289 182.031 102.172 183.133 103.312 183.945C104.469 184.758 105.781 185.164 107.25 185.164Z" fill="#5B9C60"/>
<path d="M91.1055 160.054C91.1055 160.851 90.8066 161.51 90.209 162.031C89.6113 162.547 88.7764 162.872 87.7041 163.007V165.046H86.5703V163.086C85.9141 163.086 85.2783 163.036 84.6631 162.937C84.0479 162.831 83.5439 162.688 83.1514 162.506V161.135C83.6377 161.352 84.1973 161.53 84.8301 161.671C85.4688 161.806 86.0488 161.873 86.5703 161.873V158.006C85.3691 157.625 84.5254 157.183 84.0391 156.679C83.5586 156.175 83.3184 155.524 83.3184 154.728C83.3184 153.96 83.6143 153.33 84.2061 152.838C84.8037 152.346 85.5918 152.047 86.5703 151.941V150.342H87.7041V151.924C88.7822 151.953 89.8223 152.17 90.8242 152.574L90.3672 153.726C89.4941 153.38 88.6064 153.175 87.7041 153.11V156.925C88.624 157.218 89.3125 157.505 89.7695 157.786C90.2266 158.062 90.5635 158.381 90.7803 158.744C90.9971 159.102 91.1055 159.538 91.1055 160.054ZM89.6113 160.168C89.6113 159.746 89.4795 159.406 89.2158 159.148C88.958 158.885 88.4541 158.624 87.7041 158.366V161.785C88.9756 161.609 89.6113 161.07 89.6113 160.168ZM84.8037 154.71C84.8037 155.155 84.9355 155.513 85.1992 155.782C85.4629 156.052 85.9199 156.307 86.5703 156.547V153.146C85.9902 153.239 85.5508 153.424 85.252 153.699C84.9531 153.969 84.8037 154.306 84.8037 154.71Z" fill="#5B9C60"/>
<line x1="108.5" y1="95" x2="108.5" y2="122" stroke="white"/>
<line x1="108.5" y1="35" x2="108.5" y2="62" stroke="white"/>
</g>
<defs>
<filter id="filter0_d" x="0" y="0" width="225" height="275" filterUnits="userSpaceOnUse" color-interpolation-filters="sRGB">
<feFlood flood-opacity="0" result="BackgroundImageFix"/>
<feColorMatrix in="SourceAlpha" type="matrix" values="0 0 0 0 0 0 0 0 0 0 0 0 0 0 0 0 0 0 127 0"/>
<feOffset dx="5" dy="8"/>
<feGaussianBlur stdDeviation="3"/>
<feColorMatrix type="matrix" values="0 0 0 0 0.356863 0 0 0 0 0.611765 0 0 0 0 0.376471 0 0 0 0.4 0"/>
<feBlend mode="normal" in2="BackgroundImageFix" result="effect1_dropShadow"/>
<feBlend mode="normal" in="SourceGraphic" in2="effect1_dropShadow" result="shape"/>
</filter>
</defs>
</svg>
