<?xml version="1.0" encoding="utf-8"?>
<!-- Generator: Adobe Illustrator 16.0.0, SVG Export Plug-In . SVG Version: 6.00 Build 0)  -->
<!DOCTYPE svg PUBLIC "-//W3C//DTD SVG 1.1//EN" "http://www.w3.org/Graphics/SVG/1.1/DTD/svg11.dtd">
<svg version="1.1" id="Layer_1" xmlns="http://www.w3.org/2000/svg" xmlns:xlink="http://www.w3.org/1999/xlink" x="0px" y="0px"
	 width="1280px" height="800px" viewBox="0 0 1280 800" enable-background="new 0 0 1280 800" xml:space="preserve">
<g>
	<path fill="#FFFFFF" d="M491.755,454.497c0-12.317,6.159-19.962,15.905-19.962c5.615,0,9.962,2.971,11.847,7.281h0.217V421.71
		h10.579v52.278H519.87v-6.666h-0.181c-1.884,4.275-6.376,7.281-12.1,7.281C497.879,474.604,491.755,466.924,491.755,454.497z
		 M502.588,454.569c0,7.137,3.261,11.521,8.586,11.521c5.253,0,8.623-4.42,8.623-11.521c0-7.064-3.37-11.558-8.623-11.558
		C505.849,443.012,502.588,447.469,502.588,454.569z"/>
	<path fill="#FFFFFF" d="M581.567,473.988H570.3l-7.029-27.462h-0.217l-6.993,27.462h-11.123l-10.325-38.838h10.651l5.869,28.803
		h0.217l6.884-28.803h10.144l6.92,28.803h0.217l5.905-28.803h10.434L581.567,473.988z"/>
	<path fill="#FFFFFF" d="M636.128,449.605c-0.615-4.093-3.333-6.991-7.681-6.991c-5.217,0-8.477,4.419-8.477,11.919
		c0,7.645,3.26,11.991,8.513,11.991c4.239,0,6.993-2.535,7.645-6.773h9.855c-0.544,9.165-7.392,15.071-17.608,15.071
		c-11.701,0-19.129-7.608-19.129-20.289c0-12.463,7.428-20.215,19.057-20.215c10.507,0,17.172,6.484,17.645,15.287H636.128z"/>
	<path fill="#FFFFFF" d="M649.605,462.829c0-7.063,5.435-11.158,15.107-11.738l9.782-0.578v-2.573c0-3.623-2.536-5.723-6.521-5.723
		c-3.948,0-6.448,1.955-6.956,4.816h-9.674c0.399-7.535,6.812-12.715,17.101-12.715c9.964,0,16.448,5.144,16.448,12.97v26.7h-10.217
		v-5.941h-0.217c-2.174,4.13-6.993,6.557-11.848,6.557C655.221,474.604,649.605,469.821,649.605,462.829z M674.495,459.751v-2.826
		l-8.188,0.507c-3.949,0.29-6.195,2.064-6.195,4.818c0,2.898,2.392,4.71,5.979,4.71C670.69,466.96,674.495,463.953,674.495,459.751z
		"/>
	<path fill="#FFFFFF" d="M691.703,435.15h10.217v6.992h0.218c1.376-4.927,4.673-7.607,9.237-7.607c1.232,0,2.283,0.181,3.008,0.397
		v9.312c-0.869-0.361-2.318-0.615-3.84-0.615c-5.217,0-8.261,3.188-8.261,8.658v21.701h-10.579V435.15z"/>
	<path fill="#FFFFFF" d="M716.014,454.497c0-12.317,6.158-19.962,15.904-19.962c5.615,0,9.963,2.971,11.847,7.281h0.218V421.71
		h10.578v52.278h-10.434v-6.666h-0.182c-1.883,4.275-6.375,7.281-12.1,7.281C722.137,474.604,716.014,466.924,716.014,454.497z
		 M726.846,454.569c0,7.137,3.26,11.521,8.586,11.521c5.253,0,8.623-4.42,8.623-11.521c0-7.064-3.37-11.558-8.623-11.558
		C730.105,443.012,726.846,447.469,726.846,454.569z"/>
	<path fill="#FFFFFF" d="M777.349,434.318c9.745,0,16.086,4.927,16.23,12.462h-9.745c-0.217-3.116-2.717-5.036-6.63-5.036
		c-3.659,0-6.051,1.668-6.051,4.167c0,1.919,1.667,3.224,5.072,4.021l7.427,1.594c7.789,1.739,10.941,4.817,10.941,10.615
		c0,7.645-7.028,12.681-17.281,12.681c-10.361,0-16.738-5.001-17.317-12.572h10.325c0.508,3.261,3.079,5.145,7.282,5.145
		c4.021,0,6.448-1.594,6.448-4.131c0-1.955-1.304-3.042-4.782-3.876l-7.173-1.595c-7.354-1.666-11.123-5.506-11.123-11.23
		C760.973,439.173,767.387,434.318,777.349,434.318z"/>
</g>
<g>
	<path fill="#FFFFFF" d="M492.73,511.515c0-5.092,2.844-8.438,6.945-8.438c2.64,0,4.729,1.509,5.594,3.63h0.047v-9.695h2.09v22.675
		h-1.98v-3.457h-0.047c-0.927,2.199-3.017,3.724-5.657,3.724C495.59,519.952,492.73,516.589,492.73,511.515z M494.867,511.515
		c0,3.99,2.074,6.599,5.217,6.599c3.111,0,5.248-2.64,5.248-6.599c0-3.944-2.137-6.601-5.248-6.601
		C496.941,504.914,494.867,507.523,494.867,511.515z"/>
	<path fill="#FFFFFF" d="M524.486,515.05c-0.487,2.828-3.143,4.902-6.741,4.902c-4.588,0-7.432-3.206-7.432-8.392
		c0-5.074,2.875-8.484,7.307-8.484c4.337,0,7.071,3.189,7.071,8.061v0.881h-12.241v0.125c0,3.692,2.09,5.987,5.343,5.987
		c2.467,0,4.18-1.289,4.635-3.08H524.486z M512.465,510.367h10.088c-0.047-3.222-2.012-5.469-4.965-5.469
		C514.665,504.898,512.638,507.146,512.465,510.367z"/>
	<path fill="#FFFFFF" d="M527.612,497.011h2.074v22.675h-2.074V497.011z"/>
	<path fill="#FFFFFF" d="M533.206,498.66c0-0.754,0.628-1.367,1.383-1.367c0.77,0,1.398,0.613,1.398,1.367
		c0,0.771-0.628,1.383-1.398,1.383C533.834,500.043,533.206,499.431,533.206,498.66z M533.551,503.343h2.074v16.343h-2.074V503.343z
		"/>
	<path fill="#FFFFFF" d="M546.106,519.686h-2.215l-6.082-16.343h2.2l4.965,14.158h0.047l4.981-14.158h2.168L546.106,519.686z"/>
	<path fill="#FFFFFF" d="M567.24,515.05c-0.487,2.828-3.143,4.902-6.741,4.902c-4.589,0-7.433-3.206-7.433-8.392
		c0-5.074,2.876-8.484,7.307-8.484c4.337,0,7.071,3.189,7.071,8.061v0.881h-12.241v0.125c0,3.692,2.09,5.987,5.343,5.987
		c2.467,0,4.18-1.289,4.636-3.08H567.24z M555.219,510.367h10.088c-0.047-3.222-2.011-5.469-4.966-5.469
		C557.419,504.898,555.392,507.146,555.219,510.367z"/>
	<path fill="#FFFFFF" d="M570.225,503.343h1.964v2.907h0.047c0.597-1.996,2.122-3.174,4.133-3.174c0.55,0,1.037,0.109,1.288,0.173
		v2.043c-0.267-0.126-0.848-0.236-1.555-0.236c-2.326,0-3.803,1.807-3.803,4.447v10.183h-2.074V503.343z"/>
	<path fill="#FFFFFF" d="M580.014,525.499v-1.775c0.251,0.062,0.66,0.094,0.99,0.094c1.493,0,2.31-0.754,3.033-2.796l0.44-1.227
		l-6.128-16.452h2.231l4.966,14.269h0.047l4.981-14.269h2.185l-6.427,17.332c-1.43,3.851-2.593,4.919-5.28,4.919
		C580.721,525.594,580.249,525.547,580.014,525.499z"/>
	<path fill="#FFFFFF" d="M617.127,519.686h-2.199l-4.07-13.562h-0.047l-4.054,13.562h-2.2l-4.651-16.343h2.106l3.661,14.018h0.047
		l4.07-14.018h2.106l4.07,14.018h0.047l3.661-14.018h2.091L617.127,519.686z"/>
	<path fill="#FFFFFF" d="M624.009,497.011h2.09v9.35h0.048c0.832-2.012,2.78-3.284,5.389-3.284c3.583,0,5.846,2.389,5.846,6.05
		v10.56h-2.09v-10.215c0-2.828-1.587-4.54-4.353-4.54c-2.938,0-4.84,2.059-4.84,5.138v9.617h-2.09V497.011z"/>
	<path fill="#FFFFFF" d="M654.225,515.05c-0.486,2.828-3.143,4.902-6.741,4.902c-4.588,0-7.433-3.206-7.433-8.392
		c0-5.074,2.876-8.484,7.307-8.484c4.338,0,7.072,3.189,7.072,8.061v0.881h-12.241v0.125c0,3.692,2.09,5.987,5.343,5.987
		c2.467,0,4.18-1.289,4.635-3.08H654.225z M642.204,510.367h10.088c-0.048-3.222-2.011-5.469-4.966-5.469
		C644.404,504.898,642.377,507.146,642.204,510.367z"/>
	<path fill="#FFFFFF" d="M657.209,503.343h1.965v3.018h0.047c0.833-1.979,2.75-3.284,5.39-3.284c3.583,0,5.782,2.31,5.782,6.018
		v10.592h-2.074v-10.262c0-2.859-1.57-4.493-4.305-4.493c-2.828,0-4.73,2.042-4.73,5.075v9.68h-2.074V503.343z"/>
	<path fill="#FFFFFF" d="M680.275,498.66c0-0.754,0.629-1.367,1.383-1.367c0.77,0,1.398,0.613,1.398,1.367
		c0,0.771-0.629,1.383-1.398,1.383C680.904,500.043,680.275,499.431,680.275,498.66z M680.621,503.343h2.074v16.343h-2.074V503.343z
		"/>
	<path fill="#FFFFFF" d="M689.389,499.258v4.085h3.222v1.729h-3.222v10.497c0,1.682,0.66,2.403,2.168,2.403
		c0.221,0,1.007-0.03,1.133-0.062v1.775c-0.221,0.047-1.101,0.094-1.541,0.094c-2.733,0-3.834-1.163-3.834-4.117v-10.591h-2.436
		v-1.729h2.436v-4.085H689.389z"/>
	<path fill="#FFFFFF" d="M713.398,508.513c-0.439-2.011-2.09-3.599-4.667-3.599c-3.19,0-5.28,2.562-5.28,6.601
		c0,4.101,2.105,6.599,5.296,6.599c2.468,0,4.18-1.367,4.651-3.488h2.059c-0.456,3.128-3.111,5.327-6.726,5.327
		c-4.462,0-7.401-3.206-7.401-8.438c0-5.154,2.939-8.438,7.386-8.438c3.85,0,6.317,2.514,6.726,5.437H713.398z"/>
	<path fill="#FFFFFF" d="M717.231,511.515c0-5.202,3.017-8.438,7.448-8.438c4.447,0,7.448,3.236,7.448,8.438
		c0,5.185-3.001,8.438-7.448,8.438S717.231,516.699,717.231,511.515z M730.022,511.515c0-4.149-2.138-6.601-5.343-6.601
		s-5.327,2.451-5.327,6.601c0,4.147,2.122,6.599,5.327,6.599S730.022,515.662,730.022,511.515z"/>
	<path fill="#FFFFFF" d="M747.998,519.686h-1.965v-3.033h-0.047c-0.864,2.012-2.828,3.3-5.422,3.3c-3.551,0-5.766-2.31-5.766-5.987
		v-10.622h2.09v10.262c0,2.891,1.539,4.493,4.273,4.493c2.844,0,4.762-1.995,4.762-5.06v-9.695h2.074V519.686z"/>
	<path fill="#FFFFFF" d="M751.579,503.343h1.964v3.018h0.048c0.833-1.979,2.749-3.284,5.39-3.284c3.582,0,5.783,2.31,5.783,6.018
		v10.592h-2.074v-10.262c0-2.859-1.572-4.493-4.307-4.493c-2.828,0-4.729,2.042-4.729,5.075v9.68h-2.074V503.343z"/>
	<path fill="#FFFFFF" d="M771.236,499.258v4.085h3.221v1.729h-3.221v10.497c0,1.682,0.66,2.403,2.168,2.403
		c0.221,0,1.006-0.03,1.132-0.062v1.775c-0.22,0.047-1.101,0.094-1.54,0.094c-2.734,0-3.834-1.163-3.834-4.117v-10.591h-2.436
		v-1.729h2.436v-4.085H771.236z"/>
	<path fill="#FFFFFF" d="M782.958,503.076c3.347,0,5.735,1.964,5.939,4.84h-1.995c-0.252-1.933-1.744-3.127-4.008-3.127
		c-2.23,0-3.756,1.179-3.756,2.812c0,1.336,0.959,2.152,3.143,2.687l2.42,0.582c3.27,0.817,4.495,2.011,4.495,4.353
		c0,2.766-2.593,4.729-6.286,4.729c-3.504,0-6.033-1.964-6.301-4.839h2.074c0.299,1.932,1.901,3.126,4.353,3.126
		s4.07-1.147,4.07-2.859c0-1.415-0.817-2.169-3.002-2.703l-2.655-0.659c-2.954-0.739-4.369-2.138-4.369-4.306
		C777.08,505.009,779.5,503.076,782.958,503.076z"/>
</g>
<g>
	<circle fill="#FFFFFF" cx="655.277" cy="309.865" r="4.372"/>
	<path fill="#FFFFFF" d="M721.208,375.626C732.117,369.718,741.764,363,750.272,353h-11.585c19.671-15,30.559-33.155,35.748-54.929
		c-8.555,3.209-23.617,9.074-26.998,10.146l-2.041,0.359l0.748-1.099c0-0.002-0.002-0.019-0.002-0.019s23.7-32.484,26.906-53.294
		c-1.533,0.768-2.402,1.225-3.293,1.643c-5.906,2.774-11.631,5.978-17.756,8.232c-24.97,9.192-51.116,12.431-77.758,12.452
		c-19.726,0.018-36.623,5.863-50.087,19.722c-0.114,0.119-0.274,0.226-0.451,0.324c-6.678-2.364-13.143-7.909-15.242-13.612
		c-1.376-3.741-2.478-7.605-4.24-11.181c-3.495-7.094-8.781-12.946-17.107-14.842c-12.369-2.818-24.081-1.004-34.7,6.104
		c-6.095,4.081-12.853,7.033-20.394,7.868c-13.189,1.458-26.403,2.71-39.595,4.142c-4.558,0.494-12.991,1.424-13.621,1.912
		c-0.63,0.489-0.398,0.812,0.06,1.394c0.458,0.581,38.784-2.577,52.574-1.353c4.473,0.397,9.167,1.661,13.104,3.666
		c7.895,4.018,12.83,10.83,16.26,18.443c4.649,10.32,6.859,21.951,13.433,31.164c3.679,5.156,8.91,10.055,17.167,9.819
		c11.397-0.325,21.737-8.017,24.925-16.683c1.553-4.217,2.793-8.571,4.779-12.602c3.939-7.996,9.898-14.592,19.283-16.729
		c13.941-3.177,27.143-1.132,39.112,6.881c6.87,4.6,14.487,7.928,22.987,8.868c14.865,1.644,29.761,3.055,44.63,4.669
		c5.138,0.558,14.644,1.604,15.353,2.155c0.711,0.551,0.449,0.914-0.066,1.57c-0.517,0.655-43.717-2.905-59.26-1.523
		c-5.042,0.447-10.334,1.871-14.771,4.131c-8.898,4.529-14.461,12.207-18.328,20.789c-5.24,11.633-9.943,23.478-15.141,35.127
		c-1.994,4.47-4.713,8.653-7.162,13.077c0.505,0.219,56.504,18.456,128.102,16.68c0.177-0.434-0.176,0.435,0,0
		C757.7,396.205,739.553,386.007,721.208,375.626z M572.631,276.339c-2.415,0-4.372-1.958-4.372-4.372
		c0-2.415,1.958-4.373,4.372-4.373s4.372,1.958,4.372,4.373C577.003,274.381,575.046,276.339,572.631,276.339z"/>
</g>
</svg>
